<svg width="1363" height="301" viewBox="0 0 1363 301" fill="none" xmlns="http://www.w3.org/2000/svg">
<rect width="1363" height="301" rx="15" fill="#F0F0F0"/>
<path d="M0 15C0 6.71573 6.71573 0 15 0H37V301H15C6.71573 301 0 294.284 0 286V15Z" fill="#3AD514"/>
<path d="M115.123 133.607C115.123 132.998 115.033 132.452 114.854 131.969C114.675 131.467 114.344 131.002 113.86 130.572C113.377 130.143 112.679 129.713 111.766 129.283C110.87 128.836 109.689 128.37 108.221 127.887C106.502 127.314 104.846 126.669 103.252 125.953C101.659 125.219 100.236 124.369 98.9824 123.402C97.7292 122.417 96.7355 121.271 96.0015 119.964C95.2674 118.639 94.9004 117.1 94.9004 115.345C94.9004 113.662 95.2764 112.149 96.0283 110.807C96.7803 109.446 97.8276 108.291 99.1704 107.342C100.531 106.375 102.125 105.641 103.951 105.14C105.777 104.621 107.773 104.361 109.939 104.361C112.804 104.361 115.328 104.863 117.513 105.865C119.715 106.85 121.434 108.255 122.669 110.082C123.922 111.89 124.549 114.029 124.549 116.5H115.176C115.176 115.515 114.97 114.647 114.559 113.895C114.165 113.143 113.565 112.552 112.759 112.123C111.954 111.693 110.942 111.478 109.725 111.478C108.543 111.478 107.549 111.657 106.744 112.015C105.938 112.373 105.329 112.857 104.917 113.465C104.506 114.056 104.3 114.71 104.3 115.426C104.3 116.017 104.461 116.554 104.783 117.037C105.123 117.503 105.598 117.941 106.207 118.353C106.833 118.765 107.585 119.159 108.462 119.535C109.358 119.911 110.36 120.278 111.47 120.636C113.547 121.298 115.391 122.041 117.002 122.865C118.632 123.67 120.001 124.592 121.111 125.631C122.239 126.651 123.09 127.815 123.663 129.122C124.253 130.429 124.549 131.906 124.549 133.553C124.549 135.308 124.209 136.865 123.528 138.226C122.848 139.587 121.872 140.742 120.601 141.69C119.33 142.621 117.808 143.329 116.036 143.812C114.263 144.295 112.285 144.537 110.101 144.537C108.095 144.537 106.117 144.286 104.166 143.785C102.232 143.266 100.477 142.478 98.9019 141.422C97.3263 140.348 96.0641 138.978 95.1152 137.313C94.1842 135.63 93.7188 133.634 93.7188 131.324H103.172C103.172 132.47 103.324 133.437 103.628 134.225C103.933 135.012 104.38 135.648 104.971 136.131C105.562 136.597 106.287 136.937 107.146 137.152C108.006 137.349 108.991 137.447 110.101 137.447C111.3 137.447 112.267 137.277 113.001 136.937C113.735 136.579 114.272 136.113 114.612 135.541C114.952 134.95 115.123 134.305 115.123 133.607ZM138.111 120.528V155.172H129.061V114.942H137.493L138.111 120.528ZM155.943 129.122V129.686C155.943 131.799 155.701 133.759 155.218 135.567C154.734 137.376 154.018 138.951 153.069 140.294C152.12 141.637 150.939 142.684 149.524 143.436C148.128 144.17 146.508 144.537 144.664 144.537C142.927 144.537 141.432 144.152 140.179 143.382C138.925 142.612 137.878 141.547 137.037 140.187C136.195 138.826 135.515 137.268 134.996 135.514C134.476 133.759 134.065 131.906 133.76 129.955V129.229C134.065 127.135 134.476 125.192 134.996 123.402C135.515 121.594 136.195 120.018 137.037 118.675C137.878 117.333 138.917 116.285 140.152 115.533C141.405 114.781 142.9 114.405 144.637 114.405C146.481 114.405 148.101 114.754 149.498 115.453C150.912 116.151 152.094 117.153 153.042 118.46C154.009 119.75 154.734 121.298 155.218 123.106C155.701 124.915 155.943 126.92 155.943 129.122ZM146.893 129.686V129.122C146.893 127.994 146.812 126.965 146.651 126.034C146.49 125.085 146.23 124.261 145.872 123.563C145.532 122.865 145.075 122.328 144.502 121.952C143.93 121.576 143.222 121.388 142.381 121.388C141.414 121.388 140.599 121.54 139.937 121.844C139.292 122.131 138.773 122.578 138.379 123.187C138.003 123.778 137.735 124.521 137.574 125.416C137.431 126.293 137.368 127.323 137.386 128.504V130.707C137.35 132.067 137.484 133.267 137.789 134.305C138.093 135.326 138.621 136.122 139.373 136.695C140.125 137.268 141.146 137.555 142.435 137.555C143.294 137.555 144.01 137.358 144.583 136.964C145.156 136.552 145.612 135.988 145.953 135.272C146.293 134.538 146.535 133.696 146.678 132.748C146.821 131.799 146.893 130.778 146.893 129.686ZM158.843 129.767V129.203C158.843 127.072 159.148 125.112 159.756 123.321C160.365 121.513 161.26 119.946 162.442 118.622C163.624 117.297 165.083 116.267 166.819 115.533C168.556 114.781 170.561 114.405 172.835 114.405C175.127 114.405 177.141 114.781 178.877 115.533C180.632 116.267 182.1 117.297 183.282 118.622C184.463 119.946 185.359 121.513 185.967 123.321C186.576 125.112 186.88 127.072 186.88 129.203V129.767C186.88 131.879 186.576 133.84 185.967 135.648C185.359 137.438 184.463 139.005 183.282 140.348C182.1 141.673 180.641 142.702 178.904 143.436C177.168 144.17 175.162 144.537 172.889 144.537C170.615 144.537 168.601 144.17 166.846 143.436C165.092 142.702 163.624 141.673 162.442 140.348C161.26 139.005 160.365 137.438 159.756 135.648C159.148 133.84 158.843 131.879 158.843 129.767ZM167.894 129.203V129.767C167.894 130.859 167.974 131.879 168.135 132.828C168.296 133.777 168.565 134.61 168.941 135.326C169.317 136.024 169.827 136.57 170.472 136.964C171.116 137.358 171.922 137.555 172.889 137.555C173.838 137.555 174.625 137.358 175.252 136.964C175.896 136.57 176.407 136.024 176.783 135.326C177.159 134.61 177.427 133.777 177.588 132.828C177.75 131.879 177.83 130.859 177.83 129.767V129.203C177.83 128.146 177.75 127.153 177.588 126.222C177.427 125.273 177.159 124.44 176.783 123.724C176.407 122.99 175.896 122.417 175.252 122.005C174.607 121.594 173.802 121.388 172.835 121.388C171.886 121.388 171.089 121.594 170.445 122.005C169.818 122.417 169.317 122.99 168.941 123.724C168.565 124.44 168.296 125.273 168.135 126.222C167.974 127.153 167.894 128.146 167.894 129.203ZM206.216 114.942V121.227H188.707V114.942H206.216ZM192.386 107.718H201.436V134.52C201.436 135.29 201.526 135.89 201.705 136.319C201.884 136.731 202.188 137.027 202.618 137.206C203.065 137.367 203.656 137.447 204.39 137.447C204.909 137.447 205.339 137.438 205.679 137.42C206.019 137.385 206.342 137.34 206.646 137.286V143.758C205.876 144.009 205.07 144.197 204.229 144.322C203.388 144.465 202.492 144.537 201.543 144.537C199.61 144.537 197.954 144.233 196.575 143.624C195.215 143.015 194.176 142.057 193.46 140.75C192.744 139.444 192.386 137.743 192.386 135.648V107.718ZM219.375 114.942V144H210.298V114.942H219.375ZM209.761 107.45C209.761 106.161 210.227 105.104 211.158 104.281C212.089 103.457 213.297 103.045 214.783 103.045C216.269 103.045 217.478 103.457 218.409 104.281C219.34 105.104 219.805 106.161 219.805 107.45C219.805 108.739 219.34 109.795 218.409 110.619C217.478 111.442 216.269 111.854 214.783 111.854C213.297 111.854 212.089 111.442 211.158 110.619C210.227 109.795 209.761 108.739 209.761 107.45ZM236.053 144H226.949V112.579C226.949 110.323 227.405 108.425 228.318 106.886C229.231 105.346 230.521 104.182 232.186 103.395C233.851 102.589 235.82 102.186 238.094 102.186C238.882 102.186 239.625 102.24 240.323 102.347C241.021 102.455 241.701 102.589 242.364 102.75L242.391 109.41C242.068 109.321 241.737 109.258 241.397 109.222C241.057 109.186 240.636 109.168 240.135 109.168C239.257 109.168 238.514 109.303 237.906 109.571C237.297 109.822 236.832 110.207 236.509 110.726C236.205 111.227 236.053 111.845 236.053 112.579V144ZM241.692 114.942V121.227H222.759V114.942H241.692ZM253.858 140.589L261.377 114.942H271.099L259.417 148.324C259.166 149.058 258.835 149.846 258.423 150.687C258.012 151.546 257.448 152.361 256.731 153.131C256.015 153.901 255.093 154.527 253.965 155.011C252.855 155.494 251.477 155.736 249.83 155.736C248.952 155.736 248.308 155.691 247.896 155.602C247.502 155.53 246.893 155.396 246.07 155.199V148.727C246.303 148.727 246.5 148.727 246.661 148.727C246.84 148.727 247.037 148.727 247.251 148.727C248.218 148.727 248.988 148.628 249.561 148.431C250.152 148.234 250.599 147.948 250.904 147.572C251.226 147.196 251.477 146.739 251.656 146.202L253.858 140.589ZM251.951 114.942L257.671 135.272L258.665 144.859H252.596L242.256 114.942H251.951ZM309.825 130.76H319.224C319.099 133.482 318.365 135.881 317.022 137.958C315.679 140.034 313.817 141.655 311.436 142.818C309.073 143.964 306.28 144.537 303.057 144.537C300.443 144.537 298.107 144.098 296.048 143.221C294.007 142.344 292.27 141.082 290.838 139.435C289.424 137.787 288.34 135.791 287.588 133.446C286.854 131.1 286.487 128.46 286.487 125.523V123.402C286.487 120.466 286.872 117.825 287.642 115.479C288.43 113.116 289.54 111.111 290.972 109.464C292.422 107.799 294.159 106.528 296.182 105.65C298.205 104.773 300.452 104.334 302.923 104.334C306.325 104.334 309.198 104.943 311.543 106.161C313.889 107.378 315.706 109.052 316.995 111.183C318.284 113.295 319.045 115.703 319.278 118.407H309.878C309.843 116.939 309.592 115.712 309.126 114.728C308.661 113.725 307.927 112.973 306.924 112.472C305.922 111.97 304.588 111.72 302.923 111.72C301.759 111.72 300.748 111.935 299.888 112.364C299.029 112.794 298.313 113.474 297.74 114.405C297.167 115.336 296.737 116.545 296.451 118.031C296.182 119.499 296.048 121.271 296.048 123.348V125.523C296.048 127.6 296.173 129.373 296.424 130.841C296.674 132.309 297.077 133.508 297.632 134.439C298.187 135.37 298.903 136.06 299.781 136.507C300.676 136.937 301.768 137.152 303.057 137.152C304.489 137.152 305.698 136.928 306.683 136.48C307.667 136.015 308.428 135.317 308.965 134.386C309.502 133.437 309.789 132.228 309.825 130.76ZM332.115 102.75V144H323.064V102.75H332.115ZM331.041 128.478L328.919 128.531C328.919 126.49 329.17 124.61 329.671 122.892C330.172 121.173 330.888 119.678 331.819 118.407C332.75 117.136 333.869 116.151 335.176 115.453C336.483 114.754 337.933 114.405 339.527 114.405C340.959 114.405 342.266 114.611 343.448 115.023C344.647 115.435 345.677 116.097 346.536 117.01C347.413 117.923 348.085 119.114 348.55 120.582C349.034 122.05 349.275 123.84 349.275 125.953V144H340.171V125.899C340.171 124.718 340.001 123.805 339.661 123.16C339.339 122.498 338.873 122.041 338.265 121.791C337.656 121.522 336.913 121.388 336.036 121.388C334.979 121.388 334.12 121.567 333.458 121.925C332.795 122.283 332.285 122.784 331.927 123.429C331.587 124.055 331.354 124.798 331.229 125.658C331.103 126.517 331.041 127.457 331.041 128.478ZM369.39 136.695V124.718C369.39 123.894 369.274 123.187 369.041 122.596C368.808 122.005 368.441 121.549 367.94 121.227C367.439 120.886 366.767 120.716 365.926 120.716C365.245 120.716 364.664 120.833 364.18 121.065C363.697 121.298 363.33 121.647 363.079 122.113C362.828 122.578 362.703 123.169 362.703 123.885H353.653C353.653 122.542 353.948 121.298 354.539 120.152C355.148 118.989 356.007 117.977 357.117 117.118C358.245 116.258 359.588 115.596 361.146 115.13C362.721 114.647 364.476 114.405 366.409 114.405C368.719 114.405 370.778 114.79 372.586 115.56C374.412 116.33 375.853 117.485 376.91 119.024C377.966 120.546 378.494 122.462 378.494 124.771V136.668C378.494 138.566 378.602 140.007 378.816 140.992C379.031 141.959 379.336 142.809 379.729 143.543V144H370.652C370.223 143.105 369.9 142.013 369.686 140.724C369.489 139.417 369.39 138.074 369.39 136.695ZM370.491 126.249L370.545 131.083H366.543C365.702 131.083 364.986 131.199 364.395 131.432C363.822 131.664 363.357 131.987 362.999 132.398C362.658 132.792 362.408 133.24 362.247 133.741C362.103 134.243 362.032 134.771 362.032 135.326C362.032 135.863 362.157 136.346 362.408 136.776C362.676 137.188 363.034 137.51 363.482 137.743C363.93 137.975 364.431 138.092 364.986 138.092C365.988 138.092 366.839 137.904 367.537 137.528C368.253 137.134 368.799 136.66 369.175 136.104C369.551 135.549 369.739 135.03 369.739 134.547L371.727 138.253C371.368 138.969 370.957 139.694 370.491 140.428C370.044 141.162 369.48 141.843 368.799 142.469C368.137 143.078 367.322 143.579 366.355 143.973C365.389 144.349 364.216 144.537 362.837 144.537C361.047 144.537 359.4 144.17 357.896 143.436C356.41 142.702 355.219 141.681 354.324 140.375C353.429 139.05 352.981 137.528 352.981 135.809C352.981 134.305 353.25 132.962 353.787 131.781C354.342 130.599 355.175 129.597 356.285 128.773C357.395 127.949 358.809 127.323 360.528 126.893C362.247 126.463 364.27 126.249 366.597 126.249H370.491ZM393.077 102.75V144H384V102.75H393.077ZM408.223 102.75V144H399.146V102.75H408.223ZM427.881 144.537C425.518 144.537 423.405 144.17 421.543 143.436C419.681 142.684 418.106 141.655 416.817 140.348C415.546 139.041 414.57 137.537 413.89 135.836C413.227 134.135 412.896 132.336 412.896 130.438V129.417C412.896 127.287 413.191 125.318 413.782 123.509C414.373 121.683 415.25 120.09 416.414 118.729C417.578 117.368 419.037 116.312 420.792 115.56C422.546 114.79 424.587 114.405 426.915 114.405C428.973 114.405 430.818 114.736 432.447 115.399C434.076 116.061 435.455 117.01 436.583 118.246C437.728 119.481 438.597 120.976 439.188 122.73C439.796 124.485 440.101 126.454 440.101 128.639V132.318H416.36V126.651H431.265V125.953C431.283 124.986 431.113 124.163 430.755 123.482C430.415 122.802 429.913 122.283 429.251 121.925C428.589 121.567 427.783 121.388 426.834 121.388C425.849 121.388 425.035 121.603 424.39 122.032C423.764 122.462 423.271 123.053 422.913 123.805C422.573 124.539 422.331 125.389 422.188 126.356C422.045 127.323 421.973 128.343 421.973 129.417V130.438C421.973 131.512 422.116 132.488 422.403 133.365C422.707 134.243 423.137 134.994 423.692 135.621C424.265 136.23 424.945 136.704 425.733 137.044C426.539 137.385 427.452 137.555 428.472 137.555C429.708 137.555 430.925 137.322 432.125 136.856C433.324 136.391 434.354 135.621 435.213 134.547L439.322 139.435C438.731 140.276 437.889 141.091 436.797 141.878C435.723 142.666 434.434 143.311 432.93 143.812C431.426 144.295 429.743 144.537 427.881 144.537ZM452.669 121.146V144H443.619V114.942H452.105L452.669 121.146ZM451.595 128.478L449.473 128.531C449.473 126.311 449.742 124.333 450.279 122.596C450.816 120.842 451.577 119.356 452.562 118.138C453.546 116.921 454.719 115.999 456.08 115.372C457.458 114.728 458.989 114.405 460.672 114.405C462.015 114.405 463.241 114.602 464.351 114.996C465.479 115.39 466.446 116.026 467.251 116.903C468.075 117.78 468.702 118.944 469.131 120.394C469.579 121.826 469.803 123.599 469.803 125.711V144H460.699V125.685C460.699 124.521 460.538 123.635 460.215 123.026C459.893 122.399 459.428 121.97 458.819 121.737C458.21 121.504 457.467 121.388 456.59 121.388C455.659 121.388 454.871 121.567 454.227 121.925C453.582 122.283 453.063 122.784 452.669 123.429C452.293 124.055 452.015 124.798 451.836 125.658C451.675 126.517 451.595 127.457 451.595 128.478ZM493.086 114.942H501.304V142.872C501.304 145.558 500.687 147.831 499.451 149.693C498.216 151.573 496.488 152.997 494.268 153.963C492.066 154.948 489.488 155.44 486.534 155.44C485.227 155.44 483.893 155.27 482.532 154.93C481.172 154.608 479.9 154.125 478.719 153.48C477.537 152.835 476.543 152.039 475.738 151.09L479.524 145.772C480.258 146.596 481.181 147.294 482.291 147.867C483.401 148.458 484.708 148.753 486.211 148.753C487.518 148.753 488.611 148.521 489.488 148.055C490.383 147.59 491.063 146.909 491.529 146.014C491.994 145.137 492.227 144.072 492.227 142.818V121.817L493.086 114.942ZM473.777 129.82V129.256C473.777 127.054 474.046 125.049 474.583 123.241C475.138 121.415 475.926 119.848 476.946 118.541C477.985 117.216 479.238 116.196 480.706 115.479C482.174 114.763 483.83 114.405 485.674 114.405C487.662 114.405 489.291 114.79 490.562 115.56C491.851 116.312 492.881 117.368 493.65 118.729C494.438 120.09 495.047 121.683 495.477 123.509C495.924 125.318 496.3 127.269 496.604 129.364V130.035C496.3 132.005 495.879 133.867 495.342 135.621C494.823 137.358 494.143 138.897 493.301 140.24C492.46 141.583 491.403 142.639 490.132 143.409C488.879 144.161 487.375 144.537 485.621 144.537C483.794 144.537 482.147 144.17 480.679 143.436C479.229 142.702 477.985 141.673 476.946 140.348C475.926 139.023 475.138 137.465 474.583 135.675C474.046 133.884 473.777 131.933 473.777 129.82ZM482.828 129.256V129.82C482.828 130.912 482.926 131.924 483.123 132.855C483.338 133.786 483.66 134.61 484.09 135.326C484.52 136.024 485.048 136.57 485.674 136.964C486.319 137.358 487.071 137.555 487.93 137.555C489.237 137.555 490.293 137.277 491.099 136.722C491.905 136.167 492.487 135.379 492.845 134.359C493.203 133.338 493.355 132.139 493.301 130.76V128.639C493.337 127.457 493.257 126.419 493.06 125.523C492.863 124.61 492.549 123.849 492.12 123.241C491.708 122.632 491.153 122.175 490.455 121.871C489.774 121.549 488.951 121.388 487.984 121.388C487.142 121.388 486.399 121.585 485.755 121.979C485.11 122.372 484.573 122.927 484.144 123.644C483.714 124.342 483.383 125.174 483.15 126.141C482.935 127.09 482.828 128.128 482.828 129.256ZM520.586 144.537C518.223 144.537 516.111 144.17 514.249 143.436C512.387 142.684 510.811 141.655 509.522 140.348C508.251 139.041 507.275 137.537 506.595 135.836C505.932 134.135 505.601 132.336 505.601 130.438V129.417C505.601 127.287 505.896 125.318 506.487 123.509C507.078 121.683 507.955 120.09 509.119 118.729C510.283 117.368 511.742 116.312 513.497 115.56C515.251 114.79 517.292 114.405 519.62 114.405C521.679 114.405 523.523 114.736 525.152 115.399C526.781 116.061 528.16 117.01 529.288 118.246C530.433 119.481 531.302 120.976 531.893 122.73C532.501 124.485 532.806 126.454 532.806 128.639V132.318H509.065V126.651H523.97V125.953C523.988 124.986 523.818 124.163 523.46 123.482C523.12 122.802 522.618 122.283 521.956 121.925C521.294 121.567 520.488 121.388 519.539 121.388C518.554 121.388 517.74 121.603 517.095 122.032C516.469 122.462 515.976 123.053 515.618 123.805C515.278 124.539 515.036 125.389 514.893 126.356C514.75 127.323 514.678 128.343 514.678 129.417V130.438C514.678 131.512 514.821 132.488 515.108 133.365C515.412 134.243 515.842 134.994 516.397 135.621C516.97 136.23 517.65 136.704 518.438 137.044C519.244 137.385 520.157 137.555 521.177 137.555C522.413 137.555 523.63 137.322 524.83 136.856C526.029 136.391 527.059 135.621 527.918 134.547L532.027 139.435C531.436 140.276 530.595 141.091 529.502 141.878C528.428 142.666 527.139 143.311 525.635 143.812C524.131 144.295 522.448 144.537 520.586 144.537ZM571.88 144V150.741H547.603V144H571.88ZM605.208 113.116L595.674 144H585.55L599.917 104.898H606.336L605.208 113.116ZM613.104 144L603.543 113.116L602.308 104.898H608.807L623.255 144H613.104ZM612.728 129.417V136.695H592.667V129.417H612.728ZM633.299 121.146V144H624.249V114.942H632.735L633.299 121.146ZM632.225 128.478L630.103 128.531C630.103 126.311 630.372 124.333 630.909 122.596C631.446 120.842 632.207 119.356 633.191 118.138C634.176 116.921 635.349 115.999 636.709 115.372C638.088 114.728 639.619 114.405 641.302 114.405C642.645 114.405 643.871 114.602 644.981 114.996C646.109 115.39 647.076 116.026 647.881 116.903C648.705 117.78 649.332 118.944 649.761 120.394C650.209 121.826 650.433 123.599 650.433 125.711V144H641.329V125.685C641.329 124.521 641.167 123.635 640.845 123.026C640.523 122.399 640.057 121.97 639.449 121.737C638.84 121.504 638.097 121.388 637.22 121.388C636.289 121.388 635.501 121.567 634.856 121.925C634.212 122.283 633.693 122.784 633.299 123.429C632.923 124.055 632.645 124.798 632.466 125.658C632.305 126.517 632.225 127.457 632.225 128.478ZM673.716 114.942H681.934V142.872C681.934 145.558 681.316 147.831 680.081 149.693C678.846 151.573 677.118 152.997 674.898 153.963C672.696 154.948 670.118 155.44 667.164 155.44C665.857 155.44 664.523 155.27 663.162 154.93C661.801 154.608 660.53 154.125 659.349 153.48C658.167 152.835 657.173 152.039 656.368 151.09L660.154 145.772C660.888 146.596 661.81 147.294 662.92 147.867C664.03 148.458 665.337 148.753 666.841 148.753C668.148 148.753 669.24 148.521 670.118 148.055C671.013 147.59 671.693 146.909 672.159 146.014C672.624 145.137 672.857 144.072 672.857 142.818V121.817L673.716 114.942ZM654.407 129.82V129.256C654.407 127.054 654.676 125.049 655.213 123.241C655.768 121.415 656.556 119.848 657.576 118.541C658.615 117.216 659.868 116.196 661.336 115.479C662.804 114.763 664.46 114.405 666.304 114.405C668.292 114.405 669.921 114.79 671.192 115.56C672.481 116.312 673.51 117.368 674.28 118.729C675.068 120.09 675.677 121.683 676.106 123.509C676.554 125.318 676.93 127.269 677.234 129.364V130.035C676.93 132.005 676.509 133.867 675.972 135.621C675.453 137.358 674.773 138.897 673.931 140.24C673.09 141.583 672.033 142.639 670.762 143.409C669.509 144.161 668.005 144.537 666.25 144.537C664.424 144.537 662.777 144.17 661.309 143.436C659.859 142.702 658.615 141.673 657.576 140.348C656.556 139.023 655.768 137.465 655.213 135.675C654.676 133.884 654.407 131.933 654.407 129.82ZM663.458 129.256V129.82C663.458 130.912 663.556 131.924 663.753 132.855C663.968 133.786 664.29 134.61 664.72 135.326C665.149 136.024 665.678 136.57 666.304 136.964C666.949 137.358 667.701 137.555 668.56 137.555C669.867 137.555 670.923 137.277 671.729 136.722C672.535 136.167 673.117 135.379 673.475 134.359C673.833 133.338 673.985 132.139 673.931 130.76V128.639C673.967 127.457 673.886 126.419 673.689 125.523C673.493 124.61 673.179 123.849 672.75 123.241C672.338 122.632 671.783 122.175 671.084 121.871C670.404 121.549 669.581 121.388 668.614 121.388C667.772 121.388 667.029 121.585 666.385 121.979C665.74 122.372 665.203 122.927 664.773 123.644C664.344 124.342 664.013 125.174 663.78 126.141C663.565 127.09 663.458 128.128 663.458 129.256ZM704.117 136.937V114.942H713.194V144H704.708L704.117 136.937ZM704.976 131.029L707.339 130.975C707.339 132.927 707.107 134.735 706.641 136.4C706.176 138.047 705.486 139.479 704.573 140.697C703.678 141.914 702.568 142.863 701.243 143.543C699.936 144.206 698.423 144.537 696.705 144.537C695.272 144.537 693.956 144.34 692.757 143.946C691.575 143.535 690.555 142.899 689.695 142.04C688.836 141.162 688.165 140.043 687.681 138.683C687.216 137.304 686.983 135.657 686.983 133.741V114.942H696.033V133.795C696.033 134.439 696.114 134.994 696.275 135.46C696.436 135.925 696.669 136.319 696.973 136.642C697.278 136.946 697.653 137.179 698.101 137.34C698.567 137.483 699.095 137.555 699.686 137.555C701.046 137.555 702.111 137.268 702.881 136.695C703.651 136.122 704.188 135.344 704.493 134.359C704.815 133.374 704.976 132.264 704.976 131.029ZM727.75 102.75V144H718.672V102.75H727.75ZM748.428 136.695V124.718C748.428 123.894 748.312 123.187 748.079 122.596C747.846 122.005 747.479 121.549 746.978 121.227C746.477 120.886 745.805 120.716 744.964 120.716C744.284 120.716 743.702 120.833 743.218 121.065C742.735 121.298 742.368 121.647 742.117 122.113C741.867 122.578 741.741 123.169 741.741 123.885H732.691C732.691 122.542 732.986 121.298 733.577 120.152C734.186 118.989 735.045 117.977 736.155 117.118C737.283 116.258 738.626 115.596 740.184 115.13C741.759 114.647 743.514 114.405 745.447 114.405C747.757 114.405 749.816 114.79 751.624 115.56C753.45 116.33 754.891 117.485 755.948 119.024C757.004 120.546 757.532 122.462 757.532 124.771V136.668C757.532 138.566 757.64 140.007 757.854 140.992C758.069 141.959 758.374 142.809 758.768 143.543V144H749.69C749.261 143.105 748.938 142.013 748.724 140.724C748.527 139.417 748.428 138.074 748.428 136.695ZM749.529 126.249L749.583 131.083H745.582C744.74 131.083 744.024 131.199 743.433 131.432C742.86 131.664 742.395 131.987 742.037 132.398C741.696 132.792 741.446 133.24 741.285 133.741C741.141 134.243 741.07 134.771 741.07 135.326C741.07 135.863 741.195 136.346 741.446 136.776C741.714 137.188 742.072 137.51 742.52 137.743C742.968 137.975 743.469 138.092 744.024 138.092C745.027 138.092 745.877 137.904 746.575 137.528C747.291 137.134 747.837 136.66 748.213 136.104C748.589 135.549 748.777 135.03 748.777 134.547L750.765 138.253C750.407 138.969 749.995 139.694 749.529 140.428C749.082 141.162 748.518 141.843 747.837 142.469C747.175 143.078 746.36 143.579 745.394 143.973C744.427 144.349 743.254 144.537 741.875 144.537C740.085 144.537 738.438 144.17 736.934 143.436C735.448 142.702 734.257 141.681 733.362 140.375C732.467 139.05 732.02 137.528 732.02 135.809C732.02 134.305 732.288 132.962 732.825 131.781C733.38 130.599 734.213 129.597 735.323 128.773C736.433 127.949 737.847 127.323 739.566 126.893C741.285 126.463 743.308 126.249 745.635 126.249H749.529ZM771.685 122.14V144H762.635V114.942H771.094L771.685 122.14ZM780.279 114.728L780.118 123.133C779.76 123.097 779.276 123.053 778.667 122.999C778.059 122.945 777.549 122.918 777.137 122.918C776.08 122.918 775.167 123.044 774.397 123.294C773.646 123.527 773.019 123.885 772.518 124.369C772.034 124.834 771.676 125.425 771.443 126.141C771.229 126.857 771.13 127.69 771.148 128.639L769.51 127.564C769.51 125.613 769.698 123.84 770.074 122.247C770.468 120.636 771.023 119.248 771.739 118.084C772.455 116.903 773.323 115.999 774.344 115.372C775.364 114.728 776.51 114.405 777.781 114.405C778.229 114.405 778.667 114.432 779.097 114.486C779.545 114.54 779.939 114.62 780.279 114.728Z" fill="black"/>
<path d="M110.816 65.2515V69.2505H97.8276V65.2515H110.816ZM99.3486 55.1172V80H94.2217V55.1172H99.3486ZM114.473 55.1172V80H109.363V55.1172H114.473ZM128.606 75.8301V67.5928C128.606 67.0003 128.51 66.4933 128.316 66.0718C128.122 65.6388 127.82 65.3027 127.41 65.0635C127.011 64.8242 126.493 64.7046 125.855 64.7046C125.308 64.7046 124.835 64.8014 124.437 64.9951C124.038 65.1774 123.73 65.4451 123.514 65.7983C123.297 66.1401 123.189 66.5446 123.189 67.0117H118.267C118.267 66.2256 118.449 65.4793 118.814 64.7729C119.179 64.0666 119.708 63.4456 120.403 62.9102C121.098 62.3633 121.924 61.936 122.881 61.6284C123.85 61.3208 124.932 61.167 126.128 61.167C127.564 61.167 128.84 61.4062 129.957 61.8848C131.073 62.3633 131.95 63.0811 132.588 64.0381C133.238 64.9951 133.562 66.1914 133.562 67.627V75.5396C133.562 76.5535 133.625 77.3853 133.75 78.0347C133.876 78.6727 134.058 79.231 134.297 79.7095V80H129.324C129.085 79.4987 128.903 78.8721 128.777 78.1201C128.663 77.3568 128.606 76.5934 128.606 75.8301ZM129.256 68.7378L129.29 71.5234H126.539C125.889 71.5234 125.325 71.5975 124.847 71.7456C124.368 71.8937 123.975 72.1045 123.667 72.3779C123.36 72.64 123.132 72.9476 122.984 73.3008C122.847 73.654 122.779 74.0413 122.779 74.4629C122.779 74.8844 122.876 75.2661 123.069 75.6079C123.263 75.9383 123.542 76.2004 123.907 76.394C124.271 76.5763 124.699 76.6675 125.188 76.6675C125.929 76.6675 126.573 76.5194 127.12 76.2231C127.667 75.9269 128.088 75.5623 128.384 75.1294C128.692 74.6965 128.851 74.2863 128.863 73.8989L130.162 75.9839C129.979 76.451 129.729 76.9352 129.41 77.4365C129.102 77.9378 128.709 78.4106 128.23 78.855C127.752 79.2879 127.177 79.6468 126.504 79.9316C125.832 80.2051 125.035 80.3418 124.112 80.3418C122.938 80.3418 121.873 80.1082 120.916 79.6411C119.97 79.1626 119.218 78.5075 118.66 77.6758C118.113 76.8327 117.84 75.8757 117.84 74.8047C117.84 73.8363 118.022 72.9761 118.387 72.2241C118.751 71.4722 119.287 70.8398 119.993 70.3271C120.711 69.8031 121.605 69.41 122.676 69.1479C123.747 68.8745 124.989 68.7378 126.402 68.7378H129.256ZM148.277 75.9668V53.75H153.233V80H148.772L148.277 75.9668ZM136.587 70.9766V70.6177C136.587 69.2049 136.747 67.9232 137.066 66.7725C137.385 65.6104 137.852 64.6134 138.467 63.7817C139.083 62.95 139.84 62.3063 140.74 61.8506C141.64 61.3949 142.666 61.167 143.816 61.167C144.899 61.167 145.844 61.3949 146.653 61.8506C147.474 62.3063 148.169 62.9557 148.738 63.7988C149.319 64.6305 149.786 65.616 150.14 66.7554C150.493 67.8833 150.749 69.1195 150.909 70.4639V71.25C150.749 72.5374 150.493 73.7337 150.14 74.8389C149.786 75.944 149.319 76.9124 148.738 77.7441C148.169 78.5645 147.474 79.2025 146.653 79.6582C145.833 80.1139 144.876 80.3418 143.782 80.3418C142.632 80.3418 141.606 80.1082 140.706 79.6411C139.817 79.174 139.065 78.5189 138.45 77.6758C137.846 76.8327 137.385 75.8415 137.066 74.7021C136.747 73.5628 136.587 72.321 136.587 70.9766ZM141.509 70.6177V70.9766C141.509 71.7399 141.566 72.452 141.68 73.1128C141.806 73.7736 142.005 74.3604 142.278 74.873C142.563 75.3743 142.928 75.7674 143.372 76.0522C143.828 76.3257 144.38 76.4624 145.03 76.4624C145.873 76.4624 146.568 76.2744 147.115 75.8984C147.662 75.5111 148.077 74.9813 148.362 74.3091C148.659 73.6369 148.829 72.8621 148.875 71.9849V69.7461C148.841 69.0283 148.738 68.3846 148.567 67.8149C148.408 67.2339 148.169 66.7383 147.85 66.3281C147.542 65.918 147.155 65.599 146.688 65.3711C146.232 65.1432 145.691 65.0293 145.064 65.0293C144.426 65.0293 143.879 65.1774 143.423 65.4736C142.968 65.7585 142.597 66.1515 142.312 66.6528C142.039 67.1541 141.834 67.7466 141.697 68.4302C141.572 69.1024 141.509 69.8315 141.509 70.6177ZM162.273 61.5088V80H157.334V61.5088H162.273ZM157.027 56.6895C157.027 55.9717 157.278 55.3792 157.779 54.9121C158.28 54.445 158.952 54.2114 159.795 54.2114C160.627 54.2114 161.294 54.445 161.795 54.9121C162.308 55.3792 162.564 55.9717 162.564 56.6895C162.564 57.4072 162.308 57.9997 161.795 58.4668C161.294 58.9339 160.627 59.1675 159.795 59.1675C158.952 59.1675 158.28 58.9339 157.779 58.4668C157.278 57.9997 157.027 57.4072 157.027 56.6895ZM185.481 59.3726L178.714 80H173.262L182.508 55.1172H185.977L185.481 59.3726ZM191.104 80L184.319 59.3726L183.772 55.1172H187.276L196.573 80H191.104ZM190.796 70.7373V74.7534H177.654V70.7373H190.796ZM203.768 53.75V80H198.829V53.75H203.768ZM213.27 55.1172V80H208.143V55.1172H213.27ZM228.172 55.1172L218.311 67.4048L212.62 73.5229L211.697 68.6694L215.542 63.4058L221.883 55.1172H228.172ZM222.344 80L215.013 68.4985L218.807 65.3198L228.411 80H222.344ZM240.066 75.8301V67.5928C240.066 67.0003 239.97 66.4933 239.776 66.0718C239.582 65.6388 239.28 65.3027 238.87 65.0635C238.471 64.8242 237.953 64.7046 237.315 64.7046C236.768 64.7046 236.295 64.8014 235.896 64.9951C235.498 65.1774 235.19 65.4451 234.974 65.7983C234.757 66.1401 234.649 66.5446 234.649 67.0117H229.727C229.727 66.2256 229.909 65.4793 230.274 64.7729C230.639 64.0666 231.168 63.4456 231.863 62.9102C232.558 62.3633 233.384 61.936 234.341 61.6284C235.31 61.3208 236.392 61.167 237.588 61.167C239.024 61.167 240.3 61.4062 241.417 61.8848C242.533 62.3633 243.41 63.0811 244.048 64.0381C244.698 64.9951 245.022 66.1914 245.022 67.627V75.5396C245.022 76.5535 245.085 77.3853 245.21 78.0347C245.336 78.6727 245.518 79.231 245.757 79.7095V80H240.784C240.545 79.4987 240.363 78.8721 240.237 78.1201C240.123 77.3568 240.066 76.5934 240.066 75.8301ZM240.716 68.7378L240.75 71.5234H237.999C237.349 71.5234 236.785 71.5975 236.307 71.7456C235.828 71.8937 235.435 72.1045 235.127 72.3779C234.82 72.64 234.592 72.9476 234.444 73.3008C234.307 73.654 234.239 74.0413 234.239 74.4629C234.239 74.8844 234.336 75.2661 234.529 75.6079C234.723 75.9383 235.002 76.2004 235.367 76.394C235.731 76.5763 236.159 76.6675 236.648 76.6675C237.389 76.6675 238.033 76.5194 238.58 76.2231C239.126 75.9269 239.548 75.5623 239.844 75.1294C240.152 74.6965 240.311 74.2863 240.323 73.8989L241.622 75.9839C241.439 76.451 241.189 76.9352 240.87 77.4365C240.562 77.9378 240.169 78.4106 239.69 78.855C239.212 79.2879 238.637 79.6468 237.964 79.9316C237.292 80.2051 236.495 80.3418 235.572 80.3418C234.398 80.3418 233.333 80.1082 232.376 79.6411C231.43 79.1626 230.678 78.5075 230.12 77.6758C229.573 76.8327 229.3 75.8757 229.3 74.8047C229.3 73.8363 229.482 72.9761 229.847 72.2241C230.211 71.4722 230.747 70.8398 231.453 70.3271C232.171 69.8031 233.065 69.41 234.136 69.1479C235.207 68.8745 236.449 68.7378 237.862 68.7378H240.716ZM253.738 65.3369V80H248.799V61.5088H253.431L253.738 65.3369ZM253.055 70.105H251.688C251.688 68.8175 251.841 67.6326 252.149 66.5503C252.468 65.4565 252.929 64.5109 253.533 63.7134C254.148 62.9045 254.906 62.2778 255.806 61.8335C256.706 61.3892 257.749 61.167 258.934 61.167C259.754 61.167 260.506 61.2923 261.189 61.543C261.873 61.7822 262.46 62.1639 262.95 62.688C263.451 63.2007 263.838 63.8729 264.112 64.7046C264.385 65.5249 264.522 66.5104 264.522 67.6611V80H259.6V68.208C259.6 67.3649 259.486 66.7155 259.258 66.2598C259.03 65.804 258.706 65.485 258.284 65.3027C257.874 65.1204 257.378 65.0293 256.797 65.0293C256.159 65.0293 255.601 65.1603 255.123 65.4224C254.655 65.6844 254.268 66.049 253.96 66.5161C253.653 66.9718 253.425 67.5073 253.277 68.1226C253.129 68.7378 253.055 69.3986 253.055 70.105ZM264.061 69.541L262.3 69.7632C262.3 68.5555 262.448 67.4333 262.745 66.3965C263.052 65.3597 263.502 64.4482 264.095 63.6621C264.699 62.876 265.445 62.2664 266.333 61.8335C267.222 61.3892 268.248 61.167 269.41 61.167C270.298 61.167 271.107 61.298 271.836 61.5601C272.566 61.8107 273.187 62.2152 273.699 62.7734C274.223 63.3203 274.622 64.0381 274.896 64.9268C275.18 65.8154 275.323 66.9035 275.323 68.1909V80H270.384V68.1909C270.384 67.3364 270.27 66.687 270.042 66.2427C269.826 65.7869 269.507 65.4736 269.085 65.3027C268.675 65.1204 268.185 65.0293 267.615 65.0293C267.023 65.0293 266.504 65.1489 266.06 65.3882C265.616 65.616 265.245 65.9351 264.949 66.3452C264.653 66.7554 264.431 67.2339 264.283 67.7808C264.135 68.3162 264.061 68.903 264.061 69.541ZM284.056 65.3369V80H279.117V61.5088H283.748L284.056 65.3369ZM283.372 70.105H282.005C282.005 68.8175 282.159 67.6326 282.466 66.5503C282.785 65.4565 283.247 64.5109 283.851 63.7134C284.466 62.9045 285.223 62.2778 286.124 61.8335C287.024 61.3892 288.066 61.167 289.251 61.167C290.071 61.167 290.823 61.2923 291.507 61.543C292.19 61.7822 292.777 62.1639 293.267 62.688C293.768 63.2007 294.156 63.8729 294.429 64.7046C294.703 65.5249 294.839 66.5104 294.839 67.6611V80H289.917V68.208C289.917 67.3649 289.804 66.7155 289.576 66.2598C289.348 65.804 289.023 65.485 288.602 65.3027C288.191 65.1204 287.696 65.0293 287.115 65.0293C286.477 65.0293 285.918 65.1603 285.44 65.4224C284.973 65.6844 284.585 66.049 284.278 66.5161C283.97 66.9718 283.742 67.5073 283.594 68.1226C283.446 68.7378 283.372 69.3986 283.372 70.105ZM294.378 69.541L292.618 69.7632C292.618 68.5555 292.766 67.4333 293.062 66.3965C293.37 65.3597 293.82 64.4482 294.412 63.6621C295.016 62.876 295.762 62.2664 296.651 61.8335C297.54 61.3892 298.565 61.167 299.727 61.167C300.616 61.167 301.425 61.298 302.154 61.5601C302.883 61.8107 303.504 62.2152 304.017 62.7734C304.541 63.3203 304.939 64.0381 305.213 64.9268C305.498 65.8154 305.64 66.9035 305.64 68.1909V80H300.701V68.1909C300.701 67.3364 300.587 66.687 300.359 66.2427C300.143 65.7869 299.824 65.4736 299.402 65.3027C298.992 65.1204 298.502 65.0293 297.933 65.0293C297.34 65.0293 296.822 65.1489 296.377 65.3882C295.933 65.616 295.563 65.9351 295.267 66.3452C294.97 66.7554 294.748 67.2339 294.6 67.7808C294.452 68.3162 294.378 68.903 294.378 69.541ZM308.665 70.9424V70.5835C308.665 69.2277 308.859 67.9801 309.246 66.8408C309.633 65.6901 310.197 64.6932 310.938 63.8501C311.679 63.007 312.59 62.3519 313.672 61.8848C314.755 61.4062 315.997 61.167 317.398 61.167C318.799 61.167 320.047 61.4062 321.141 61.8848C322.234 62.3519 323.152 63.007 323.892 63.8501C324.644 64.6932 325.214 65.6901 325.601 66.8408C325.988 67.9801 326.182 69.2277 326.182 70.5835V70.9424C326.182 72.2868 325.988 73.5343 325.601 74.6851C325.214 75.8244 324.644 76.8213 323.892 77.6758C323.152 78.5189 322.24 79.174 321.158 79.6411C320.075 80.1082 318.833 80.3418 317.432 80.3418C316.031 80.3418 314.783 80.1082 313.689 79.6411C312.607 79.174 311.69 78.5189 310.938 77.6758C310.197 76.8213 309.633 75.8244 309.246 74.6851C308.859 73.5343 308.665 72.2868 308.665 70.9424ZM313.587 70.5835V70.9424C313.587 71.7171 313.655 72.4406 313.792 73.1128C313.929 73.785 314.145 74.3774 314.441 74.8901C314.749 75.3914 315.148 75.7845 315.638 76.0693C316.128 76.3542 316.726 76.4966 317.432 76.4966C318.116 76.4966 318.702 76.3542 319.192 76.0693C319.682 75.7845 320.075 75.3914 320.372 74.8901C320.668 74.3774 320.884 73.785 321.021 73.1128C321.169 72.4406 321.243 71.7171 321.243 70.9424V70.5835C321.243 69.8315 321.169 69.1252 321.021 68.4644C320.884 67.7922 320.662 67.1997 320.354 66.687C320.058 66.1629 319.665 65.7528 319.175 65.4565C318.685 65.1603 318.093 65.0122 317.398 65.0122C316.703 65.0122 316.111 65.1603 315.621 65.4565C315.142 65.7528 314.749 66.1629 314.441 66.687C314.145 67.1997 313.929 67.7922 313.792 68.4644C313.655 69.1252 313.587 69.8315 313.587 70.5835ZM340.145 75.5737V61.5088H345.066V80H340.435L340.145 75.5737ZM340.691 71.7798L342.144 71.7456C342.144 72.9761 342.002 74.1211 341.717 75.1807C341.432 76.2288 341.005 77.1403 340.435 77.915C339.865 78.6784 339.148 79.2765 338.282 79.7095C337.416 80.131 336.396 80.3418 335.223 80.3418C334.323 80.3418 333.491 80.2165 332.728 79.9658C331.976 79.7038 331.326 79.2993 330.779 78.7524C330.244 78.1942 329.822 77.4821 329.515 76.6162C329.218 75.7389 329.07 74.6851 329.07 73.4546V61.5088H333.992V73.4888C333.992 74.0356 334.055 74.4971 334.18 74.873C334.317 75.249 334.505 75.5566 334.744 75.7959C334.983 76.0352 335.263 76.2061 335.582 76.3086C335.912 76.4111 336.277 76.4624 336.675 76.4624C337.689 76.4624 338.487 76.2573 339.068 75.8472C339.66 75.437 340.076 74.8787 340.315 74.1724C340.566 73.4546 340.691 72.6571 340.691 71.7798ZM353.646 65.4565V80H348.724V61.5088H353.338L353.646 65.4565ZM352.928 70.105H351.595C351.595 68.7378 351.771 67.5073 352.125 66.4136C352.478 65.3084 352.973 64.3685 353.611 63.5938C354.249 62.8076 355.007 62.2095 355.884 61.7993C356.773 61.3778 357.764 61.167 358.858 61.167C359.724 61.167 360.516 61.2923 361.233 61.543C361.951 61.7936 362.566 62.1924 363.079 62.7393C363.603 63.2861 364.002 64.0096 364.275 64.9097C364.56 65.8097 364.703 66.9092 364.703 68.208V80H359.747V68.1909C359.747 67.3706 359.633 66.7326 359.405 66.2769C359.177 65.8211 358.841 65.5021 358.396 65.3198C357.964 65.1261 357.428 65.0293 356.79 65.0293C356.129 65.0293 355.554 65.1603 355.064 65.4224C354.585 65.6844 354.187 66.049 353.868 66.5161C353.56 66.9718 353.326 67.5073 353.167 68.1226C353.007 68.7378 352.928 69.3986 352.928 70.105ZM373.641 61.5088V80H368.702V61.5088H373.641ZM368.394 56.6895C368.394 55.9717 368.645 55.3792 369.146 54.9121C369.647 54.445 370.319 54.2114 371.163 54.2114C371.994 54.2114 372.661 54.445 373.162 54.9121C373.675 55.3792 373.931 55.9717 373.931 56.6895C373.931 57.4072 373.675 57.9997 373.162 58.4668C372.661 58.9339 371.994 59.1675 371.163 59.1675C370.319 59.1675 369.647 58.9339 369.146 58.4668C368.645 57.9997 368.394 57.4072 368.394 56.6895Z" fill="#888888"/>
<rect x="92" y="181" width="1179" height="80" rx="13.3333" fill="#CCCCCC"/>
<rect x="107" y="196.333" width="208" height="49.3333" rx="4.66667" fill="#888888" stroke="#888888" stroke-width="4"/>
<path d="M180.729 216.354L177.031 228.333H173.104L178.677 213.167H181.167L180.729 216.354ZM183.792 228.333L180.083 216.354L179.604 213.167H182.125L187.729 228.333H183.792ZM183.646 222.677V225.5H175.865V222.677H183.646ZM191.625 219.469V228.333H188.115V217.062H191.406L191.625 219.469ZM191.208 222.312L190.385 222.333C190.385 221.472 190.49 220.705 190.698 220.031C190.906 219.351 191.201 218.774 191.583 218.302C191.965 217.83 192.42 217.472 192.948 217.229C193.483 216.979 194.076 216.854 194.729 216.854C195.25 216.854 195.726 216.931 196.156 217.083C196.594 217.236 196.969 217.483 197.281 217.823C197.601 218.163 197.844 218.615 198.01 219.177C198.184 219.733 198.271 220.42 198.271 221.24V228.333H194.74V221.229C194.74 220.778 194.677 220.434 194.552 220.198C194.427 219.955 194.247 219.788 194.01 219.698C193.774 219.608 193.486 219.562 193.146 219.562C192.785 219.562 192.479 219.632 192.229 219.771C191.979 219.91 191.778 220.104 191.625 220.354C191.479 220.597 191.372 220.885 191.302 221.219C191.24 221.552 191.208 221.917 191.208 222.312ZM207.302 217.062H210.49V227.896C210.49 228.937 210.25 229.819 209.771 230.542C209.292 231.271 208.622 231.823 207.76 232.198C206.906 232.58 205.906 232.771 204.76 232.771C204.253 232.771 203.736 232.705 203.208 232.573C202.681 232.448 202.187 232.26 201.729 232.01C201.271 231.76 200.885 231.451 200.573 231.083L202.042 229.021C202.326 229.34 202.684 229.611 203.115 229.833C203.545 230.062 204.052 230.177 204.635 230.177C205.142 230.177 205.566 230.087 205.906 229.906C206.253 229.726 206.517 229.462 206.698 229.115C206.878 228.774 206.969 228.361 206.969 227.875V219.729L207.302 217.062ZM199.812 222.833V222.615C199.812 221.76 199.917 220.983 200.125 220.281C200.34 219.573 200.646 218.965 201.042 218.458C201.444 217.944 201.931 217.549 202.5 217.271C203.069 216.993 203.712 216.854 204.427 216.854C205.198 216.854 205.83 217.003 206.323 217.302C206.823 217.594 207.222 218.003 207.521 218.531C207.826 219.059 208.062 219.677 208.229 220.385C208.403 221.087 208.549 221.844 208.667 222.656V222.917C208.549 223.681 208.385 224.403 208.177 225.083C207.976 225.757 207.712 226.354 207.385 226.875C207.059 227.396 206.649 227.806 206.156 228.104C205.67 228.396 205.087 228.542 204.406 228.542C203.698 228.542 203.059 228.399 202.49 228.115C201.927 227.83 201.444 227.431 201.042 226.917C200.646 226.403 200.34 225.799 200.125 225.104C199.917 224.41 199.812 223.653 199.812 222.833ZM203.323 222.615V222.833C203.323 223.257 203.361 223.649 203.437 224.01C203.521 224.372 203.646 224.691 203.812 224.969C203.979 225.24 204.184 225.451 204.427 225.604C204.677 225.757 204.969 225.833 205.302 225.833C205.809 225.833 206.219 225.726 206.531 225.51C206.844 225.295 207.069 224.99 207.208 224.594C207.347 224.198 207.406 223.733 207.385 223.198V222.375C207.399 221.917 207.368 221.514 207.292 221.167C207.215 220.812 207.094 220.517 206.927 220.281C206.767 220.045 206.552 219.868 206.281 219.75C206.017 219.625 205.698 219.562 205.323 219.562C204.997 219.562 204.708 219.639 204.458 219.792C204.208 219.944 204 220.16 203.833 220.437C203.667 220.708 203.538 221.031 203.448 221.406C203.365 221.774 203.323 222.177 203.323 222.615ZM219.094 225.594V217.062H222.615V228.333H219.323L219.094 225.594ZM219.427 223.302L220.344 223.281C220.344 224.038 220.253 224.74 220.073 225.385C219.892 226.024 219.625 226.58 219.271 227.052C218.924 227.524 218.493 227.892 217.979 228.156C217.472 228.413 216.885 228.542 216.219 228.542C215.663 228.542 215.153 228.465 214.687 228.312C214.229 228.153 213.833 227.906 213.5 227.573C213.167 227.233 212.906 226.799 212.719 226.271C212.538 225.736 212.448 225.097 212.448 224.354V217.062H215.958V224.375C215.958 224.625 215.99 224.84 216.052 225.021C216.115 225.201 216.205 225.354 216.323 225.479C216.441 225.597 216.587 225.687 216.76 225.75C216.941 225.806 217.146 225.833 217.375 225.833C217.903 225.833 218.316 225.722 218.615 225.5C218.913 225.278 219.122 224.976 219.24 224.594C219.365 224.212 219.427 223.781 219.427 223.302ZM228.26 212.333V228.333H224.74V212.333H228.26ZM236.281 225.5V220.854C236.281 220.535 236.236 220.26 236.146 220.031C236.056 219.802 235.913 219.625 235.719 219.5C235.524 219.368 235.264 219.302 234.938 219.302C234.674 219.302 234.448 219.347 234.26 219.437C234.073 219.528 233.931 219.663 233.833 219.844C233.736 220.024 233.688 220.253 233.688 220.531H230.177C230.177 220.01 230.292 219.528 230.521 219.083C230.757 218.632 231.09 218.24 231.521 217.906C231.958 217.573 232.479 217.316 233.083 217.135C233.694 216.948 234.375 216.854 235.125 216.854C236.021 216.854 236.819 217.003 237.521 217.302C238.229 217.601 238.788 218.049 239.198 218.646C239.608 219.236 239.813 219.979 239.813 220.875V225.49C239.813 226.226 239.854 226.785 239.938 227.167C240.021 227.542 240.139 227.872 240.292 228.156V228.333H236.771C236.604 227.986 236.479 227.562 236.396 227.062C236.319 226.556 236.281 226.035 236.281 225.5ZM236.708 221.448L236.729 223.323H235.177C234.851 223.323 234.573 223.368 234.344 223.458C234.122 223.549 233.941 223.674 233.802 223.833C233.67 223.986 233.573 224.16 233.51 224.354C233.455 224.549 233.427 224.753 233.427 224.969C233.427 225.177 233.476 225.365 233.573 225.531C233.677 225.691 233.816 225.816 233.99 225.906C234.163 225.997 234.358 226.042 234.573 226.042C234.962 226.042 235.292 225.969 235.563 225.823C235.84 225.67 236.052 225.486 236.198 225.271C236.344 225.056 236.417 224.854 236.417 224.667L237.188 226.104C237.049 226.382 236.889 226.663 236.708 226.948C236.535 227.233 236.316 227.497 236.052 227.74C235.795 227.976 235.479 228.17 235.104 228.323C234.729 228.469 234.274 228.542 233.74 228.542C233.045 228.542 232.406 228.399 231.823 228.115C231.247 227.83 230.785 227.434 230.438 226.927C230.09 226.413 229.917 225.823 229.917 225.156C229.917 224.573 230.021 224.052 230.229 223.594C230.444 223.135 230.767 222.747 231.198 222.427C231.628 222.108 232.177 221.865 232.844 221.698C233.51 221.531 234.295 221.448 235.198 221.448H236.708ZM245.302 219.854V228.333H241.792V217.062H245.073L245.302 219.854ZM248.635 216.979L248.573 220.24C248.434 220.226 248.247 220.208 248.01 220.187C247.774 220.167 247.576 220.156 247.417 220.156C247.007 220.156 246.653 220.205 246.354 220.302C246.062 220.392 245.819 220.531 245.625 220.719C245.437 220.899 245.299 221.128 245.208 221.406C245.125 221.684 245.087 222.007 245.094 222.375L244.458 221.958C244.458 221.201 244.531 220.514 244.677 219.896C244.83 219.271 245.045 218.733 245.323 218.281C245.601 217.823 245.937 217.472 246.333 217.229C246.729 216.979 247.174 216.854 247.667 216.854C247.84 216.854 248.01 216.865 248.177 216.885C248.351 216.906 248.503 216.937 248.635 216.979Z" fill="white"/>
</svg>
