<svg width="1363" height="167" viewBox="0 0 1363 167" fill="none" xmlns="http://www.w3.org/2000/svg">
<rect width="1363" height="167" rx="15" fill="#F0F0F0"/>
<path d="M0 15C0 6.71573 6.71573 0 15 0H37V167H15C6.71573 167 0 160.284 0 152V15Z" fill="#424241"/>
<path d="M100.906 54.9219L93.3945 52.2383V49.0859L103.602 53.375V55.6367L100.906 54.9219ZM93.3945 57.1719L100.918 54.4297L103.602 53.7852V56.0352L93.3945 60.3242V57.1719ZM120.781 57.5352C120.781 57.2305 120.734 56.957 120.641 56.7148C120.555 56.4648 120.391 56.2383 120.148 56.0352C119.906 55.8242 119.566 55.6172 119.129 55.4141C118.691 55.2109 118.125 55 117.43 54.7812C116.656 54.5312 115.922 54.25 115.227 53.9375C114.539 53.625 113.93 53.2617 113.398 52.8477C112.875 52.4258 112.461 51.9375 112.156 51.3828C111.859 50.8281 111.711 50.1836 111.711 49.4492C111.711 48.7383 111.867 48.0938 112.18 47.5156C112.492 46.9297 112.93 46.4297 113.492 46.0156C114.055 45.5938 114.719 45.2695 115.484 45.043C116.258 44.8164 117.105 44.7031 118.027 44.7031C119.285 44.7031 120.383 44.9297 121.32 45.3828C122.258 45.8359 122.984 46.457 123.5 47.2461C124.023 48.0352 124.285 48.9375 124.285 49.9531H120.793C120.793 49.4531 120.688 49.0156 120.477 48.6406C120.273 48.2578 119.961 47.957 119.539 47.7383C119.125 47.5195 118.602 47.4102 117.969 47.4102C117.359 47.4102 116.852 47.5039 116.445 47.6914C116.039 47.8711 115.734 48.1172 115.531 48.4297C115.328 48.7344 115.227 49.0781 115.227 49.4609C115.227 49.75 115.297 50.0117 115.438 50.2461C115.586 50.4805 115.805 50.6992 116.094 50.9023C116.383 51.1055 116.738 51.2969 117.16 51.4766C117.582 51.6562 118.07 51.832 118.625 52.0039C119.555 52.2852 120.371 52.6016 121.074 52.9531C121.785 53.3047 122.379 53.6992 122.855 54.1367C123.332 54.5742 123.691 55.0703 123.934 55.625C124.176 56.1797 124.297 56.8086 124.297 57.5117C124.297 58.2539 124.152 58.918 123.863 59.5039C123.574 60.0898 123.156 60.5859 122.609 60.9922C122.062 61.3984 121.41 61.707 120.652 61.918C119.895 62.1289 119.047 62.2344 118.109 62.2344C117.266 62.2344 116.434 62.125 115.613 61.9062C114.793 61.6797 114.047 61.3398 113.375 60.8867C112.711 60.4336 112.18 59.8555 111.781 59.1523C111.383 58.4492 111.184 57.6172 111.184 56.6562H114.711C114.711 57.1875 114.793 57.6367 114.957 58.0039C115.121 58.3711 115.352 58.668 115.648 58.8945C115.953 59.1211 116.312 59.2852 116.727 59.3867C117.148 59.4883 117.609 59.5391 118.109 59.5391C118.719 59.5391 119.219 59.4531 119.609 59.2812C120.008 59.1094 120.301 58.8711 120.488 58.5664C120.684 58.2617 120.781 57.918 120.781 57.5352ZM129.852 51.7578V66.875H126.477V49.3203H129.605L129.852 51.7578ZM137.879 55.5195V55.7656C137.879 56.6875 137.77 57.543 137.551 58.332C137.34 59.1211 137.027 59.8086 136.613 60.3945C136.199 60.9727 135.684 61.4258 135.066 61.7539C134.457 62.0742 133.754 62.2344 132.957 62.2344C132.184 62.2344 131.512 62.0781 130.941 61.7656C130.371 61.4531 129.891 61.0156 129.5 60.4531C129.117 59.8828 128.809 59.2227 128.574 58.4727C128.34 57.7227 128.16 56.918 128.035 56.0586V55.4141C128.16 54.4922 128.34 53.6484 128.574 52.8828C128.809 52.1094 129.117 51.4414 129.5 50.8789C129.891 50.3086 130.367 49.8672 130.93 49.5547C131.5 49.2422 132.168 49.0859 132.934 49.0859C133.738 49.0859 134.445 49.2383 135.055 49.543C135.672 49.8477 136.188 50.2852 136.602 50.8555C137.023 51.4258 137.34 52.1055 137.551 52.8945C137.77 53.6836 137.879 54.5586 137.879 55.5195ZM134.492 55.7656V55.5195C134.492 54.9805 134.445 54.4844 134.352 54.0312C134.266 53.5703 134.125 53.168 133.93 52.8242C133.742 52.4805 133.492 52.2148 133.18 52.0273C132.875 51.832 132.504 51.7344 132.066 51.7344C131.605 51.7344 131.211 51.8086 130.883 51.957C130.562 52.1055 130.301 52.3203 130.098 52.6016C129.895 52.8828 129.742 53.2188 129.641 53.6094C129.539 54 129.477 54.4414 129.453 54.9336V56.5625C129.492 57.1406 129.602 57.6602 129.781 58.1211C129.961 58.5742 130.238 58.9336 130.613 59.1992C130.988 59.4648 131.48 59.5977 132.09 59.5977C132.535 59.5977 132.91 59.5 133.215 59.3047C133.52 59.1016 133.766 58.8242 133.953 58.4727C134.148 58.1211 134.285 57.7148 134.363 57.2539C134.449 56.793 134.492 56.2969 134.492 55.7656ZM139.438 55.7891V55.543C139.438 54.6133 139.57 53.7578 139.836 52.9766C140.102 52.1875 140.488 51.5039 140.996 50.9258C141.504 50.3477 142.129 49.8984 142.871 49.5781C143.613 49.25 144.465 49.0859 145.426 49.0859C146.387 49.0859 147.242 49.25 147.992 49.5781C148.742 49.8984 149.371 50.3477 149.879 50.9258C150.395 51.5039 150.785 52.1875 151.051 52.9766C151.316 53.7578 151.449 54.6133 151.449 55.543V55.7891C151.449 56.7109 151.316 57.5664 151.051 58.3555C150.785 59.1367 150.395 59.8203 149.879 60.4062C149.371 60.9844 148.746 61.4336 148.004 61.7539C147.262 62.0742 146.41 62.2344 145.449 62.2344C144.488 62.2344 143.633 62.0742 142.883 61.7539C142.141 61.4336 141.512 60.9844 140.996 60.4062C140.488 59.8203 140.102 59.1367 139.836 58.3555C139.57 57.5664 139.438 56.7109 139.438 55.7891ZM142.812 55.543V55.7891C142.812 56.3203 142.859 56.8164 142.953 57.2773C143.047 57.7383 143.195 58.1445 143.398 58.4961C143.609 58.8398 143.883 59.1094 144.219 59.3047C144.555 59.5 144.965 59.5977 145.449 59.5977C145.918 59.5977 146.32 59.5 146.656 59.3047C146.992 59.1094 147.262 58.8398 147.465 58.4961C147.668 58.1445 147.816 57.7383 147.91 57.2773C148.012 56.8164 148.062 56.3203 148.062 55.7891V55.543C148.062 55.0273 148.012 54.543 147.91 54.0898C147.816 53.6289 147.664 53.2227 147.453 52.8711C147.25 52.5117 146.98 52.2305 146.645 52.0273C146.309 51.8242 145.902 51.7227 145.426 51.7227C144.949 51.7227 144.543 51.8242 144.207 52.0273C143.879 52.2305 143.609 52.5117 143.398 52.8711C143.195 53.2227 143.047 53.6289 142.953 54.0898C142.859 54.543 142.812 55.0273 142.812 55.543ZM159.734 49.3203V51.7109H152.352V49.3203H159.734ZM154.18 46.1914H157.555V58.1797C157.555 58.5469 157.602 58.8281 157.695 59.0234C157.797 59.2188 157.945 59.3555 158.141 59.4336C158.336 59.5039 158.582 59.5391 158.879 59.5391C159.09 59.5391 159.277 59.5312 159.441 59.5156C159.613 59.4922 159.758 59.4688 159.875 59.4453L159.887 61.9297C159.598 62.0234 159.285 62.0977 158.949 62.1523C158.613 62.207 158.242 62.2344 157.836 62.2344C157.094 62.2344 156.445 62.1133 155.891 61.8711C155.344 61.6211 154.922 61.2227 154.625 60.6758C154.328 60.1289 154.18 59.4102 154.18 58.5195V46.1914ZM165.219 49.3203V62H161.832V49.3203H165.219ZM161.621 46.0156C161.621 45.5234 161.793 45.1172 162.137 44.7969C162.48 44.4766 162.941 44.3164 163.52 44.3164C164.09 44.3164 164.547 44.4766 164.891 44.7969C165.242 45.1172 165.418 45.5234 165.418 46.0156C165.418 46.5078 165.242 46.9141 164.891 47.2344C164.547 47.5547 164.09 47.7148 163.52 47.7148C162.941 47.7148 162.48 47.5547 162.137 47.2344C161.793 46.9141 161.621 46.5078 161.621 46.0156ZM172.309 62H168.91V48.1953C168.91 47.2344 169.098 46.4258 169.473 45.7695C169.855 45.1055 170.391 44.6055 171.078 44.2695C171.773 43.9258 172.598 43.7539 173.551 43.7539C173.863 43.7539 174.164 43.7773 174.453 43.8242C174.742 43.8633 175.023 43.9141 175.297 43.9766L175.262 46.5195C175.113 46.4805 174.957 46.4531 174.793 46.4375C174.629 46.4219 174.438 46.4141 174.219 46.4141C173.812 46.4141 173.465 46.4844 173.176 46.625C172.895 46.7578 172.68 46.957 172.531 47.2227C172.383 47.4883 172.309 47.8125 172.309 48.1953V62ZM174.84 49.3203V51.7109H167.023V49.3203H174.84ZM180.371 60.5703L183.734 49.3203H187.355L182.258 63.9102C182.148 64.2305 182 64.5742 181.812 64.9414C181.633 65.3086 181.387 65.6562 181.074 65.9844C180.77 66.3203 180.383 66.5938 179.914 66.8047C179.453 67.0156 178.887 67.1211 178.215 67.1211C177.895 67.1211 177.633 67.1016 177.43 67.0625C177.227 67.0234 176.984 66.9688 176.703 66.8984V64.4258C176.789 64.4258 176.879 64.4258 176.973 64.4258C177.066 64.4336 177.156 64.4375 177.242 64.4375C177.688 64.4375 178.051 64.3867 178.332 64.2852C178.613 64.1836 178.84 64.0273 179.012 63.8164C179.184 63.6133 179.32 63.3477 179.422 63.0195L180.371 60.5703ZM178.965 49.3203L181.719 58.5078L182.199 62.082L179.902 62.3281L175.344 49.3203H178.965ZM204.781 56.3398H208.285C208.215 57.4883 207.898 58.5078 207.336 59.3984C206.781 60.2891 206.004 60.9844 205.004 61.4844C204.012 61.9844 202.816 62.2344 201.418 62.2344C200.324 62.2344 199.344 62.0469 198.477 61.6719C197.609 61.2891 196.867 60.7422 196.25 60.0312C195.641 59.3203 195.176 58.4609 194.855 57.4531C194.535 56.4453 194.375 55.3164 194.375 54.0664V52.8828C194.375 51.6328 194.539 50.5039 194.867 49.4961C195.203 48.4805 195.68 47.6172 196.297 46.9062C196.922 46.1953 197.668 45.6484 198.535 45.2656C199.402 44.8828 200.371 44.6914 201.441 44.6914C202.863 44.6914 204.062 44.9492 205.039 45.4648C206.023 45.9805 206.785 46.6914 207.324 47.5977C207.871 48.5039 208.199 49.5352 208.309 50.6914H204.793C204.754 50.0039 204.617 49.4219 204.383 48.9453C204.148 48.4609 203.793 48.0977 203.316 47.8555C202.848 47.6055 202.223 47.4805 201.441 47.4805C200.855 47.4805 200.344 47.5898 199.906 47.8086C199.469 48.0273 199.102 48.3594 198.805 48.8047C198.508 49.25 198.285 49.8125 198.137 50.4922C197.996 51.1641 197.926 51.9531 197.926 52.8594V54.0664C197.926 54.9492 197.992 55.7266 198.125 56.3984C198.258 57.0625 198.461 57.625 198.734 58.0859C199.016 58.5391 199.375 58.8828 199.812 59.1172C200.258 59.3438 200.793 59.457 201.418 59.457C202.152 59.457 202.758 59.3398 203.234 59.1055C203.711 58.8711 204.074 58.5234 204.324 58.0625C204.582 57.6016 204.734 57.0273 204.781 56.3398ZM213.676 44V62H210.301V44H213.676ZM213.195 55.2148H212.27C212.277 54.332 212.395 53.5195 212.621 52.7773C212.848 52.0273 213.172 51.3789 213.594 50.832C214.016 50.2773 214.52 49.8477 215.105 49.543C215.699 49.2383 216.355 49.0859 217.074 49.0859C217.699 49.0859 218.266 49.1758 218.773 49.3555C219.289 49.5273 219.73 49.8086 220.098 50.1992C220.473 50.582 220.762 51.0859 220.965 51.7109C221.168 52.3359 221.27 53.0938 221.27 53.9844V62H217.871V53.9609C217.871 53.3984 217.789 52.957 217.625 52.6367C217.469 52.3086 217.238 52.0781 216.934 51.9453C216.637 51.8047 216.27 51.7344 215.832 51.7344C215.348 51.7344 214.934 51.8242 214.59 52.0039C214.254 52.1836 213.984 52.4336 213.781 52.7539C213.578 53.0664 213.43 53.4336 213.336 53.8555C213.242 54.2773 213.195 54.7305 213.195 55.2148ZM230.68 59.1406V53.4922C230.68 53.0859 230.613 52.7383 230.48 52.4492C230.348 52.1523 230.141 51.9219 229.859 51.7578C229.586 51.5938 229.23 51.5117 228.793 51.5117C228.418 51.5117 228.094 51.5781 227.82 51.7109C227.547 51.8359 227.336 52.0195 227.188 52.2617C227.039 52.4961 226.965 52.7734 226.965 53.0938H223.59C223.59 52.5547 223.715 52.043 223.965 51.5586C224.215 51.0742 224.578 50.6484 225.055 50.2812C225.531 49.9062 226.098 49.6133 226.754 49.4023C227.418 49.1914 228.16 49.0859 228.98 49.0859C229.965 49.0859 230.84 49.25 231.605 49.5781C232.371 49.9062 232.973 50.3984 233.41 51.0547C233.855 51.7109 234.078 52.5312 234.078 53.5156V58.9414C234.078 59.6367 234.121 60.207 234.207 60.6523C234.293 61.0898 234.418 61.4727 234.582 61.8008V62H231.172C231.008 61.6562 230.883 61.2266 230.797 60.7109C230.719 60.1875 230.68 59.6641 230.68 59.1406ZM231.125 54.2773L231.148 56.1875H229.262C228.816 56.1875 228.43 56.2383 228.102 56.3398C227.773 56.4414 227.504 56.5859 227.293 56.7734C227.082 56.9531 226.926 57.1641 226.824 57.4062C226.73 57.6484 226.684 57.9141 226.684 58.2031C226.684 58.4922 226.75 58.7539 226.883 58.9883C227.016 59.2148 227.207 59.3945 227.457 59.5273C227.707 59.6523 228 59.7148 228.336 59.7148C228.844 59.7148 229.285 59.6133 229.66 59.4102C230.035 59.207 230.324 58.957 230.527 58.6602C230.738 58.3633 230.848 58.082 230.855 57.8164L231.746 59.2461C231.621 59.5664 231.449 59.8984 231.23 60.2422C231.02 60.5859 230.75 60.9102 230.422 61.2148C230.094 61.5117 229.699 61.7578 229.238 61.9531C228.777 62.1406 228.23 62.2344 227.598 62.2344C226.793 62.2344 226.062 62.0742 225.406 61.7539C224.758 61.4258 224.242 60.9766 223.859 60.4062C223.484 59.8281 223.297 59.1719 223.297 58.4375C223.297 57.7734 223.422 57.1836 223.672 56.668C223.922 56.1523 224.289 55.7188 224.773 55.3672C225.266 55.0078 225.879 54.7383 226.613 54.5586C227.348 54.3711 228.199 54.2773 229.168 54.2773H231.125ZM240.242 44V62H236.855V44H240.242ZM246.594 44V62H243.207V44H246.594ZM255.219 62.2344C254.234 62.2344 253.352 62.0781 252.57 61.7656C251.789 61.4453 251.125 61.0039 250.578 60.4414C250.039 59.8789 249.625 59.2266 249.336 58.4844C249.047 57.7344 248.902 56.9375 248.902 56.0938V55.625C248.902 54.6641 249.039 53.7852 249.312 52.9883C249.586 52.1914 249.977 51.5 250.484 50.9141C251 50.3281 251.625 49.8789 252.359 49.5664C253.094 49.2461 253.922 49.0859 254.844 49.0859C255.742 49.0859 256.539 49.2344 257.234 49.5312C257.93 49.8281 258.512 50.25 258.98 50.7969C259.457 51.3438 259.816 52 260.059 52.7656C260.301 53.5234 260.422 54.3672 260.422 55.2969V56.7031H250.344V54.4531H257.105V54.1953C257.105 53.7266 257.02 53.3086 256.848 52.9414C256.684 52.5664 256.434 52.2695 256.098 52.0508C255.762 51.832 255.332 51.7227 254.809 51.7227C254.363 51.7227 253.98 51.8203 253.66 52.0156C253.34 52.2109 253.078 52.4844 252.875 52.8359C252.68 53.1875 252.531 53.6016 252.43 54.0781C252.336 54.5469 252.289 55.0625 252.289 55.625V56.0938C252.289 56.6016 252.359 57.0703 252.5 57.5C252.648 57.9297 252.855 58.3008 253.121 58.6133C253.395 58.9258 253.723 59.168 254.105 59.3398C254.496 59.5117 254.938 59.5977 255.43 59.5977C256.039 59.5977 256.605 59.4805 257.129 59.2461C257.66 59.0039 258.117 58.6406 258.5 58.1562L260.141 59.9375C259.875 60.3203 259.512 60.6875 259.051 61.0391C258.598 61.3906 258.051 61.6797 257.41 61.9062C256.77 62.125 256.039 62.2344 255.219 62.2344ZM265.648 52.0273V62H262.273V49.3203H265.438L265.648 52.0273ZM265.156 55.2148H264.242C264.242 54.2773 264.363 53.4336 264.605 52.6836C264.848 51.9258 265.188 51.2812 265.625 50.75C266.062 50.2109 266.582 49.8008 267.184 49.5195C267.793 49.2305 268.473 49.0859 269.223 49.0859C269.816 49.0859 270.359 49.1719 270.852 49.3438C271.344 49.5156 271.766 49.7891 272.117 50.1641C272.477 50.5391 272.75 51.0352 272.938 51.6523C273.133 52.2695 273.23 53.0234 273.23 53.9141V62H269.832V53.9023C269.832 53.3398 269.754 52.9023 269.598 52.5898C269.441 52.2773 269.211 52.0586 268.906 51.9336C268.609 51.8008 268.242 51.7344 267.805 51.7344C267.352 51.7344 266.957 51.8242 266.621 52.0039C266.293 52.1836 266.02 52.4336 265.801 52.7539C265.59 53.0664 265.43 53.4336 265.32 53.8555C265.211 54.2773 265.156 54.7305 265.156 55.2148ZM283.824 49.3203H286.883V61.5781C286.883 62.7344 286.625 63.7148 286.109 64.5195C285.602 65.332 284.891 65.9453 283.977 66.3594C283.062 66.7812 282 66.9922 280.789 66.9922C280.258 66.9922 279.695 66.9219 279.102 66.7812C278.516 66.6406 277.953 66.4219 277.414 66.125C276.883 65.8281 276.438 65.4531 276.078 65L277.566 63.0078C277.957 63.4609 278.41 63.8125 278.926 64.0625C279.441 64.3203 280.012 64.4492 280.637 64.4492C281.246 64.4492 281.762 64.3359 282.184 64.1094C282.605 63.8906 282.93 63.5664 283.156 63.1367C283.383 62.7148 283.496 62.2031 283.496 61.6016V52.25L283.824 49.3203ZM275.293 55.8125V55.5664C275.293 54.5977 275.41 53.7188 275.645 52.9297C275.887 52.1328 276.227 51.4492 276.664 50.8789C277.109 50.3086 277.648 49.8672 278.281 49.5547C278.914 49.2422 279.629 49.0859 280.426 49.0859C281.27 49.0859 281.977 49.2422 282.547 49.5547C283.117 49.8672 283.586 50.3125 283.953 50.8906C284.32 51.4609 284.605 52.1367 284.809 52.918C285.02 53.6914 285.184 54.5391 285.301 55.4609V56C285.184 56.8828 285.008 57.7031 284.773 58.4609C284.539 59.2188 284.23 59.8828 283.848 60.4531C283.465 61.0156 282.988 61.4531 282.418 61.7656C281.855 62.0781 281.184 62.2344 280.402 62.2344C279.621 62.2344 278.914 62.0742 278.281 61.7539C277.656 61.4336 277.121 60.9844 276.676 60.4062C276.23 59.8281 275.887 59.1484 275.645 58.3672C275.41 57.5859 275.293 56.7344 275.293 55.8125ZM278.668 55.5664V55.8125C278.668 56.3359 278.719 56.8242 278.82 57.2773C278.922 57.7305 279.078 58.1328 279.289 58.4844C279.508 58.8281 279.777 59.0977 280.098 59.293C280.426 59.4805 280.812 59.5742 281.258 59.5742C281.875 59.5742 282.379 59.4453 282.77 59.1875C283.16 58.9219 283.453 58.5586 283.648 58.0977C283.844 57.6367 283.957 57.1055 283.988 56.5039V54.9688C283.973 54.4766 283.906 54.0352 283.789 53.6445C283.672 53.2461 283.508 52.9062 283.297 52.625C283.086 52.3438 282.812 52.125 282.477 51.9688C282.141 51.8125 281.742 51.7344 281.281 51.7344C280.836 51.7344 280.449 51.8359 280.121 52.0391C279.801 52.2344 279.531 52.5039 279.312 52.8477C279.102 53.1914 278.941 53.5977 278.832 54.0664C278.723 54.5273 278.668 55.0273 278.668 55.5664ZM295.344 62.2344C294.359 62.2344 293.477 62.0781 292.695 61.7656C291.914 61.4453 291.25 61.0039 290.703 60.4414C290.164 59.8789 289.75 59.2266 289.461 58.4844C289.172 57.7344 289.027 56.9375 289.027 56.0938V55.625C289.027 54.6641 289.164 53.7852 289.438 52.9883C289.711 52.1914 290.102 51.5 290.609 50.9141C291.125 50.3281 291.75 49.8789 292.484 49.5664C293.219 49.2461 294.047 49.0859 294.969 49.0859C295.867 49.0859 296.664 49.2344 297.359 49.5312C298.055 49.8281 298.637 50.25 299.105 50.7969C299.582 51.3438 299.941 52 300.184 52.7656C300.426 53.5234 300.547 54.3672 300.547 55.2969V56.7031H290.469V54.4531H297.23V54.1953C297.23 53.7266 297.145 53.3086 296.973 52.9414C296.809 52.5664 296.559 52.2695 296.223 52.0508C295.887 51.832 295.457 51.7227 294.934 51.7227C294.488 51.7227 294.105 51.8203 293.785 52.0156C293.465 52.2109 293.203 52.4844 293 52.8359C292.805 53.1875 292.656 53.6016 292.555 54.0781C292.461 54.5469 292.414 55.0625 292.414 55.625V56.0938C292.414 56.6016 292.484 57.0703 292.625 57.5C292.773 57.9297 292.98 58.3008 293.246 58.6133C293.52 58.9258 293.848 59.168 294.23 59.3398C294.621 59.5117 295.062 59.5977 295.555 59.5977C296.164 59.5977 296.73 59.4805 297.254 59.2461C297.785 59.0039 298.242 58.6406 298.625 58.1562L300.266 59.9375C300 60.3203 299.637 60.6875 299.176 61.0391C298.723 61.3906 298.176 61.6797 297.535 61.9062C296.895 62.125 296.164 62.2344 295.344 62.2344ZM317.785 62V64.5664H307.145V62H317.785ZM332.258 47.8555L327.617 62H323.879L330.219 44.9375H332.598L332.258 47.8555ZM336.113 62L331.461 47.8555L331.086 44.9375H333.488L339.863 62H336.113ZM335.902 55.6484V58.4023H326.891V55.6484H335.902ZM344.164 52.0273V62H340.789V49.3203H343.953L344.164 52.0273ZM343.672 55.2148H342.758C342.758 54.2773 342.879 53.4336 343.121 52.6836C343.363 51.9258 343.703 51.2812 344.141 50.75C344.578 50.2109 345.098 49.8008 345.699 49.5195C346.309 49.2305 346.988 49.0859 347.738 49.0859C348.332 49.0859 348.875 49.1719 349.367 49.3438C349.859 49.5156 350.281 49.7891 350.633 50.1641C350.992 50.5391 351.266 51.0352 351.453 51.6523C351.648 52.2695 351.746 53.0234 351.746 53.9141V62H348.348V53.9023C348.348 53.3398 348.27 52.9023 348.113 52.5898C347.957 52.2773 347.727 52.0586 347.422 51.9336C347.125 51.8008 346.758 51.7344 346.32 51.7344C345.867 51.7344 345.473 51.8242 345.137 52.0039C344.809 52.1836 344.535 52.4336 344.316 52.7539C344.105 53.0664 343.945 53.4336 343.836 53.8555C343.727 54.2773 343.672 54.7305 343.672 55.2148ZM362.34 49.3203H365.398V61.5781C365.398 62.7344 365.141 63.7148 364.625 64.5195C364.117 65.332 363.406 65.9453 362.492 66.3594C361.578 66.7812 360.516 66.9922 359.305 66.9922C358.773 66.9922 358.211 66.9219 357.617 66.7812C357.031 66.6406 356.469 66.4219 355.93 66.125C355.398 65.8281 354.953 65.4531 354.594 65L356.082 63.0078C356.473 63.4609 356.926 63.8125 357.441 64.0625C357.957 64.3203 358.527 64.4492 359.152 64.4492C359.762 64.4492 360.277 64.3359 360.699 64.1094C361.121 63.8906 361.445 63.5664 361.672 63.1367C361.898 62.7148 362.012 62.2031 362.012 61.6016V52.25L362.34 49.3203ZM353.809 55.8125V55.5664C353.809 54.5977 353.926 53.7188 354.16 52.9297C354.402 52.1328 354.742 51.4492 355.18 50.8789C355.625 50.3086 356.164 49.8672 356.797 49.5547C357.43 49.2422 358.145 49.0859 358.941 49.0859C359.785 49.0859 360.492 49.2422 361.062 49.5547C361.633 49.8672 362.102 50.3125 362.469 50.8906C362.836 51.4609 363.121 52.1367 363.324 52.918C363.535 53.6914 363.699 54.5391 363.816 55.4609V56C363.699 56.8828 363.523 57.7031 363.289 58.4609C363.055 59.2188 362.746 59.8828 362.363 60.4531C361.98 61.0156 361.504 61.4531 360.934 61.7656C360.371 62.0781 359.699 62.2344 358.918 62.2344C358.137 62.2344 357.43 62.0742 356.797 61.7539C356.172 61.4336 355.637 60.9844 355.191 60.4062C354.746 59.8281 354.402 59.1484 354.16 58.3672C353.926 57.5859 353.809 56.7344 353.809 55.8125ZM357.184 55.5664V55.8125C357.184 56.3359 357.234 56.8242 357.336 57.2773C357.438 57.7305 357.594 58.1328 357.805 58.4844C358.023 58.8281 358.293 59.0977 358.613 59.293C358.941 59.4805 359.328 59.5742 359.773 59.5742C360.391 59.5742 360.895 59.4453 361.285 59.1875C361.676 58.9219 361.969 58.5586 362.164 58.0977C362.359 57.6367 362.473 57.1055 362.504 56.5039V54.9688C362.488 54.4766 362.422 54.0352 362.305 53.6445C362.188 53.2461 362.023 52.9062 361.812 52.625C361.602 52.3438 361.328 52.125 360.992 51.9688C360.656 51.8125 360.258 51.7344 359.797 51.7344C359.352 51.7344 358.965 51.8359 358.637 52.0391C358.316 52.2344 358.047 52.5039 357.828 52.8477C357.617 53.1914 357.457 53.5977 357.348 54.0664C357.238 54.5273 357.184 55.0273 357.184 55.5664ZM375.523 58.9648V49.3203H378.898V62H375.723L375.523 58.9648ZM375.898 56.3633L376.895 56.3398C376.895 57.1836 376.797 57.9688 376.602 58.6953C376.406 59.4141 376.113 60.0391 375.723 60.5703C375.332 61.0938 374.84 61.5039 374.246 61.8008C373.652 62.0898 372.953 62.2344 372.148 62.2344C371.531 62.2344 370.961 62.1484 370.438 61.9766C369.922 61.7969 369.477 61.5195 369.102 61.1445C368.734 60.7617 368.445 60.2734 368.234 59.6797C368.031 59.0781 367.93 58.3555 367.93 57.5117V49.3203H371.305V57.5352C371.305 57.9102 371.348 58.2266 371.434 58.4844C371.527 58.7422 371.656 58.9531 371.82 59.1172C371.984 59.2812 372.176 59.3984 372.395 59.4688C372.621 59.5391 372.871 59.5742 373.145 59.5742C373.84 59.5742 374.387 59.4336 374.785 59.1523C375.191 58.8711 375.477 58.4883 375.641 58.0039C375.812 57.5117 375.898 56.9648 375.898 56.3633ZM385.039 44V62H381.652V44H385.039ZM394.672 59.1406V53.4922C394.672 53.0859 394.605 52.7383 394.473 52.4492C394.34 52.1523 394.133 51.9219 393.852 51.7578C393.578 51.5938 393.223 51.5117 392.785 51.5117C392.41 51.5117 392.086 51.5781 391.812 51.7109C391.539 51.8359 391.328 52.0195 391.18 52.2617C391.031 52.4961 390.957 52.7734 390.957 53.0938H387.582C387.582 52.5547 387.707 52.043 387.957 51.5586C388.207 51.0742 388.57 50.6484 389.047 50.2812C389.523 49.9062 390.09 49.6133 390.746 49.4023C391.41 49.1914 392.152 49.0859 392.973 49.0859C393.957 49.0859 394.832 49.25 395.598 49.5781C396.363 49.9062 396.965 50.3984 397.402 51.0547C397.848 51.7109 398.07 52.5312 398.07 53.5156V58.9414C398.07 59.6367 398.113 60.207 398.199 60.6523C398.285 61.0898 398.41 61.4727 398.574 61.8008V62H395.164C395 61.6562 394.875 61.2266 394.789 60.7109C394.711 60.1875 394.672 59.6641 394.672 59.1406ZM395.117 54.2773L395.141 56.1875H393.254C392.809 56.1875 392.422 56.2383 392.094 56.3398C391.766 56.4414 391.496 56.5859 391.285 56.7734C391.074 56.9531 390.918 57.1641 390.816 57.4062C390.723 57.6484 390.676 57.9141 390.676 58.2031C390.676 58.4922 390.742 58.7539 390.875 58.9883C391.008 59.2148 391.199 59.3945 391.449 59.5273C391.699 59.6523 391.992 59.7148 392.328 59.7148C392.836 59.7148 393.277 59.6133 393.652 59.4102C394.027 59.207 394.316 58.957 394.52 58.6602C394.73 58.3633 394.84 58.082 394.848 57.8164L395.738 59.2461C395.613 59.5664 395.441 59.8984 395.223 60.2422C395.012 60.5859 394.742 60.9102 394.414 61.2148C394.086 61.5117 393.691 61.7578 393.23 61.9531C392.77 62.1406 392.223 62.2344 391.59 62.2344C390.785 62.2344 390.055 62.0742 389.398 61.7539C388.75 61.4258 388.234 60.9766 387.852 60.4062C387.477 59.8281 387.289 59.1719 387.289 58.4375C387.289 57.7734 387.414 57.1836 387.664 56.668C387.914 56.1523 388.281 55.7188 388.766 55.3672C389.258 55.0078 389.871 54.7383 390.605 54.5586C391.34 54.3711 392.191 54.2773 393.16 54.2773H395.117ZM404.047 52.0859V62H400.672V49.3203H403.848L404.047 52.0859ZM407.867 49.2383L407.809 52.3672C407.645 52.3438 407.445 52.3242 407.211 52.3086C406.984 52.2852 406.777 52.2734 406.59 52.2734C406.113 52.2734 405.699 52.3359 405.348 52.4609C405.004 52.5781 404.715 52.7539 404.48 52.9883C404.254 53.2227 404.082 53.5078 403.965 53.8438C403.855 54.1797 403.793 54.5625 403.777 54.9922L403.098 54.7812C403.098 53.9609 403.18 53.207 403.344 52.5195C403.508 51.8242 403.746 51.2188 404.059 50.7031C404.379 50.1875 404.77 49.7891 405.23 49.5078C405.691 49.2266 406.219 49.0859 406.812 49.0859C407 49.0859 407.191 49.1016 407.387 49.1328C407.582 49.1562 407.742 49.1914 407.867 49.2383Z" fill="#888888"/>
<path d="M115.994 98.708V104.641H99.5806V98.708H115.994ZM102.151 86.0078V118H94.439V86.0078H102.151ZM121.18 86.0078V118H113.489V86.0078H121.18ZM124.805 106.354V105.893C124.805 104.15 125.054 102.546 125.552 101.081C126.05 99.6016 126.783 98.3198 127.75 97.2358C128.716 96.1519 129.91 95.3096 131.331 94.709C132.752 94.0938 134.393 93.7861 136.253 93.7861C138.128 93.7861 139.776 94.0938 141.197 94.709C142.632 95.3096 143.833 96.1519 144.8 97.2358C145.767 98.3198 146.5 99.6016 146.998 101.081C147.496 102.546 147.745 104.15 147.745 105.893V106.354C147.745 108.083 147.496 109.687 146.998 111.167C146.5 112.631 145.767 113.913 144.8 115.012C143.833 116.096 142.64 116.938 141.219 117.539C139.798 118.139 138.157 118.439 136.297 118.439C134.437 118.439 132.789 118.139 131.353 117.539C129.917 116.938 128.716 116.096 127.75 115.012C126.783 113.913 126.05 112.631 125.552 111.167C125.054 109.687 124.805 108.083 124.805 106.354ZM132.21 105.893V106.354C132.21 107.248 132.276 108.083 132.408 108.859C132.54 109.636 132.759 110.317 133.067 110.903C133.375 111.474 133.792 111.921 134.319 112.243C134.847 112.565 135.506 112.727 136.297 112.727C137.073 112.727 137.718 112.565 138.23 112.243C138.758 111.921 139.175 111.474 139.483 110.903C139.791 110.317 140.01 109.636 140.142 108.859C140.274 108.083 140.34 107.248 140.34 106.354V105.893C140.34 105.029 140.274 104.216 140.142 103.454C140.01 102.678 139.791 101.997 139.483 101.411C139.175 100.81 138.758 100.341 138.23 100.004C137.703 99.6675 137.044 99.499 136.253 99.499C135.477 99.499 134.825 99.6675 134.297 100.004C133.785 100.341 133.375 100.81 133.067 101.411C132.759 101.997 132.54 102.678 132.408 103.454C132.276 104.216 132.21 105.029 132.21 105.893ZM158.27 110.925L162.664 94.2256H167.3L165.652 102.597L161.302 118H157.588L158.27 110.925ZM156.534 94.2256L159.258 110.793L159.566 118H155.062L149.437 94.2256H156.534ZM171.211 110.441L173.958 94.2256H181.055L175.474 118H170.97L171.211 110.441ZM167.828 94.2256L172.266 110.881L172.947 118H169.19L164.927 102.641L163.345 94.2256H167.828ZM209.466 86.0078V118H201.753V86.0078H209.466ZM219.09 86.0078V91.9624H192.349V86.0078H219.09ZM216.475 106.354V105.893C216.475 104.15 216.724 102.546 217.222 101.081C217.72 99.6016 218.453 98.3198 219.419 97.2358C220.386 96.1519 221.58 95.3096 223.001 94.709C224.422 94.0938 226.062 93.7861 227.923 93.7861C229.798 93.7861 231.446 94.0938 232.867 94.709C234.302 95.3096 235.503 96.1519 236.47 97.2358C237.437 98.3198 238.169 99.6016 238.667 101.081C239.166 102.546 239.415 104.15 239.415 105.893V106.354C239.415 108.083 239.166 109.687 238.667 111.167C238.169 112.631 237.437 113.913 236.47 115.012C235.503 116.096 234.31 116.938 232.889 117.539C231.468 118.139 229.827 118.439 227.967 118.439C226.106 118.439 224.458 118.139 223.023 117.539C221.587 116.938 220.386 116.096 219.419 115.012C218.453 113.913 217.72 112.631 217.222 111.167C216.724 109.687 216.475 108.083 216.475 106.354ZM223.88 105.893V106.354C223.88 107.248 223.946 108.083 224.078 108.859C224.209 109.636 224.429 110.317 224.737 110.903C225.044 111.474 225.462 111.921 225.989 112.243C226.517 112.565 227.176 112.727 227.967 112.727C228.743 112.727 229.388 112.565 229.9 112.243C230.428 111.921 230.845 111.474 231.153 110.903C231.46 110.317 231.68 109.636 231.812 108.859C231.944 108.083 232.01 107.248 232.01 106.354V105.893C232.01 105.029 231.944 104.216 231.812 103.454C231.68 102.678 231.46 101.997 231.153 101.411C230.845 100.81 230.428 100.341 229.9 100.004C229.373 99.6675 228.714 99.499 227.923 99.499C227.146 99.499 226.495 99.6675 225.967 100.004C225.455 100.341 225.044 100.81 224.737 101.411C224.429 101.997 224.209 102.678 224.078 103.454C223.946 104.216 223.88 105.029 223.88 105.893ZM254.268 86.0078H266.858C269.319 86.0078 271.458 86.374 273.274 87.1064C275.091 87.8389 276.49 88.9229 277.471 90.3584C278.467 91.7939 278.965 93.5664 278.965 95.6758C278.965 97.5068 278.68 99.0376 278.108 100.268C277.537 101.499 276.739 102.517 275.713 103.322C274.703 104.113 273.523 104.765 272.176 105.278L269.649 106.706H259.08L259.036 100.751H266.858C267.84 100.751 268.653 100.576 269.297 100.224C269.942 99.8726 270.425 99.3745 270.748 98.73C271.084 98.0708 271.253 97.2871 271.253 96.3789C271.253 95.4561 271.084 94.665 270.748 94.0059C270.411 93.3467 269.913 92.8413 269.253 92.4897C268.609 92.1382 267.811 91.9624 266.858 91.9624H261.98V118H254.268V86.0078ZM271.78 118L264.705 103.85L272.879 103.806L280.042 117.67V118H271.78ZM297.159 112.221V94.2256H304.585V118H297.642L297.159 112.221ZM297.862 107.387L299.795 107.343C299.795 108.94 299.605 110.419 299.224 111.782C298.843 113.129 298.279 114.301 297.532 115.297C296.8 116.293 295.892 117.07 294.808 117.626C293.738 118.168 292.5 118.439 291.094 118.439C289.922 118.439 288.846 118.278 287.864 117.956C286.897 117.619 286.062 117.099 285.359 116.396C284.656 115.678 284.107 114.763 283.711 113.649C283.331 112.521 283.14 111.174 283.14 109.606V94.2256H290.545V109.65C290.545 110.178 290.611 110.632 290.743 111.013C290.875 111.394 291.065 111.716 291.314 111.979C291.563 112.229 291.871 112.419 292.237 112.551C292.618 112.668 293.05 112.727 293.533 112.727C294.646 112.727 295.518 112.492 296.148 112.023C296.778 111.555 297.217 110.917 297.466 110.112C297.73 109.306 297.862 108.398 297.862 107.387ZM315.945 99.3013V118H308.541V94.2256H315.484L315.945 99.3013ZM315.066 105.3L313.331 105.344C313.331 103.527 313.55 101.909 313.99 100.488C314.429 99.0522 315.052 97.8364 315.857 96.8403C316.663 95.8442 317.623 95.0898 318.736 94.5771C319.864 94.0498 321.116 93.7861 322.493 93.7861C323.592 93.7861 324.595 93.9473 325.503 94.2695C326.426 94.5918 327.217 95.1118 327.876 95.8296C328.55 96.5474 329.063 97.4995 329.415 98.686C329.781 99.8579 329.964 101.308 329.964 103.037V118H322.515V103.015C322.515 102.062 322.383 101.337 322.12 100.839C321.856 100.327 321.475 99.9751 320.977 99.7847C320.479 99.5942 319.871 99.499 319.153 99.499C318.392 99.499 317.747 99.6455 317.22 99.9385C316.692 100.231 316.268 100.642 315.945 101.169C315.638 101.682 315.411 102.29 315.264 102.993C315.132 103.696 315.066 104.465 315.066 105.3ZM345.85 107.871H339.544C339.544 106.582 339.632 105.446 339.808 104.465C339.998 103.469 340.32 102.575 340.774 101.784C341.229 100.993 341.844 100.261 342.62 99.5869C343.309 99.0156 343.902 98.4663 344.4 97.939C344.898 97.4116 345.279 96.877 345.542 96.335C345.806 95.793 345.938 95.2144 345.938 94.5991C345.938 93.8374 345.828 93.2148 345.608 92.7314C345.403 92.248 345.088 91.8892 344.664 91.6548C344.253 91.4058 343.733 91.2812 343.104 91.2812C342.591 91.2812 342.107 91.4058 341.653 91.6548C341.214 91.9038 340.855 92.292 340.577 92.8193C340.298 93.332 340.145 94.0132 340.115 94.8628H332.667C332.71 92.6802 333.194 90.9077 334.117 89.5454C335.054 88.1685 336.299 87.165 337.852 86.5352C339.419 85.8906 341.17 85.5684 343.104 85.5684C345.242 85.5684 347.081 85.8979 348.619 86.5571C350.157 87.2163 351.336 88.1978 352.156 89.5015C352.977 90.7905 353.387 92.3799 353.387 94.2695C353.387 95.5293 353.145 96.6279 352.662 97.5654C352.193 98.4883 351.556 99.3525 350.75 100.158C349.959 100.949 349.073 101.799 348.091 102.707C347.242 103.454 346.663 104.216 346.355 104.992C346.048 105.754 345.879 106.713 345.85 107.871ZM338.643 114.55C338.643 113.496 339.024 112.617 339.786 111.914C340.547 111.196 341.536 110.837 342.752 110.837C343.968 110.837 344.957 111.196 345.718 111.914C346.48 112.617 346.861 113.496 346.861 114.55C346.861 115.605 346.48 116.491 345.718 117.209C344.957 117.912 343.968 118.264 342.752 118.264C341.536 118.264 340.547 117.912 339.786 117.209C339.024 116.491 338.643 115.605 338.643 114.55Z" fill="#424241"/>
<path d="M1363 15C1363 6.71573 1356.28 0 1348 0H1134V167H1348C1356.28 167 1363 160.284 1363 152V15Z" fill="#3AD514"/>
<path d="M1260.77 81.3079C1263.96 81.3079 1267.09 82.2553 1269.74 84.0303C1272.4 85.8053 1274.47 88.3282 1275.69 91.2799C1276.92 94.2316 1277.24 97.4796 1276.61 100.613C1275.99 103.747 1274.45 106.625 1272.19 108.884C1269.93 111.143 1267.05 112.682 1263.92 113.305C1260.79 113.928 1257.54 113.608 1254.59 112.386C1251.64 111.163 1249.11 109.093 1247.34 106.436C1245.56 103.78 1244.62 100.657 1244.62 97.4617C1244.62 93.1774 1246.32 89.0686 1249.35 86.0392C1252.38 83.0098 1256.49 81.3079 1260.77 81.3079V81.3079ZM1260.77 75.9233C1256.51 75.9233 1252.35 77.1865 1248.8 79.5532C1245.26 81.9198 1242.5 85.2837 1240.87 89.2193C1239.24 93.1549 1238.81 97.4856 1239.64 101.664C1240.48 105.842 1242.53 109.679 1245.54 112.692C1248.55 115.704 1252.39 117.755 1256.57 118.586C1260.75 119.417 1265.08 118.991 1269.01 117.361C1272.95 115.73 1276.31 112.97 1278.68 109.428C1281.04 105.886 1282.31 101.722 1282.31 97.4617C1282.31 91.7493 1280.04 86.271 1276 82.2317C1271.96 78.1925 1266.48 75.9233 1260.77 75.9233Z" fill="white"/>
<path d="M1274.23 49H1220.38C1218.96 49 1217.59 49.5673 1216.58 50.5771C1215.57 51.5869 1215 52.9565 1215 54.3846V108.231C1215 109.659 1215.57 111.028 1216.58 112.038C1217.59 113.048 1218.96 113.615 1220.38 113.615H1231.15V108.231H1220.38V70.5384H1279.62V54.3846C1279.62 52.9565 1279.05 51.5869 1278.04 50.5771C1277.03 49.5673 1275.66 49 1274.23 49V49ZM1220.38 65.1538V54.3846H1274.23V65.1538H1220.38Z" fill="white"/>
<path d="M1255.38 89.3849V105.539L1268.85 97.4618L1255.38 89.3849Z" fill="white"/>
</svg>
