<svg width="1363" height="167" viewBox="0 0 1363 167" fill="none" xmlns="http://www.w3.org/2000/svg">
<rect width="1363" height="167" rx="15" fill="#F0F0F0"/>
<path d="M0 15C0 6.71573 6.71573 0 15 0H37V167H15C6.71573 167 0 160.284 0 152V15Z" fill="#424241"/>
<path d="M100.906 54.9219L93.3945 52.2383V49.0859L103.602 53.375V55.6367L100.906 54.9219ZM93.3945 57.1719L100.918 54.4297L103.602 53.7852V56.0352L93.3945 60.3242V57.1719ZM120.781 57.5352C120.781 57.2305 120.734 56.957 120.641 56.7148C120.555 56.4648 120.391 56.2383 120.148 56.0352C119.906 55.8242 119.566 55.6172 119.129 55.4141C118.691 55.2109 118.125 55 117.43 54.7812C116.656 54.5312 115.922 54.25 115.227 53.9375C114.539 53.625 113.93 53.2617 113.398 52.8477C112.875 52.4258 112.461 51.9375 112.156 51.3828C111.859 50.8281 111.711 50.1836 111.711 49.4492C111.711 48.7383 111.867 48.0938 112.18 47.5156C112.492 46.9297 112.93 46.4297 113.492 46.0156C114.055 45.5938 114.719 45.2695 115.484 45.043C116.258 44.8164 117.105 44.7031 118.027 44.7031C119.285 44.7031 120.383 44.9297 121.32 45.3828C122.258 45.8359 122.984 46.457 123.5 47.2461C124.023 48.0352 124.285 48.9375 124.285 49.9531H120.793C120.793 49.4531 120.688 49.0156 120.477 48.6406C120.273 48.2578 119.961 47.957 119.539 47.7383C119.125 47.5195 118.602 47.4102 117.969 47.4102C117.359 47.4102 116.852 47.5039 116.445 47.6914C116.039 47.8711 115.734 48.1172 115.531 48.4297C115.328 48.7344 115.227 49.0781 115.227 49.4609C115.227 49.75 115.297 50.0117 115.438 50.2461C115.586 50.4805 115.805 50.6992 116.094 50.9023C116.383 51.1055 116.738 51.2969 117.16 51.4766C117.582 51.6562 118.07 51.832 118.625 52.0039C119.555 52.2852 120.371 52.6016 121.074 52.9531C121.785 53.3047 122.379 53.6992 122.855 54.1367C123.332 54.5742 123.691 55.0703 123.934 55.625C124.176 56.1797 124.297 56.8086 124.297 57.5117C124.297 58.2539 124.152 58.918 123.863 59.5039C123.574 60.0898 123.156 60.5859 122.609 60.9922C122.062 61.3984 121.41 61.707 120.652 61.918C119.895 62.1289 119.047 62.2344 118.109 62.2344C117.266 62.2344 116.434 62.125 115.613 61.9062C114.793 61.6797 114.047 61.3398 113.375 60.8867C112.711 60.4336 112.18 59.8555 111.781 59.1523C111.383 58.4492 111.184 57.6172 111.184 56.6562H114.711C114.711 57.1875 114.793 57.6367 114.957 58.0039C115.121 58.3711 115.352 58.668 115.648 58.8945C115.953 59.1211 116.312 59.2852 116.727 59.3867C117.148 59.4883 117.609 59.5391 118.109 59.5391C118.719 59.5391 119.219 59.4531 119.609 59.2812C120.008 59.1094 120.301 58.8711 120.488 58.5664C120.684 58.2617 120.781 57.918 120.781 57.5352ZM129.852 51.7578V66.875H126.477V49.3203H129.605L129.852 51.7578ZM137.879 55.5195V55.7656C137.879 56.6875 137.77 57.543 137.551 58.332C137.34 59.1211 137.027 59.8086 136.613 60.3945C136.199 60.9727 135.684 61.4258 135.066 61.7539C134.457 62.0742 133.754 62.2344 132.957 62.2344C132.184 62.2344 131.512 62.0781 130.941 61.7656C130.371 61.4531 129.891 61.0156 129.5 60.4531C129.117 59.8828 128.809 59.2227 128.574 58.4727C128.34 57.7227 128.16 56.918 128.035 56.0586V55.4141C128.16 54.4922 128.34 53.6484 128.574 52.8828C128.809 52.1094 129.117 51.4414 129.5 50.8789C129.891 50.3086 130.367 49.8672 130.93 49.5547C131.5 49.2422 132.168 49.0859 132.934 49.0859C133.738 49.0859 134.445 49.2383 135.055 49.543C135.672 49.8477 136.188 50.2852 136.602 50.8555C137.023 51.4258 137.34 52.1055 137.551 52.8945C137.77 53.6836 137.879 54.5586 137.879 55.5195ZM134.492 55.7656V55.5195C134.492 54.9805 134.445 54.4844 134.352 54.0312C134.266 53.5703 134.125 53.168 133.93 52.8242C133.742 52.4805 133.492 52.2148 133.18 52.0273C132.875 51.832 132.504 51.7344 132.066 51.7344C131.605 51.7344 131.211 51.8086 130.883 51.957C130.562 52.1055 130.301 52.3203 130.098 52.6016C129.895 52.8828 129.742 53.2188 129.641 53.6094C129.539 54 129.477 54.4414 129.453 54.9336V56.5625C129.492 57.1406 129.602 57.6602 129.781 58.1211C129.961 58.5742 130.238 58.9336 130.613 59.1992C130.988 59.4648 131.48 59.5977 132.09 59.5977C132.535 59.5977 132.91 59.5 133.215 59.3047C133.52 59.1016 133.766 58.8242 133.953 58.4727C134.148 58.1211 134.285 57.7148 134.363 57.2539C134.449 56.793 134.492 56.2969 134.492 55.7656ZM139.438 55.7891V55.543C139.438 54.6133 139.57 53.7578 139.836 52.9766C140.102 52.1875 140.488 51.5039 140.996 50.9258C141.504 50.3477 142.129 49.8984 142.871 49.5781C143.613 49.25 144.465 49.0859 145.426 49.0859C146.387 49.0859 147.242 49.25 147.992 49.5781C148.742 49.8984 149.371 50.3477 149.879 50.9258C150.395 51.5039 150.785 52.1875 151.051 52.9766C151.316 53.7578 151.449 54.6133 151.449 55.543V55.7891C151.449 56.7109 151.316 57.5664 151.051 58.3555C150.785 59.1367 150.395 59.8203 149.879 60.4062C149.371 60.9844 148.746 61.4336 148.004 61.7539C147.262 62.0742 146.41 62.2344 145.449 62.2344C144.488 62.2344 143.633 62.0742 142.883 61.7539C142.141 61.4336 141.512 60.9844 140.996 60.4062C140.488 59.8203 140.102 59.1367 139.836 58.3555C139.57 57.5664 139.438 56.7109 139.438 55.7891ZM142.812 55.543V55.7891C142.812 56.3203 142.859 56.8164 142.953 57.2773C143.047 57.7383 143.195 58.1445 143.398 58.4961C143.609 58.8398 143.883 59.1094 144.219 59.3047C144.555 59.5 144.965 59.5977 145.449 59.5977C145.918 59.5977 146.32 59.5 146.656 59.3047C146.992 59.1094 147.262 58.8398 147.465 58.4961C147.668 58.1445 147.816 57.7383 147.91 57.2773C148.012 56.8164 148.062 56.3203 148.062 55.7891V55.543C148.062 55.0273 148.012 54.543 147.91 54.0898C147.816 53.6289 147.664 53.2227 147.453 52.8711C147.25 52.5117 146.98 52.2305 146.645 52.0273C146.309 51.8242 145.902 51.7227 145.426 51.7227C144.949 51.7227 144.543 51.8242 144.207 52.0273C143.879 52.2305 143.609 52.5117 143.398 52.8711C143.195 53.2227 143.047 53.6289 142.953 54.0898C142.859 54.543 142.812 55.0273 142.812 55.543ZM159.734 49.3203V51.7109H152.352V49.3203H159.734ZM154.18 46.1914H157.555V58.1797C157.555 58.5469 157.602 58.8281 157.695 59.0234C157.797 59.2188 157.945 59.3555 158.141 59.4336C158.336 59.5039 158.582 59.5391 158.879 59.5391C159.09 59.5391 159.277 59.5312 159.441 59.5156C159.613 59.4922 159.758 59.4688 159.875 59.4453L159.887 61.9297C159.598 62.0234 159.285 62.0977 158.949 62.1523C158.613 62.207 158.242 62.2344 157.836 62.2344C157.094 62.2344 156.445 62.1133 155.891 61.8711C155.344 61.6211 154.922 61.2227 154.625 60.6758C154.328 60.1289 154.18 59.4102 154.18 58.5195V46.1914ZM165.219 49.3203V62H161.832V49.3203H165.219ZM161.621 46.0156C161.621 45.5234 161.793 45.1172 162.137 44.7969C162.48 44.4766 162.941 44.3164 163.52 44.3164C164.09 44.3164 164.547 44.4766 164.891 44.7969C165.242 45.1172 165.418 45.5234 165.418 46.0156C165.418 46.5078 165.242 46.9141 164.891 47.2344C164.547 47.5547 164.09 47.7148 163.52 47.7148C162.941 47.7148 162.48 47.5547 162.137 47.2344C161.793 46.9141 161.621 46.5078 161.621 46.0156ZM172.309 62H168.91V48.1953C168.91 47.2344 169.098 46.4258 169.473 45.7695C169.855 45.1055 170.391 44.6055 171.078 44.2695C171.773 43.9258 172.598 43.7539 173.551 43.7539C173.863 43.7539 174.164 43.7773 174.453 43.8242C174.742 43.8633 175.023 43.9141 175.297 43.9766L175.262 46.5195C175.113 46.4805 174.957 46.4531 174.793 46.4375C174.629 46.4219 174.438 46.4141 174.219 46.4141C173.812 46.4141 173.465 46.4844 173.176 46.625C172.895 46.7578 172.68 46.957 172.531 47.2227C172.383 47.4883 172.309 47.8125 172.309 48.1953V62ZM174.84 49.3203V51.7109H167.023V49.3203H174.84ZM180.371 60.5703L183.734 49.3203H187.355L182.258 63.9102C182.148 64.2305 182 64.5742 181.812 64.9414C181.633 65.3086 181.387 65.6562 181.074 65.9844C180.77 66.3203 180.383 66.5938 179.914 66.8047C179.453 67.0156 178.887 67.1211 178.215 67.1211C177.895 67.1211 177.633 67.1016 177.43 67.0625C177.227 67.0234 176.984 66.9688 176.703 66.8984V64.4258C176.789 64.4258 176.879 64.4258 176.973 64.4258C177.066 64.4336 177.156 64.4375 177.242 64.4375C177.688 64.4375 178.051 64.3867 178.332 64.2852C178.613 64.1836 178.84 64.0273 179.012 63.8164C179.184 63.6133 179.32 63.3477 179.422 63.0195L180.371 60.5703ZM178.965 49.3203L181.719 58.5078L182.199 62.082L179.902 62.3281L175.344 49.3203H178.965ZM204.781 56.3398H208.285C208.215 57.4883 207.898 58.5078 207.336 59.3984C206.781 60.2891 206.004 60.9844 205.004 61.4844C204.012 61.9844 202.816 62.2344 201.418 62.2344C200.324 62.2344 199.344 62.0469 198.477 61.6719C197.609 61.2891 196.867 60.7422 196.25 60.0312C195.641 59.3203 195.176 58.4609 194.855 57.4531C194.535 56.4453 194.375 55.3164 194.375 54.0664V52.8828C194.375 51.6328 194.539 50.5039 194.867 49.4961C195.203 48.4805 195.68 47.6172 196.297 46.9062C196.922 46.1953 197.668 45.6484 198.535 45.2656C199.402 44.8828 200.371 44.6914 201.441 44.6914C202.863 44.6914 204.062 44.9492 205.039 45.4648C206.023 45.9805 206.785 46.6914 207.324 47.5977C207.871 48.5039 208.199 49.5352 208.309 50.6914H204.793C204.754 50.0039 204.617 49.4219 204.383 48.9453C204.148 48.4609 203.793 48.0977 203.316 47.8555C202.848 47.6055 202.223 47.4805 201.441 47.4805C200.855 47.4805 200.344 47.5898 199.906 47.8086C199.469 48.0273 199.102 48.3594 198.805 48.8047C198.508 49.25 198.285 49.8125 198.137 50.4922C197.996 51.1641 197.926 51.9531 197.926 52.8594V54.0664C197.926 54.9492 197.992 55.7266 198.125 56.3984C198.258 57.0625 198.461 57.625 198.734 58.0859C199.016 58.5391 199.375 58.8828 199.812 59.1172C200.258 59.3438 200.793 59.457 201.418 59.457C202.152 59.457 202.758 59.3398 203.234 59.1055C203.711 58.8711 204.074 58.5234 204.324 58.0625C204.582 57.6016 204.734 57.0273 204.781 56.3398ZM213.676 44V62H210.301V44H213.676ZM213.195 55.2148H212.27C212.277 54.332 212.395 53.5195 212.621 52.7773C212.848 52.0273 213.172 51.3789 213.594 50.832C214.016 50.2773 214.52 49.8477 215.105 49.543C215.699 49.2383 216.355 49.0859 217.074 49.0859C217.699 49.0859 218.266 49.1758 218.773 49.3555C219.289 49.5273 219.73 49.8086 220.098 50.1992C220.473 50.582 220.762 51.0859 220.965 51.7109C221.168 52.3359 221.27 53.0938 221.27 53.9844V62H217.871V53.9609C217.871 53.3984 217.789 52.957 217.625 52.6367C217.469 52.3086 217.238 52.0781 216.934 51.9453C216.637 51.8047 216.27 51.7344 215.832 51.7344C215.348 51.7344 214.934 51.8242 214.59 52.0039C214.254 52.1836 213.984 52.4336 213.781 52.7539C213.578 53.0664 213.43 53.4336 213.336 53.8555C213.242 54.2773 213.195 54.7305 213.195 55.2148ZM230.68 59.1406V53.4922C230.68 53.0859 230.613 52.7383 230.48 52.4492C230.348 52.1523 230.141 51.9219 229.859 51.7578C229.586 51.5938 229.23 51.5117 228.793 51.5117C228.418 51.5117 228.094 51.5781 227.82 51.7109C227.547 51.8359 227.336 52.0195 227.188 52.2617C227.039 52.4961 226.965 52.7734 226.965 53.0938H223.59C223.59 52.5547 223.715 52.043 223.965 51.5586C224.215 51.0742 224.578 50.6484 225.055 50.2812C225.531 49.9062 226.098 49.6133 226.754 49.4023C227.418 49.1914 228.16 49.0859 228.98 49.0859C229.965 49.0859 230.84 49.25 231.605 49.5781C232.371 49.9062 232.973 50.3984 233.41 51.0547C233.855 51.7109 234.078 52.5312 234.078 53.5156V58.9414C234.078 59.6367 234.121 60.207 234.207 60.6523C234.293 61.0898 234.418 61.4727 234.582 61.8008V62H231.172C231.008 61.6562 230.883 61.2266 230.797 60.7109C230.719 60.1875 230.68 59.6641 230.68 59.1406ZM231.125 54.2773L231.148 56.1875H229.262C228.816 56.1875 228.43 56.2383 228.102 56.3398C227.773 56.4414 227.504 56.5859 227.293 56.7734C227.082 56.9531 226.926 57.1641 226.824 57.4062C226.73 57.6484 226.684 57.9141 226.684 58.2031C226.684 58.4922 226.75 58.7539 226.883 58.9883C227.016 59.2148 227.207 59.3945 227.457 59.5273C227.707 59.6523 228 59.7148 228.336 59.7148C228.844 59.7148 229.285 59.6133 229.66 59.4102C230.035 59.207 230.324 58.957 230.527 58.6602C230.738 58.3633 230.848 58.082 230.855 57.8164L231.746 59.2461C231.621 59.5664 231.449 59.8984 231.23 60.2422C231.02 60.5859 230.75 60.9102 230.422 61.2148C230.094 61.5117 229.699 61.7578 229.238 61.9531C228.777 62.1406 228.23 62.2344 227.598 62.2344C226.793 62.2344 226.062 62.0742 225.406 61.7539C224.758 61.4258 224.242 60.9766 223.859 60.4062C223.484 59.8281 223.297 59.1719 223.297 58.4375C223.297 57.7734 223.422 57.1836 223.672 56.668C223.922 56.1523 224.289 55.7188 224.773 55.3672C225.266 55.0078 225.879 54.7383 226.613 54.5586C227.348 54.3711 228.199 54.2773 229.168 54.2773H231.125ZM240.242 44V62H236.855V44H240.242ZM246.594 44V62H243.207V44H246.594ZM255.219 62.2344C254.234 62.2344 253.352 62.0781 252.57 61.7656C251.789 61.4453 251.125 61.0039 250.578 60.4414C250.039 59.8789 249.625 59.2266 249.336 58.4844C249.047 57.7344 248.902 56.9375 248.902 56.0938V55.625C248.902 54.6641 249.039 53.7852 249.312 52.9883C249.586 52.1914 249.977 51.5 250.484 50.9141C251 50.3281 251.625 49.8789 252.359 49.5664C253.094 49.2461 253.922 49.0859 254.844 49.0859C255.742 49.0859 256.539 49.2344 257.234 49.5312C257.93 49.8281 258.512 50.25 258.98 50.7969C259.457 51.3438 259.816 52 260.059 52.7656C260.301 53.5234 260.422 54.3672 260.422 55.2969V56.7031H250.344V54.4531H257.105V54.1953C257.105 53.7266 257.02 53.3086 256.848 52.9414C256.684 52.5664 256.434 52.2695 256.098 52.0508C255.762 51.832 255.332 51.7227 254.809 51.7227C254.363 51.7227 253.98 51.8203 253.66 52.0156C253.34 52.2109 253.078 52.4844 252.875 52.8359C252.68 53.1875 252.531 53.6016 252.43 54.0781C252.336 54.5469 252.289 55.0625 252.289 55.625V56.0938C252.289 56.6016 252.359 57.0703 252.5 57.5C252.648 57.9297 252.855 58.3008 253.121 58.6133C253.395 58.9258 253.723 59.168 254.105 59.3398C254.496 59.5117 254.938 59.5977 255.43 59.5977C256.039 59.5977 256.605 59.4805 257.129 59.2461C257.66 59.0039 258.117 58.6406 258.5 58.1562L260.141 59.9375C259.875 60.3203 259.512 60.6875 259.051 61.0391C258.598 61.3906 258.051 61.6797 257.41 61.9062C256.77 62.125 256.039 62.2344 255.219 62.2344ZM265.648 52.0273V62H262.273V49.3203H265.438L265.648 52.0273ZM265.156 55.2148H264.242C264.242 54.2773 264.363 53.4336 264.605 52.6836C264.848 51.9258 265.188 51.2812 265.625 50.75C266.062 50.2109 266.582 49.8008 267.184 49.5195C267.793 49.2305 268.473 49.0859 269.223 49.0859C269.816 49.0859 270.359 49.1719 270.852 49.3438C271.344 49.5156 271.766 49.7891 272.117 50.1641C272.477 50.5391 272.75 51.0352 272.938 51.6523C273.133 52.2695 273.23 53.0234 273.23 53.9141V62H269.832V53.9023C269.832 53.3398 269.754 52.9023 269.598 52.5898C269.441 52.2773 269.211 52.0586 268.906 51.9336C268.609 51.8008 268.242 51.7344 267.805 51.7344C267.352 51.7344 266.957 51.8242 266.621 52.0039C266.293 52.1836 266.02 52.4336 265.801 52.7539C265.59 53.0664 265.43 53.4336 265.32 53.8555C265.211 54.2773 265.156 54.7305 265.156 55.2148ZM283.824 49.3203H286.883V61.5781C286.883 62.7344 286.625 63.7148 286.109 64.5195C285.602 65.332 284.891 65.9453 283.977 66.3594C283.062 66.7812 282 66.9922 280.789 66.9922C280.258 66.9922 279.695 66.9219 279.102 66.7812C278.516 66.6406 277.953 66.4219 277.414 66.125C276.883 65.8281 276.438 65.4531 276.078 65L277.566 63.0078C277.957 63.4609 278.41 63.8125 278.926 64.0625C279.441 64.3203 280.012 64.4492 280.637 64.4492C281.246 64.4492 281.762 64.3359 282.184 64.1094C282.605 63.8906 282.93 63.5664 283.156 63.1367C283.383 62.7148 283.496 62.2031 283.496 61.6016V52.25L283.824 49.3203ZM275.293 55.8125V55.5664C275.293 54.5977 275.41 53.7188 275.645 52.9297C275.887 52.1328 276.227 51.4492 276.664 50.8789C277.109 50.3086 277.648 49.8672 278.281 49.5547C278.914 49.2422 279.629 49.0859 280.426 49.0859C281.27 49.0859 281.977 49.2422 282.547 49.5547C283.117 49.8672 283.586 50.3125 283.953 50.8906C284.32 51.4609 284.605 52.1367 284.809 52.918C285.02 53.6914 285.184 54.5391 285.301 55.4609V56C285.184 56.8828 285.008 57.7031 284.773 58.4609C284.539 59.2188 284.23 59.8828 283.848 60.4531C283.465 61.0156 282.988 61.4531 282.418 61.7656C281.855 62.0781 281.184 62.2344 280.402 62.2344C279.621 62.2344 278.914 62.0742 278.281 61.7539C277.656 61.4336 277.121 60.9844 276.676 60.4062C276.23 59.8281 275.887 59.1484 275.645 58.3672C275.41 57.5859 275.293 56.7344 275.293 55.8125ZM278.668 55.5664V55.8125C278.668 56.3359 278.719 56.8242 278.82 57.2773C278.922 57.7305 279.078 58.1328 279.289 58.4844C279.508 58.8281 279.777 59.0977 280.098 59.293C280.426 59.4805 280.812 59.5742 281.258 59.5742C281.875 59.5742 282.379 59.4453 282.77 59.1875C283.16 58.9219 283.453 58.5586 283.648 58.0977C283.844 57.6367 283.957 57.1055 283.988 56.5039V54.9688C283.973 54.4766 283.906 54.0352 283.789 53.6445C283.672 53.2461 283.508 52.9062 283.297 52.625C283.086 52.3438 282.812 52.125 282.477 51.9688C282.141 51.8125 281.742 51.7344 281.281 51.7344C280.836 51.7344 280.449 51.8359 280.121 52.0391C279.801 52.2344 279.531 52.5039 279.312 52.8477C279.102 53.1914 278.941 53.5977 278.832 54.0664C278.723 54.5273 278.668 55.0273 278.668 55.5664ZM295.344 62.2344C294.359 62.2344 293.477 62.0781 292.695 61.7656C291.914 61.4453 291.25 61.0039 290.703 60.4414C290.164 59.8789 289.75 59.2266 289.461 58.4844C289.172 57.7344 289.027 56.9375 289.027 56.0938V55.625C289.027 54.6641 289.164 53.7852 289.438 52.9883C289.711 52.1914 290.102 51.5 290.609 50.9141C291.125 50.3281 291.75 49.8789 292.484 49.5664C293.219 49.2461 294.047 49.0859 294.969 49.0859C295.867 49.0859 296.664 49.2344 297.359 49.5312C298.055 49.8281 298.637 50.25 299.105 50.7969C299.582 51.3438 299.941 52 300.184 52.7656C300.426 53.5234 300.547 54.3672 300.547 55.2969V56.7031H290.469V54.4531H297.23V54.1953C297.23 53.7266 297.145 53.3086 296.973 52.9414C296.809 52.5664 296.559 52.2695 296.223 52.0508C295.887 51.832 295.457 51.7227 294.934 51.7227C294.488 51.7227 294.105 51.8203 293.785 52.0156C293.465 52.2109 293.203 52.4844 293 52.8359C292.805 53.1875 292.656 53.6016 292.555 54.0781C292.461 54.5469 292.414 55.0625 292.414 55.625V56.0938C292.414 56.6016 292.484 57.0703 292.625 57.5C292.773 57.9297 292.98 58.3008 293.246 58.6133C293.52 58.9258 293.848 59.168 294.23 59.3398C294.621 59.5117 295.062 59.5977 295.555 59.5977C296.164 59.5977 296.73 59.4805 297.254 59.2461C297.785 59.0039 298.242 58.6406 298.625 58.1562L300.266 59.9375C300 60.3203 299.637 60.6875 299.176 61.0391C298.723 61.3906 298.176 61.6797 297.535 61.9062C296.895 62.125 296.164 62.2344 295.344 62.2344ZM317.785 62V64.5664H307.145V62H317.785ZM332.258 47.8555L327.617 62H323.879L330.219 44.9375H332.598L332.258 47.8555ZM336.113 62L331.461 47.8555L331.086 44.9375H333.488L339.863 62H336.113ZM335.902 55.6484V58.4023H326.891V55.6484H335.902ZM344.164 52.0273V62H340.789V49.3203H343.953L344.164 52.0273ZM343.672 55.2148H342.758C342.758 54.2773 342.879 53.4336 343.121 52.6836C343.363 51.9258 343.703 51.2812 344.141 50.75C344.578 50.2109 345.098 49.8008 345.699 49.5195C346.309 49.2305 346.988 49.0859 347.738 49.0859C348.332 49.0859 348.875 49.1719 349.367 49.3438C349.859 49.5156 350.281 49.7891 350.633 50.1641C350.992 50.5391 351.266 51.0352 351.453 51.6523C351.648 52.2695 351.746 53.0234 351.746 53.9141V62H348.348V53.9023C348.348 53.3398 348.27 52.9023 348.113 52.5898C347.957 52.2773 347.727 52.0586 347.422 51.9336C347.125 51.8008 346.758 51.7344 346.32 51.7344C345.867 51.7344 345.473 51.8242 345.137 52.0039C344.809 52.1836 344.535 52.4336 344.316 52.7539C344.105 53.0664 343.945 53.4336 343.836 53.8555C343.727 54.2773 343.672 54.7305 343.672 55.2148ZM362.34 49.3203H365.398V61.5781C365.398 62.7344 365.141 63.7148 364.625 64.5195C364.117 65.332 363.406 65.9453 362.492 66.3594C361.578 66.7812 360.516 66.9922 359.305 66.9922C358.773 66.9922 358.211 66.9219 357.617 66.7812C357.031 66.6406 356.469 66.4219 355.93 66.125C355.398 65.8281 354.953 65.4531 354.594 65L356.082 63.0078C356.473 63.4609 356.926 63.8125 357.441 64.0625C357.957 64.3203 358.527 64.4492 359.152 64.4492C359.762 64.4492 360.277 64.3359 360.699 64.1094C361.121 63.8906 361.445 63.5664 361.672 63.1367C361.898 62.7148 362.012 62.2031 362.012 61.6016V52.25L362.34 49.3203ZM353.809 55.8125V55.5664C353.809 54.5977 353.926 53.7188 354.16 52.9297C354.402 52.1328 354.742 51.4492 355.18 50.8789C355.625 50.3086 356.164 49.8672 356.797 49.5547C357.43 49.2422 358.145 49.0859 358.941 49.0859C359.785 49.0859 360.492 49.2422 361.062 49.5547C361.633 49.8672 362.102 50.3125 362.469 50.8906C362.836 51.4609 363.121 52.1367 363.324 52.918C363.535 53.6914 363.699 54.5391 363.816 55.4609V56C363.699 56.8828 363.523 57.7031 363.289 58.4609C363.055 59.2188 362.746 59.8828 362.363 60.4531C361.98 61.0156 361.504 61.4531 360.934 61.7656C360.371 62.0781 359.699 62.2344 358.918 62.2344C358.137 62.2344 357.43 62.0742 356.797 61.7539C356.172 61.4336 355.637 60.9844 355.191 60.4062C354.746 59.8281 354.402 59.1484 354.16 58.3672C353.926 57.5859 353.809 56.7344 353.809 55.8125ZM357.184 55.5664V55.8125C357.184 56.3359 357.234 56.8242 357.336 57.2773C357.438 57.7305 357.594 58.1328 357.805 58.4844C358.023 58.8281 358.293 59.0977 358.613 59.293C358.941 59.4805 359.328 59.5742 359.773 59.5742C360.391 59.5742 360.895 59.4453 361.285 59.1875C361.676 58.9219 361.969 58.5586 362.164 58.0977C362.359 57.6367 362.473 57.1055 362.504 56.5039V54.9688C362.488 54.4766 362.422 54.0352 362.305 53.6445C362.188 53.2461 362.023 52.9062 361.812 52.625C361.602 52.3438 361.328 52.125 360.992 51.9688C360.656 51.8125 360.258 51.7344 359.797 51.7344C359.352 51.7344 358.965 51.8359 358.637 52.0391C358.316 52.2344 358.047 52.5039 357.828 52.8477C357.617 53.1914 357.457 53.5977 357.348 54.0664C357.238 54.5273 357.184 55.0273 357.184 55.5664ZM375.523 58.9648V49.3203H378.898V62H375.723L375.523 58.9648ZM375.898 56.3633L376.895 56.3398C376.895 57.1836 376.797 57.9688 376.602 58.6953C376.406 59.4141 376.113 60.0391 375.723 60.5703C375.332 61.0938 374.84 61.5039 374.246 61.8008C373.652 62.0898 372.953 62.2344 372.148 62.2344C371.531 62.2344 370.961 62.1484 370.438 61.9766C369.922 61.7969 369.477 61.5195 369.102 61.1445C368.734 60.7617 368.445 60.2734 368.234 59.6797C368.031 59.0781 367.93 58.3555 367.93 57.5117V49.3203H371.305V57.5352C371.305 57.9102 371.348 58.2266 371.434 58.4844C371.527 58.7422 371.656 58.9531 371.82 59.1172C371.984 59.2812 372.176 59.3984 372.395 59.4688C372.621 59.5391 372.871 59.5742 373.145 59.5742C373.84 59.5742 374.387 59.4336 374.785 59.1523C375.191 58.8711 375.477 58.4883 375.641 58.0039C375.812 57.5117 375.898 56.9648 375.898 56.3633ZM385.039 44V62H381.652V44H385.039ZM394.672 59.1406V53.4922C394.672 53.0859 394.605 52.7383 394.473 52.4492C394.34 52.1523 394.133 51.9219 393.852 51.7578C393.578 51.5938 393.223 51.5117 392.785 51.5117C392.41 51.5117 392.086 51.5781 391.812 51.7109C391.539 51.8359 391.328 52.0195 391.18 52.2617C391.031 52.4961 390.957 52.7734 390.957 53.0938H387.582C387.582 52.5547 387.707 52.043 387.957 51.5586C388.207 51.0742 388.57 50.6484 389.047 50.2812C389.523 49.9062 390.09 49.6133 390.746 49.4023C391.41 49.1914 392.152 49.0859 392.973 49.0859C393.957 49.0859 394.832 49.25 395.598 49.5781C396.363 49.9062 396.965 50.3984 397.402 51.0547C397.848 51.7109 398.07 52.5312 398.07 53.5156V58.9414C398.07 59.6367 398.113 60.207 398.199 60.6523C398.285 61.0898 398.41 61.4727 398.574 61.8008V62H395.164C395 61.6562 394.875 61.2266 394.789 60.7109C394.711 60.1875 394.672 59.6641 394.672 59.1406ZM395.117 54.2773L395.141 56.1875H393.254C392.809 56.1875 392.422 56.2383 392.094 56.3398C391.766 56.4414 391.496 56.5859 391.285 56.7734C391.074 56.9531 390.918 57.1641 390.816 57.4062C390.723 57.6484 390.676 57.9141 390.676 58.2031C390.676 58.4922 390.742 58.7539 390.875 58.9883C391.008 59.2148 391.199 59.3945 391.449 59.5273C391.699 59.6523 391.992 59.7148 392.328 59.7148C392.836 59.7148 393.277 59.6133 393.652 59.4102C394.027 59.207 394.316 58.957 394.52 58.6602C394.73 58.3633 394.84 58.082 394.848 57.8164L395.738 59.2461C395.613 59.5664 395.441 59.8984 395.223 60.2422C395.012 60.5859 394.742 60.9102 394.414 61.2148C394.086 61.5117 393.691 61.7578 393.23 61.9531C392.77 62.1406 392.223 62.2344 391.59 62.2344C390.785 62.2344 390.055 62.0742 389.398 61.7539C388.75 61.4258 388.234 60.9766 387.852 60.4062C387.477 59.8281 387.289 59.1719 387.289 58.4375C387.289 57.7734 387.414 57.1836 387.664 56.668C387.914 56.1523 388.281 55.7188 388.766 55.3672C389.258 55.0078 389.871 54.7383 390.605 54.5586C391.34 54.3711 392.191 54.2773 393.16 54.2773H395.117ZM404.047 52.0859V62H400.672V49.3203H403.848L404.047 52.0859ZM407.867 49.2383L407.809 52.3672C407.645 52.3438 407.445 52.3242 407.211 52.3086C406.984 52.2852 406.777 52.2734 406.59 52.2734C406.113 52.2734 405.699 52.3359 405.348 52.4609C405.004 52.5781 404.715 52.7539 404.48 52.9883C404.254 53.2227 404.082 53.5078 403.965 53.8438C403.855 54.1797 403.793 54.5625 403.777 54.9922L403.098 54.7812C403.098 53.9609 403.18 53.207 403.344 52.5195C403.508 51.8242 403.746 51.2188 404.059 50.7031C404.379 50.1875 404.77 49.7891 405.23 49.5078C405.691 49.2266 406.219 49.0859 406.812 49.0859C407 49.0859 407.191 49.1016 407.387 49.1328C407.582 49.1562 407.742 49.1914 407.867 49.2383Z" fill="#888888"/>
<path d="M109.93 86.0078V118H102.217V86.0078H109.93ZM119.554 86.0078V91.9624H92.813V86.0078H119.554ZM132.012 118.439C130.079 118.439 128.35 118.139 126.827 117.539C125.303 116.923 124.014 116.081 122.959 115.012C121.919 113.942 121.121 112.712 120.564 111.32C120.022 109.929 119.751 108.457 119.751 106.904V106.069C119.751 104.326 119.993 102.714 120.477 101.235C120.96 99.7407 121.678 98.437 122.63 97.3237C123.582 96.2104 124.776 95.3462 126.211 94.731C127.647 94.1011 129.317 93.7861 131.221 93.7861C132.906 93.7861 134.415 94.0571 135.748 94.5991C137.081 95.1411 138.208 95.9175 139.131 96.9282C140.069 97.939 140.779 99.1621 141.263 100.598C141.761 102.033 142.01 103.645 142.01 105.432V108.442H122.586V103.806H134.781V103.234C134.795 102.443 134.656 101.77 134.363 101.213C134.085 100.656 133.675 100.231 133.133 99.9385C132.591 99.6455 131.932 99.499 131.155 99.499C130.35 99.499 129.683 99.6748 129.156 100.026C128.643 100.378 128.24 100.861 127.947 101.477C127.669 102.077 127.471 102.773 127.354 103.564C127.237 104.355 127.178 105.19 127.178 106.069V106.904C127.178 107.783 127.295 108.581 127.53 109.299C127.779 110.017 128.13 110.632 128.584 111.145C129.053 111.643 129.61 112.031 130.254 112.309C130.914 112.587 131.661 112.727 132.496 112.727C133.506 112.727 134.502 112.536 135.484 112.155C136.465 111.774 137.308 111.145 138.011 110.266L141.373 114.265C140.889 114.953 140.201 115.62 139.307 116.264C138.428 116.909 137.374 117.436 136.143 117.846C134.913 118.242 133.536 118.439 132.012 118.439ZM155.062 112.727C155.75 112.727 156.336 112.602 156.819 112.353C157.317 112.089 157.691 111.723 157.94 111.254C158.204 110.771 158.328 110.192 158.313 109.519H165.279C165.293 111.306 164.854 112.873 163.96 114.221C163.082 115.554 161.88 116.594 160.357 117.341C158.848 118.073 157.142 118.439 155.237 118.439C153.377 118.439 151.751 118.139 150.359 117.539C148.968 116.923 147.803 116.074 146.866 114.99C145.943 113.891 145.247 112.609 144.778 111.145C144.324 109.68 144.097 108.09 144.097 106.376V105.871C144.097 104.157 144.324 102.568 144.778 101.103C145.247 99.6235 145.943 98.3418 146.866 97.2578C147.803 96.1592 148.96 95.3096 150.337 94.709C151.729 94.0938 153.348 93.7861 155.193 93.7861C157.171 93.7861 158.914 94.1597 160.423 94.9067C161.946 95.6538 163.14 96.7378 164.004 98.1587C164.869 99.5796 165.293 101.301 165.279 103.322H158.313C158.328 102.604 158.218 101.96 157.984 101.389C157.75 100.817 157.383 100.363 156.885 100.026C156.402 99.6748 155.779 99.499 155.018 99.499C154.256 99.499 153.641 99.6675 153.172 100.004C152.703 100.341 152.344 100.81 152.095 101.411C151.861 101.997 151.7 102.67 151.612 103.432C151.539 104.194 151.502 105.007 151.502 105.871V106.376C151.502 107.255 151.539 108.083 151.612 108.859C151.7 109.621 151.868 110.295 152.117 110.881C152.366 111.452 152.725 111.906 153.194 112.243C153.663 112.565 154.285 112.727 155.062 112.727ZM175.694 84.25V118H168.289V84.25H175.694ZM174.815 105.3L173.079 105.344C173.079 103.674 173.284 102.136 173.694 100.729C174.104 99.3232 174.69 98.1001 175.452 97.0601C176.214 96.02 177.129 95.2144 178.199 94.6431C179.268 94.0718 180.455 93.7861 181.758 93.7861C182.93 93.7861 184 93.9546 184.966 94.2915C185.948 94.6284 186.79 95.1704 187.493 95.9175C188.211 96.6646 188.76 97.6387 189.141 98.8398C189.537 100.041 189.734 101.506 189.734 103.234V118H182.286V103.19C182.286 102.224 182.146 101.477 181.868 100.949C181.604 100.407 181.224 100.034 180.726 99.8286C180.228 99.6089 179.62 99.499 178.902 99.499C178.038 99.499 177.334 99.6455 176.792 99.9385C176.25 100.231 175.833 100.642 175.54 101.169C175.262 101.682 175.071 102.29 174.969 102.993C174.866 103.696 174.815 104.465 174.815 105.3ZM221.88 109.497C221.88 108.999 221.807 108.552 221.661 108.156C221.514 107.746 221.243 107.365 220.848 107.014C220.452 106.662 219.881 106.311 219.134 105.959C218.401 105.593 217.435 105.212 216.233 104.816C214.827 104.348 213.472 103.82 212.168 103.234C210.865 102.634 209.7 101.938 208.675 101.147C207.649 100.341 206.836 99.4038 206.236 98.3345C205.635 97.2505 205.335 95.9907 205.335 94.5552C205.335 93.1782 205.643 91.9404 206.258 90.8418C206.873 89.7285 207.73 88.7837 208.829 88.0073C209.942 87.2163 211.246 86.6157 212.74 86.2056C214.234 85.7808 215.867 85.5684 217.64 85.5684C219.983 85.5684 222.049 85.9785 223.836 86.7988C225.638 87.6045 227.044 88.7544 228.055 90.2485C229.08 91.728 229.593 93.4785 229.593 95.5H221.924C221.924 94.6943 221.756 93.9839 221.419 93.3687C221.097 92.7534 220.606 92.27 219.947 91.9185C219.288 91.5669 218.46 91.3911 217.464 91.3911C216.497 91.3911 215.684 91.5376 215.025 91.8306C214.366 92.1235 213.868 92.519 213.531 93.0171C213.194 93.5005 213.025 94.0352 213.025 94.6211C213.025 95.1045 213.157 95.5439 213.421 95.9395C213.699 96.3203 214.087 96.6792 214.585 97.0161C215.098 97.353 215.713 97.6753 216.431 97.9829C217.164 98.2905 217.984 98.5908 218.892 98.8838C220.591 99.4258 222.1 100.034 223.418 100.708C224.751 101.367 225.872 102.121 226.78 102.971C227.703 103.806 228.399 104.758 228.868 105.827C229.351 106.896 229.593 108.105 229.593 109.453C229.593 110.888 229.314 112.163 228.758 113.276C228.201 114.389 227.403 115.334 226.363 116.11C225.323 116.872 224.078 117.451 222.627 117.846C221.177 118.242 219.559 118.439 217.771 118.439C216.131 118.439 214.512 118.234 212.916 117.824C211.333 117.399 209.898 116.755 208.609 115.891C207.32 115.012 206.287 113.891 205.511 112.529C204.749 111.152 204.368 109.519 204.368 107.629H212.103C212.103 108.566 212.227 109.357 212.476 110.002C212.725 110.646 213.091 111.167 213.575 111.562C214.058 111.943 214.651 112.221 215.354 112.397C216.058 112.558 216.863 112.639 217.771 112.639C218.753 112.639 219.544 112.5 220.145 112.221C220.745 111.928 221.185 111.547 221.463 111.079C221.741 110.595 221.88 110.068 221.88 109.497ZM245.743 94.2256V99.3672H231.417V94.2256H245.743ZM234.427 88.3149H241.832V110.244C241.832 110.874 241.905 111.364 242.051 111.716C242.198 112.053 242.447 112.294 242.798 112.441C243.165 112.573 243.648 112.639 244.249 112.639C244.673 112.639 245.025 112.631 245.303 112.617C245.582 112.587 245.845 112.551 246.094 112.507V117.802C245.464 118.007 244.805 118.161 244.117 118.264C243.428 118.381 242.696 118.439 241.919 118.439C240.337 118.439 238.982 118.19 237.854 117.692C236.741 117.194 235.892 116.411 235.306 115.341C234.72 114.272 234.427 112.88 234.427 111.167V88.3149ZM261.036 112.023V102.224C261.036 101.55 260.94 100.971 260.75 100.488C260.56 100.004 260.259 99.6309 259.849 99.3672C259.439 99.0889 258.89 98.9497 258.201 98.9497C257.645 98.9497 257.168 99.0449 256.773 99.2354C256.377 99.4258 256.077 99.7114 255.872 100.092C255.667 100.473 255.564 100.957 255.564 101.542H248.16C248.16 100.444 248.401 99.4258 248.885 98.4883C249.383 97.5361 250.086 96.7085 250.994 96.0054C251.917 95.3022 253.016 94.7603 254.29 94.3794C255.579 93.9839 257.015 93.7861 258.597 93.7861C260.486 93.7861 262.171 94.1011 263.65 94.731C265.145 95.3608 266.324 96.3057 267.188 97.5654C268.052 98.8105 268.484 100.378 268.484 102.268V112.001C268.484 113.554 268.572 114.733 268.748 115.539C268.924 116.33 269.173 117.026 269.495 117.626V118H262.068C261.717 117.268 261.453 116.374 261.277 115.319C261.116 114.25 261.036 113.151 261.036 112.023ZM261.937 103.476L261.98 107.431H258.707C258.018 107.431 257.432 107.526 256.949 107.717C256.48 107.907 256.099 108.171 255.806 108.508C255.528 108.83 255.323 109.196 255.191 109.606C255.074 110.017 255.015 110.449 255.015 110.903C255.015 111.342 255.118 111.738 255.323 112.089C255.542 112.426 255.835 112.69 256.202 112.88C256.568 113.071 256.978 113.166 257.432 113.166C258.252 113.166 258.948 113.012 259.52 112.705C260.105 112.382 260.552 111.994 260.86 111.54C261.167 111.086 261.321 110.661 261.321 110.266L262.947 113.298C262.654 113.884 262.317 114.477 261.937 115.078C261.57 115.678 261.109 116.235 260.552 116.748C260.01 117.246 259.344 117.656 258.553 117.978C257.762 118.286 256.802 118.439 255.674 118.439C254.209 118.439 252.862 118.139 251.631 117.539C250.416 116.938 249.441 116.103 248.709 115.034C247.977 113.95 247.61 112.705 247.61 111.298C247.61 110.068 247.83 108.969 248.27 108.002C248.724 107.036 249.405 106.215 250.313 105.542C251.221 104.868 252.378 104.355 253.785 104.003C255.191 103.652 256.846 103.476 258.75 103.476H261.937ZM282.635 112.727C283.323 112.727 283.909 112.602 284.393 112.353C284.891 112.089 285.264 111.723 285.513 111.254C285.777 110.771 285.901 110.192 285.887 109.519H292.852C292.867 111.306 292.427 112.873 291.534 114.221C290.655 115.554 289.454 116.594 287.93 117.341C286.421 118.073 284.715 118.439 282.811 118.439C280.95 118.439 279.324 118.139 277.933 117.539C276.541 116.923 275.376 116.074 274.439 114.99C273.516 113.891 272.82 112.609 272.352 111.145C271.897 109.68 271.67 108.09 271.67 106.376V105.871C271.67 104.157 271.897 102.568 272.352 101.103C272.82 99.6235 273.516 98.3418 274.439 97.2578C275.376 96.1592 276.534 95.3096 277.911 94.709C279.302 94.0938 280.921 93.7861 282.767 93.7861C284.744 93.7861 286.487 94.1597 287.996 94.9067C289.52 95.6538 290.713 96.7378 291.578 98.1587C292.442 99.5796 292.867 101.301 292.852 103.322H285.887C285.901 102.604 285.792 101.96 285.557 101.389C285.323 100.817 284.957 100.363 284.458 100.026C283.975 99.6748 283.353 99.499 282.591 99.499C281.829 99.499 281.214 99.6675 280.745 100.004C280.276 100.341 279.917 100.81 279.668 101.411C279.434 101.997 279.273 102.67 279.185 103.432C279.112 104.194 279.075 105.007 279.075 105.871V106.376C279.075 107.255 279.112 108.083 279.185 108.859C279.273 109.621 279.441 110.295 279.69 110.881C279.939 111.452 280.298 111.906 280.767 112.243C281.236 112.565 281.858 112.727 282.635 112.727ZM303.487 84.228V118H296.082V84.228H303.487ZM318.692 94.2256L308.365 106.333L302.959 111.738L299.729 107.036L304.234 101.169L309.815 94.2256H318.692ZM310.76 118L304.41 107.167L309.881 103.278L319.241 118H310.76Z" fill="#424241"/>
<path d="M1363 15C1363 6.71573 1356.28 0 1348 0H1134V167H1348C1356.28 167 1363 160.284 1363 152V15Z" fill="#3AD514"/>
<path fill-rule="evenodd" clip-rule="evenodd" d="M1218.5 55C1218.37 55 1218.24 55.0527 1218.15 55.1464C1218.05 55.2402 1218 55.3674 1218 55.5V111.5C1218 111.633 1218.05 111.76 1218.15 111.854C1218.24 111.947 1218.37 112 1218.5 112H1278C1278.13 112 1278.26 111.947 1278.35 111.854C1278.45 111.76 1278.5 111.633 1278.5 111.5V66C1278.5 65.8674 1278.45 65.7402 1278.35 65.6464C1278.26 65.5527 1278.13 65.5 1278 65.5H1248.25C1247.36 65.5 1246.52 65.1045 1245.95 64.4206L1238.09 55H1218.5ZM1213.9 50.9038C1215.12 49.6848 1216.78 49 1218.5 49H1239.5C1240.39 49 1241.23 49.3955 1241.8 50.0794L1249.66 59.5H1278C1279.72 59.5 1281.38 60.1848 1282.6 61.4038C1283.82 62.6228 1284.5 64.2761 1284.5 66V111.5C1284.5 113.224 1283.82 114.877 1282.6 116.096C1281.38 117.315 1279.72 118 1278 118H1218.5C1216.78 118 1215.12 117.315 1213.9 116.096C1212.68 114.877 1212 113.224 1212 111.5V55.5C1212 53.7761 1212.68 52.1228 1213.9 50.9038Z" fill="white"/>
<path fill-rule="evenodd" clip-rule="evenodd" d="M1243.72 77.5251C1245.09 78.892 1245.09 81.108 1243.72 82.4749L1237.45 88.75L1243.72 95.0251C1245.09 96.392 1245.09 98.608 1243.72 99.9749C1242.36 101.342 1240.14 101.342 1238.78 99.9749L1230.03 91.2249C1228.66 89.858 1228.66 87.642 1230.03 86.2751L1238.78 77.5251C1240.14 76.1583 1242.36 76.1583 1243.72 77.5251Z" fill="white"/>
<path fill-rule="evenodd" clip-rule="evenodd" d="M1252.03 99.9749C1250.66 98.608 1250.66 96.392 1252.03 95.0251L1258.3 88.75L1252.03 82.4749C1250.66 81.108 1250.66 78.892 1252.03 77.5251C1253.39 76.1583 1255.61 76.1583 1256.97 77.5251L1265.72 86.2751C1267.09 87.642 1267.09 89.858 1265.72 91.2249L1256.97 99.9749C1255.61 101.342 1253.39 101.342 1252.03 99.9749Z" fill="white"/>
</svg>
