<svg width="1363" height="167" viewBox="0 0 1363 167" fill="none" xmlns="http://www.w3.org/2000/svg">
<rect width="1363" height="167" rx="15" fill="#F0F0F0"/>
<path d="M0 15C0 6.71573 6.71573 0 15 0H37V167H15C6.71573 167 0 160.284 0 152V15Z" fill="#424241"/>
<path d="M100.906 54.9219L93.3945 52.2383V49.0859L103.602 53.375V55.6367L100.906 54.9219ZM93.3945 57.1719L100.918 54.4297L103.602 53.7852V56.0352L93.3945 60.3242V57.1719ZM120.781 57.5352C120.781 57.2305 120.734 56.957 120.641 56.7148C120.555 56.4648 120.391 56.2383 120.148 56.0352C119.906 55.8242 119.566 55.6172 119.129 55.4141C118.691 55.2109 118.125 55 117.43 54.7812C116.656 54.5312 115.922 54.25 115.227 53.9375C114.539 53.625 113.93 53.2617 113.398 52.8477C112.875 52.4258 112.461 51.9375 112.156 51.3828C111.859 50.8281 111.711 50.1836 111.711 49.4492C111.711 48.7383 111.867 48.0938 112.18 47.5156C112.492 46.9297 112.93 46.4297 113.492 46.0156C114.055 45.5938 114.719 45.2695 115.484 45.043C116.258 44.8164 117.105 44.7031 118.027 44.7031C119.285 44.7031 120.383 44.9297 121.32 45.3828C122.258 45.8359 122.984 46.457 123.5 47.2461C124.023 48.0352 124.285 48.9375 124.285 49.9531H120.793C120.793 49.4531 120.688 49.0156 120.477 48.6406C120.273 48.2578 119.961 47.957 119.539 47.7383C119.125 47.5195 118.602 47.4102 117.969 47.4102C117.359 47.4102 116.852 47.5039 116.445 47.6914C116.039 47.8711 115.734 48.1172 115.531 48.4297C115.328 48.7344 115.227 49.0781 115.227 49.4609C115.227 49.75 115.297 50.0117 115.438 50.2461C115.586 50.4805 115.805 50.6992 116.094 50.9023C116.383 51.1055 116.738 51.2969 117.16 51.4766C117.582 51.6562 118.07 51.832 118.625 52.0039C119.555 52.2852 120.371 52.6016 121.074 52.9531C121.785 53.3047 122.379 53.6992 122.855 54.1367C123.332 54.5742 123.691 55.0703 123.934 55.625C124.176 56.1797 124.297 56.8086 124.297 57.5117C124.297 58.2539 124.152 58.918 123.863 59.5039C123.574 60.0898 123.156 60.5859 122.609 60.9922C122.062 61.3984 121.41 61.707 120.652 61.918C119.895 62.1289 119.047 62.2344 118.109 62.2344C117.266 62.2344 116.434 62.125 115.613 61.9062C114.793 61.6797 114.047 61.3398 113.375 60.8867C112.711 60.4336 112.18 59.8555 111.781 59.1523C111.383 58.4492 111.184 57.6172 111.184 56.6562H114.711C114.711 57.1875 114.793 57.6367 114.957 58.0039C115.121 58.3711 115.352 58.668 115.648 58.8945C115.953 59.1211 116.312 59.2852 116.727 59.3867C117.148 59.4883 117.609 59.5391 118.109 59.5391C118.719 59.5391 119.219 59.4531 119.609 59.2812C120.008 59.1094 120.301 58.8711 120.488 58.5664C120.684 58.2617 120.781 57.918 120.781 57.5352ZM129.852 51.7578V66.875H126.477V49.3203H129.605L129.852 51.7578ZM137.879 55.5195V55.7656C137.879 56.6875 137.77 57.543 137.551 58.332C137.34 59.1211 137.027 59.8086 136.613 60.3945C136.199 60.9727 135.684 61.4258 135.066 61.7539C134.457 62.0742 133.754 62.2344 132.957 62.2344C132.184 62.2344 131.512 62.0781 130.941 61.7656C130.371 61.4531 129.891 61.0156 129.5 60.4531C129.117 59.8828 128.809 59.2227 128.574 58.4727C128.34 57.7227 128.16 56.918 128.035 56.0586V55.4141C128.16 54.4922 128.34 53.6484 128.574 52.8828C128.809 52.1094 129.117 51.4414 129.5 50.8789C129.891 50.3086 130.367 49.8672 130.93 49.5547C131.5 49.2422 132.168 49.0859 132.934 49.0859C133.738 49.0859 134.445 49.2383 135.055 49.543C135.672 49.8477 136.188 50.2852 136.602 50.8555C137.023 51.4258 137.34 52.1055 137.551 52.8945C137.77 53.6836 137.879 54.5586 137.879 55.5195ZM134.492 55.7656V55.5195C134.492 54.9805 134.445 54.4844 134.352 54.0312C134.266 53.5703 134.125 53.168 133.93 52.8242C133.742 52.4805 133.492 52.2148 133.18 52.0273C132.875 51.832 132.504 51.7344 132.066 51.7344C131.605 51.7344 131.211 51.8086 130.883 51.957C130.562 52.1055 130.301 52.3203 130.098 52.6016C129.895 52.8828 129.742 53.2188 129.641 53.6094C129.539 54 129.477 54.4414 129.453 54.9336V56.5625C129.492 57.1406 129.602 57.6602 129.781 58.1211C129.961 58.5742 130.238 58.9336 130.613 59.1992C130.988 59.4648 131.48 59.5977 132.09 59.5977C132.535 59.5977 132.91 59.5 133.215 59.3047C133.52 59.1016 133.766 58.8242 133.953 58.4727C134.148 58.1211 134.285 57.7148 134.363 57.2539C134.449 56.793 134.492 56.2969 134.492 55.7656ZM139.438 55.7891V55.543C139.438 54.6133 139.57 53.7578 139.836 52.9766C140.102 52.1875 140.488 51.5039 140.996 50.9258C141.504 50.3477 142.129 49.8984 142.871 49.5781C143.613 49.25 144.465 49.0859 145.426 49.0859C146.387 49.0859 147.242 49.25 147.992 49.5781C148.742 49.8984 149.371 50.3477 149.879 50.9258C150.395 51.5039 150.785 52.1875 151.051 52.9766C151.316 53.7578 151.449 54.6133 151.449 55.543V55.7891C151.449 56.7109 151.316 57.5664 151.051 58.3555C150.785 59.1367 150.395 59.8203 149.879 60.4062C149.371 60.9844 148.746 61.4336 148.004 61.7539C147.262 62.0742 146.41 62.2344 145.449 62.2344C144.488 62.2344 143.633 62.0742 142.883 61.7539C142.141 61.4336 141.512 60.9844 140.996 60.4062C140.488 59.8203 140.102 59.1367 139.836 58.3555C139.57 57.5664 139.438 56.7109 139.438 55.7891ZM142.812 55.543V55.7891C142.812 56.3203 142.859 56.8164 142.953 57.2773C143.047 57.7383 143.195 58.1445 143.398 58.4961C143.609 58.8398 143.883 59.1094 144.219 59.3047C144.555 59.5 144.965 59.5977 145.449 59.5977C145.918 59.5977 146.32 59.5 146.656 59.3047C146.992 59.1094 147.262 58.8398 147.465 58.4961C147.668 58.1445 147.816 57.7383 147.91 57.2773C148.012 56.8164 148.062 56.3203 148.062 55.7891V55.543C148.062 55.0273 148.012 54.543 147.91 54.0898C147.816 53.6289 147.664 53.2227 147.453 52.8711C147.25 52.5117 146.98 52.2305 146.645 52.0273C146.309 51.8242 145.902 51.7227 145.426 51.7227C144.949 51.7227 144.543 51.8242 144.207 52.0273C143.879 52.2305 143.609 52.5117 143.398 52.8711C143.195 53.2227 143.047 53.6289 142.953 54.0898C142.859 54.543 142.812 55.0273 142.812 55.543ZM159.734 49.3203V51.7109H152.352V49.3203H159.734ZM154.18 46.1914H157.555V58.1797C157.555 58.5469 157.602 58.8281 157.695 59.0234C157.797 59.2188 157.945 59.3555 158.141 59.4336C158.336 59.5039 158.582 59.5391 158.879 59.5391C159.09 59.5391 159.277 59.5312 159.441 59.5156C159.613 59.4922 159.758 59.4688 159.875 59.4453L159.887 61.9297C159.598 62.0234 159.285 62.0977 158.949 62.1523C158.613 62.207 158.242 62.2344 157.836 62.2344C157.094 62.2344 156.445 62.1133 155.891 61.8711C155.344 61.6211 154.922 61.2227 154.625 60.6758C154.328 60.1289 154.18 59.4102 154.18 58.5195V46.1914ZM165.219 49.3203V62H161.832V49.3203H165.219ZM161.621 46.0156C161.621 45.5234 161.793 45.1172 162.137 44.7969C162.48 44.4766 162.941 44.3164 163.52 44.3164C164.09 44.3164 164.547 44.4766 164.891 44.7969C165.242 45.1172 165.418 45.5234 165.418 46.0156C165.418 46.5078 165.242 46.9141 164.891 47.2344C164.547 47.5547 164.09 47.7148 163.52 47.7148C162.941 47.7148 162.48 47.5547 162.137 47.2344C161.793 46.9141 161.621 46.5078 161.621 46.0156ZM172.309 62H168.91V48.1953C168.91 47.2344 169.098 46.4258 169.473 45.7695C169.855 45.1055 170.391 44.6055 171.078 44.2695C171.773 43.9258 172.598 43.7539 173.551 43.7539C173.863 43.7539 174.164 43.7773 174.453 43.8242C174.742 43.8633 175.023 43.9141 175.297 43.9766L175.262 46.5195C175.113 46.4805 174.957 46.4531 174.793 46.4375C174.629 46.4219 174.438 46.4141 174.219 46.4141C173.812 46.4141 173.465 46.4844 173.176 46.625C172.895 46.7578 172.68 46.957 172.531 47.2227C172.383 47.4883 172.309 47.8125 172.309 48.1953V62ZM174.84 49.3203V51.7109H167.023V49.3203H174.84ZM180.371 60.5703L183.734 49.3203H187.355L182.258 63.9102C182.148 64.2305 182 64.5742 181.812 64.9414C181.633 65.3086 181.387 65.6562 181.074 65.9844C180.77 66.3203 180.383 66.5938 179.914 66.8047C179.453 67.0156 178.887 67.1211 178.215 67.1211C177.895 67.1211 177.633 67.1016 177.43 67.0625C177.227 67.0234 176.984 66.9688 176.703 66.8984V64.4258C176.789 64.4258 176.879 64.4258 176.973 64.4258C177.066 64.4336 177.156 64.4375 177.242 64.4375C177.688 64.4375 178.051 64.3867 178.332 64.2852C178.613 64.1836 178.84 64.0273 179.012 63.8164C179.184 63.6133 179.32 63.3477 179.422 63.0195L180.371 60.5703ZM178.965 49.3203L181.719 58.5078L182.199 62.082L179.902 62.3281L175.344 49.3203H178.965ZM204.781 56.3398H208.285C208.215 57.4883 207.898 58.5078 207.336 59.3984C206.781 60.2891 206.004 60.9844 205.004 61.4844C204.012 61.9844 202.816 62.2344 201.418 62.2344C200.324 62.2344 199.344 62.0469 198.477 61.6719C197.609 61.2891 196.867 60.7422 196.25 60.0312C195.641 59.3203 195.176 58.4609 194.855 57.4531C194.535 56.4453 194.375 55.3164 194.375 54.0664V52.8828C194.375 51.6328 194.539 50.5039 194.867 49.4961C195.203 48.4805 195.68 47.6172 196.297 46.9062C196.922 46.1953 197.668 45.6484 198.535 45.2656C199.402 44.8828 200.371 44.6914 201.441 44.6914C202.863 44.6914 204.062 44.9492 205.039 45.4648C206.023 45.9805 206.785 46.6914 207.324 47.5977C207.871 48.5039 208.199 49.5352 208.309 50.6914H204.793C204.754 50.0039 204.617 49.4219 204.383 48.9453C204.148 48.4609 203.793 48.0977 203.316 47.8555C202.848 47.6055 202.223 47.4805 201.441 47.4805C200.855 47.4805 200.344 47.5898 199.906 47.8086C199.469 48.0273 199.102 48.3594 198.805 48.8047C198.508 49.25 198.285 49.8125 198.137 50.4922C197.996 51.1641 197.926 51.9531 197.926 52.8594V54.0664C197.926 54.9492 197.992 55.7266 198.125 56.3984C198.258 57.0625 198.461 57.625 198.734 58.0859C199.016 58.5391 199.375 58.8828 199.812 59.1172C200.258 59.3438 200.793 59.457 201.418 59.457C202.152 59.457 202.758 59.3398 203.234 59.1055C203.711 58.8711 204.074 58.5234 204.324 58.0625C204.582 57.6016 204.734 57.0273 204.781 56.3398ZM213.676 44V62H210.301V44H213.676ZM213.195 55.2148H212.27C212.277 54.332 212.395 53.5195 212.621 52.7773C212.848 52.0273 213.172 51.3789 213.594 50.832C214.016 50.2773 214.52 49.8477 215.105 49.543C215.699 49.2383 216.355 49.0859 217.074 49.0859C217.699 49.0859 218.266 49.1758 218.773 49.3555C219.289 49.5273 219.73 49.8086 220.098 50.1992C220.473 50.582 220.762 51.0859 220.965 51.7109C221.168 52.3359 221.27 53.0938 221.27 53.9844V62H217.871V53.9609C217.871 53.3984 217.789 52.957 217.625 52.6367C217.469 52.3086 217.238 52.0781 216.934 51.9453C216.637 51.8047 216.27 51.7344 215.832 51.7344C215.348 51.7344 214.934 51.8242 214.59 52.0039C214.254 52.1836 213.984 52.4336 213.781 52.7539C213.578 53.0664 213.43 53.4336 213.336 53.8555C213.242 54.2773 213.195 54.7305 213.195 55.2148ZM230.68 59.1406V53.4922C230.68 53.0859 230.613 52.7383 230.48 52.4492C230.348 52.1523 230.141 51.9219 229.859 51.7578C229.586 51.5938 229.23 51.5117 228.793 51.5117C228.418 51.5117 228.094 51.5781 227.82 51.7109C227.547 51.8359 227.336 52.0195 227.188 52.2617C227.039 52.4961 226.965 52.7734 226.965 53.0938H223.59C223.59 52.5547 223.715 52.043 223.965 51.5586C224.215 51.0742 224.578 50.6484 225.055 50.2812C225.531 49.9062 226.098 49.6133 226.754 49.4023C227.418 49.1914 228.16 49.0859 228.98 49.0859C229.965 49.0859 230.84 49.25 231.605 49.5781C232.371 49.9062 232.973 50.3984 233.41 51.0547C233.855 51.7109 234.078 52.5312 234.078 53.5156V58.9414C234.078 59.6367 234.121 60.207 234.207 60.6523C234.293 61.0898 234.418 61.4727 234.582 61.8008V62H231.172C231.008 61.6562 230.883 61.2266 230.797 60.7109C230.719 60.1875 230.68 59.6641 230.68 59.1406ZM231.125 54.2773L231.148 56.1875H229.262C228.816 56.1875 228.43 56.2383 228.102 56.3398C227.773 56.4414 227.504 56.5859 227.293 56.7734C227.082 56.9531 226.926 57.1641 226.824 57.4062C226.73 57.6484 226.684 57.9141 226.684 58.2031C226.684 58.4922 226.75 58.7539 226.883 58.9883C227.016 59.2148 227.207 59.3945 227.457 59.5273C227.707 59.6523 228 59.7148 228.336 59.7148C228.844 59.7148 229.285 59.6133 229.66 59.4102C230.035 59.207 230.324 58.957 230.527 58.6602C230.738 58.3633 230.848 58.082 230.855 57.8164L231.746 59.2461C231.621 59.5664 231.449 59.8984 231.23 60.2422C231.02 60.5859 230.75 60.9102 230.422 61.2148C230.094 61.5117 229.699 61.7578 229.238 61.9531C228.777 62.1406 228.23 62.2344 227.598 62.2344C226.793 62.2344 226.062 62.0742 225.406 61.7539C224.758 61.4258 224.242 60.9766 223.859 60.4062C223.484 59.8281 223.297 59.1719 223.297 58.4375C223.297 57.7734 223.422 57.1836 223.672 56.668C223.922 56.1523 224.289 55.7188 224.773 55.3672C225.266 55.0078 225.879 54.7383 226.613 54.5586C227.348 54.3711 228.199 54.2773 229.168 54.2773H231.125ZM240.242 44V62H236.855V44H240.242ZM246.594 44V62H243.207V44H246.594ZM255.219 62.2344C254.234 62.2344 253.352 62.0781 252.57 61.7656C251.789 61.4453 251.125 61.0039 250.578 60.4414C250.039 59.8789 249.625 59.2266 249.336 58.4844C249.047 57.7344 248.902 56.9375 248.902 56.0938V55.625C248.902 54.6641 249.039 53.7852 249.312 52.9883C249.586 52.1914 249.977 51.5 250.484 50.9141C251 50.3281 251.625 49.8789 252.359 49.5664C253.094 49.2461 253.922 49.0859 254.844 49.0859C255.742 49.0859 256.539 49.2344 257.234 49.5312C257.93 49.8281 258.512 50.25 258.98 50.7969C259.457 51.3438 259.816 52 260.059 52.7656C260.301 53.5234 260.422 54.3672 260.422 55.2969V56.7031H250.344V54.4531H257.105V54.1953C257.105 53.7266 257.02 53.3086 256.848 52.9414C256.684 52.5664 256.434 52.2695 256.098 52.0508C255.762 51.832 255.332 51.7227 254.809 51.7227C254.363 51.7227 253.98 51.8203 253.66 52.0156C253.34 52.2109 253.078 52.4844 252.875 52.8359C252.68 53.1875 252.531 53.6016 252.43 54.0781C252.336 54.5469 252.289 55.0625 252.289 55.625V56.0938C252.289 56.6016 252.359 57.0703 252.5 57.5C252.648 57.9297 252.855 58.3008 253.121 58.6133C253.395 58.9258 253.723 59.168 254.105 59.3398C254.496 59.5117 254.938 59.5977 255.43 59.5977C256.039 59.5977 256.605 59.4805 257.129 59.2461C257.66 59.0039 258.117 58.6406 258.5 58.1562L260.141 59.9375C259.875 60.3203 259.512 60.6875 259.051 61.0391C258.598 61.3906 258.051 61.6797 257.41 61.9062C256.77 62.125 256.039 62.2344 255.219 62.2344ZM265.648 52.0273V62H262.273V49.3203H265.438L265.648 52.0273ZM265.156 55.2148H264.242C264.242 54.2773 264.363 53.4336 264.605 52.6836C264.848 51.9258 265.188 51.2812 265.625 50.75C266.062 50.2109 266.582 49.8008 267.184 49.5195C267.793 49.2305 268.473 49.0859 269.223 49.0859C269.816 49.0859 270.359 49.1719 270.852 49.3438C271.344 49.5156 271.766 49.7891 272.117 50.1641C272.477 50.5391 272.75 51.0352 272.938 51.6523C273.133 52.2695 273.23 53.0234 273.23 53.9141V62H269.832V53.9023C269.832 53.3398 269.754 52.9023 269.598 52.5898C269.441 52.2773 269.211 52.0586 268.906 51.9336C268.609 51.8008 268.242 51.7344 267.805 51.7344C267.352 51.7344 266.957 51.8242 266.621 52.0039C266.293 52.1836 266.02 52.4336 265.801 52.7539C265.59 53.0664 265.43 53.4336 265.32 53.8555C265.211 54.2773 265.156 54.7305 265.156 55.2148ZM283.824 49.3203H286.883V61.5781C286.883 62.7344 286.625 63.7148 286.109 64.5195C285.602 65.332 284.891 65.9453 283.977 66.3594C283.062 66.7812 282 66.9922 280.789 66.9922C280.258 66.9922 279.695 66.9219 279.102 66.7812C278.516 66.6406 277.953 66.4219 277.414 66.125C276.883 65.8281 276.438 65.4531 276.078 65L277.566 63.0078C277.957 63.4609 278.41 63.8125 278.926 64.0625C279.441 64.3203 280.012 64.4492 280.637 64.4492C281.246 64.4492 281.762 64.3359 282.184 64.1094C282.605 63.8906 282.93 63.5664 283.156 63.1367C283.383 62.7148 283.496 62.2031 283.496 61.6016V52.25L283.824 49.3203ZM275.293 55.8125V55.5664C275.293 54.5977 275.41 53.7188 275.645 52.9297C275.887 52.1328 276.227 51.4492 276.664 50.8789C277.109 50.3086 277.648 49.8672 278.281 49.5547C278.914 49.2422 279.629 49.0859 280.426 49.0859C281.27 49.0859 281.977 49.2422 282.547 49.5547C283.117 49.8672 283.586 50.3125 283.953 50.8906C284.32 51.4609 284.605 52.1367 284.809 52.918C285.02 53.6914 285.184 54.5391 285.301 55.4609V56C285.184 56.8828 285.008 57.7031 284.773 58.4609C284.539 59.2188 284.23 59.8828 283.848 60.4531C283.465 61.0156 282.988 61.4531 282.418 61.7656C281.855 62.0781 281.184 62.2344 280.402 62.2344C279.621 62.2344 278.914 62.0742 278.281 61.7539C277.656 61.4336 277.121 60.9844 276.676 60.4062C276.23 59.8281 275.887 59.1484 275.645 58.3672C275.41 57.5859 275.293 56.7344 275.293 55.8125ZM278.668 55.5664V55.8125C278.668 56.3359 278.719 56.8242 278.82 57.2773C278.922 57.7305 279.078 58.1328 279.289 58.4844C279.508 58.8281 279.777 59.0977 280.098 59.293C280.426 59.4805 280.812 59.5742 281.258 59.5742C281.875 59.5742 282.379 59.4453 282.77 59.1875C283.16 58.9219 283.453 58.5586 283.648 58.0977C283.844 57.6367 283.957 57.1055 283.988 56.5039V54.9688C283.973 54.4766 283.906 54.0352 283.789 53.6445C283.672 53.2461 283.508 52.9062 283.297 52.625C283.086 52.3438 282.812 52.125 282.477 51.9688C282.141 51.8125 281.742 51.7344 281.281 51.7344C280.836 51.7344 280.449 51.8359 280.121 52.0391C279.801 52.2344 279.531 52.5039 279.312 52.8477C279.102 53.1914 278.941 53.5977 278.832 54.0664C278.723 54.5273 278.668 55.0273 278.668 55.5664ZM295.344 62.2344C294.359 62.2344 293.477 62.0781 292.695 61.7656C291.914 61.4453 291.25 61.0039 290.703 60.4414C290.164 59.8789 289.75 59.2266 289.461 58.4844C289.172 57.7344 289.027 56.9375 289.027 56.0938V55.625C289.027 54.6641 289.164 53.7852 289.438 52.9883C289.711 52.1914 290.102 51.5 290.609 50.9141C291.125 50.3281 291.75 49.8789 292.484 49.5664C293.219 49.2461 294.047 49.0859 294.969 49.0859C295.867 49.0859 296.664 49.2344 297.359 49.5312C298.055 49.8281 298.637 50.25 299.105 50.7969C299.582 51.3438 299.941 52 300.184 52.7656C300.426 53.5234 300.547 54.3672 300.547 55.2969V56.7031H290.469V54.4531H297.23V54.1953C297.23 53.7266 297.145 53.3086 296.973 52.9414C296.809 52.5664 296.559 52.2695 296.223 52.0508C295.887 51.832 295.457 51.7227 294.934 51.7227C294.488 51.7227 294.105 51.8203 293.785 52.0156C293.465 52.2109 293.203 52.4844 293 52.8359C292.805 53.1875 292.656 53.6016 292.555 54.0781C292.461 54.5469 292.414 55.0625 292.414 55.625V56.0938C292.414 56.6016 292.484 57.0703 292.625 57.5C292.773 57.9297 292.98 58.3008 293.246 58.6133C293.52 58.9258 293.848 59.168 294.23 59.3398C294.621 59.5117 295.062 59.5977 295.555 59.5977C296.164 59.5977 296.73 59.4805 297.254 59.2461C297.785 59.0039 298.242 58.6406 298.625 58.1562L300.266 59.9375C300 60.3203 299.637 60.6875 299.176 61.0391C298.723 61.3906 298.176 61.6797 297.535 61.9062C296.895 62.125 296.164 62.2344 295.344 62.2344ZM317.785 62V64.5664H307.145V62H317.785ZM332.258 47.8555L327.617 62H323.879L330.219 44.9375H332.598L332.258 47.8555ZM336.113 62L331.461 47.8555L331.086 44.9375H333.488L339.863 62H336.113ZM335.902 55.6484V58.4023H326.891V55.6484H335.902ZM344.164 52.0273V62H340.789V49.3203H343.953L344.164 52.0273ZM343.672 55.2148H342.758C342.758 54.2773 342.879 53.4336 343.121 52.6836C343.363 51.9258 343.703 51.2812 344.141 50.75C344.578 50.2109 345.098 49.8008 345.699 49.5195C346.309 49.2305 346.988 49.0859 347.738 49.0859C348.332 49.0859 348.875 49.1719 349.367 49.3438C349.859 49.5156 350.281 49.7891 350.633 50.1641C350.992 50.5391 351.266 51.0352 351.453 51.6523C351.648 52.2695 351.746 53.0234 351.746 53.9141V62H348.348V53.9023C348.348 53.3398 348.27 52.9023 348.113 52.5898C347.957 52.2773 347.727 52.0586 347.422 51.9336C347.125 51.8008 346.758 51.7344 346.32 51.7344C345.867 51.7344 345.473 51.8242 345.137 52.0039C344.809 52.1836 344.535 52.4336 344.316 52.7539C344.105 53.0664 343.945 53.4336 343.836 53.8555C343.727 54.2773 343.672 54.7305 343.672 55.2148ZM362.34 49.3203H365.398V61.5781C365.398 62.7344 365.141 63.7148 364.625 64.5195C364.117 65.332 363.406 65.9453 362.492 66.3594C361.578 66.7812 360.516 66.9922 359.305 66.9922C358.773 66.9922 358.211 66.9219 357.617 66.7812C357.031 66.6406 356.469 66.4219 355.93 66.125C355.398 65.8281 354.953 65.4531 354.594 65L356.082 63.0078C356.473 63.4609 356.926 63.8125 357.441 64.0625C357.957 64.3203 358.527 64.4492 359.152 64.4492C359.762 64.4492 360.277 64.3359 360.699 64.1094C361.121 63.8906 361.445 63.5664 361.672 63.1367C361.898 62.7148 362.012 62.2031 362.012 61.6016V52.25L362.34 49.3203ZM353.809 55.8125V55.5664C353.809 54.5977 353.926 53.7188 354.16 52.9297C354.402 52.1328 354.742 51.4492 355.18 50.8789C355.625 50.3086 356.164 49.8672 356.797 49.5547C357.43 49.2422 358.145 49.0859 358.941 49.0859C359.785 49.0859 360.492 49.2422 361.062 49.5547C361.633 49.8672 362.102 50.3125 362.469 50.8906C362.836 51.4609 363.121 52.1367 363.324 52.918C363.535 53.6914 363.699 54.5391 363.816 55.4609V56C363.699 56.8828 363.523 57.7031 363.289 58.4609C363.055 59.2188 362.746 59.8828 362.363 60.4531C361.98 61.0156 361.504 61.4531 360.934 61.7656C360.371 62.0781 359.699 62.2344 358.918 62.2344C358.137 62.2344 357.43 62.0742 356.797 61.7539C356.172 61.4336 355.637 60.9844 355.191 60.4062C354.746 59.8281 354.402 59.1484 354.16 58.3672C353.926 57.5859 353.809 56.7344 353.809 55.8125ZM357.184 55.5664V55.8125C357.184 56.3359 357.234 56.8242 357.336 57.2773C357.438 57.7305 357.594 58.1328 357.805 58.4844C358.023 58.8281 358.293 59.0977 358.613 59.293C358.941 59.4805 359.328 59.5742 359.773 59.5742C360.391 59.5742 360.895 59.4453 361.285 59.1875C361.676 58.9219 361.969 58.5586 362.164 58.0977C362.359 57.6367 362.473 57.1055 362.504 56.5039V54.9688C362.488 54.4766 362.422 54.0352 362.305 53.6445C362.188 53.2461 362.023 52.9062 361.812 52.625C361.602 52.3438 361.328 52.125 360.992 51.9688C360.656 51.8125 360.258 51.7344 359.797 51.7344C359.352 51.7344 358.965 51.8359 358.637 52.0391C358.316 52.2344 358.047 52.5039 357.828 52.8477C357.617 53.1914 357.457 53.5977 357.348 54.0664C357.238 54.5273 357.184 55.0273 357.184 55.5664ZM375.523 58.9648V49.3203H378.898V62H375.723L375.523 58.9648ZM375.898 56.3633L376.895 56.3398C376.895 57.1836 376.797 57.9688 376.602 58.6953C376.406 59.4141 376.113 60.0391 375.723 60.5703C375.332 61.0938 374.84 61.5039 374.246 61.8008C373.652 62.0898 372.953 62.2344 372.148 62.2344C371.531 62.2344 370.961 62.1484 370.438 61.9766C369.922 61.7969 369.477 61.5195 369.102 61.1445C368.734 60.7617 368.445 60.2734 368.234 59.6797C368.031 59.0781 367.93 58.3555 367.93 57.5117V49.3203H371.305V57.5352C371.305 57.9102 371.348 58.2266 371.434 58.4844C371.527 58.7422 371.656 58.9531 371.82 59.1172C371.984 59.2812 372.176 59.3984 372.395 59.4688C372.621 59.5391 372.871 59.5742 373.145 59.5742C373.84 59.5742 374.387 59.4336 374.785 59.1523C375.191 58.8711 375.477 58.4883 375.641 58.0039C375.812 57.5117 375.898 56.9648 375.898 56.3633ZM385.039 44V62H381.652V44H385.039ZM394.672 59.1406V53.4922C394.672 53.0859 394.605 52.7383 394.473 52.4492C394.34 52.1523 394.133 51.9219 393.852 51.7578C393.578 51.5938 393.223 51.5117 392.785 51.5117C392.41 51.5117 392.086 51.5781 391.812 51.7109C391.539 51.8359 391.328 52.0195 391.18 52.2617C391.031 52.4961 390.957 52.7734 390.957 53.0938H387.582C387.582 52.5547 387.707 52.043 387.957 51.5586C388.207 51.0742 388.57 50.6484 389.047 50.2812C389.523 49.9062 390.09 49.6133 390.746 49.4023C391.41 49.1914 392.152 49.0859 392.973 49.0859C393.957 49.0859 394.832 49.25 395.598 49.5781C396.363 49.9062 396.965 50.3984 397.402 51.0547C397.848 51.7109 398.07 52.5312 398.07 53.5156V58.9414C398.07 59.6367 398.113 60.207 398.199 60.6523C398.285 61.0898 398.41 61.4727 398.574 61.8008V62H395.164C395 61.6562 394.875 61.2266 394.789 60.7109C394.711 60.1875 394.672 59.6641 394.672 59.1406ZM395.117 54.2773L395.141 56.1875H393.254C392.809 56.1875 392.422 56.2383 392.094 56.3398C391.766 56.4414 391.496 56.5859 391.285 56.7734C391.074 56.9531 390.918 57.1641 390.816 57.4062C390.723 57.6484 390.676 57.9141 390.676 58.2031C390.676 58.4922 390.742 58.7539 390.875 58.9883C391.008 59.2148 391.199 59.3945 391.449 59.5273C391.699 59.6523 391.992 59.7148 392.328 59.7148C392.836 59.7148 393.277 59.6133 393.652 59.4102C394.027 59.207 394.316 58.957 394.52 58.6602C394.73 58.3633 394.84 58.082 394.848 57.8164L395.738 59.2461C395.613 59.5664 395.441 59.8984 395.223 60.2422C395.012 60.5859 394.742 60.9102 394.414 61.2148C394.086 61.5117 393.691 61.7578 393.23 61.9531C392.77 62.1406 392.223 62.2344 391.59 62.2344C390.785 62.2344 390.055 62.0742 389.398 61.7539C388.75 61.4258 388.234 60.9766 387.852 60.4062C387.477 59.8281 387.289 59.1719 387.289 58.4375C387.289 57.7734 387.414 57.1836 387.664 56.668C387.914 56.1523 388.281 55.7188 388.766 55.3672C389.258 55.0078 389.871 54.7383 390.605 54.5586C391.34 54.3711 392.191 54.2773 393.16 54.2773H395.117ZM404.047 52.0859V62H400.672V49.3203H403.848L404.047 52.0859ZM407.867 49.2383L407.809 52.3672C407.645 52.3438 407.445 52.3242 407.211 52.3086C406.984 52.2852 406.777 52.2734 406.59 52.2734C406.113 52.2734 405.699 52.3359 405.348 52.4609C405.004 52.5781 404.715 52.7539 404.48 52.9883C404.254 53.2227 404.082 53.5078 403.965 53.8438C403.855 54.1797 403.793 54.5625 403.777 54.9922L403.098 54.7812C403.098 53.9609 403.18 53.207 403.344 52.5195C403.508 51.8242 403.746 51.2188 404.059 50.7031C404.379 50.1875 404.77 49.7891 405.23 49.5078C405.691 49.2266 406.219 49.0859 406.812 49.0859C407 49.0859 407.191 49.1016 407.387 49.1328C407.582 49.1562 407.742 49.1914 407.867 49.2383Z" fill="#888888"/>
<path d="M107.205 107.146H99.251V101.191H107.205C108.289 101.191 109.168 101.008 109.842 100.642C110.516 100.275 111.006 99.77 111.314 99.1255C111.636 98.4663 111.797 97.7266 111.797 96.9062C111.797 96.0273 111.636 95.2144 111.314 94.4673C111.006 93.7202 110.516 93.1196 109.842 92.6655C109.168 92.1968 108.289 91.9624 107.205 91.9624H102.151V118H94.439V86.0078H107.205C109.769 86.0078 111.973 86.4766 113.819 87.4141C115.679 88.3516 117.107 89.6406 118.104 91.2812C119.1 92.9072 119.598 94.7676 119.598 96.8623C119.598 98.9277 119.1 100.729 118.104 102.268C117.107 103.806 115.679 105.007 113.819 105.871C111.973 106.721 109.769 107.146 107.205 107.146ZM130.87 100.114V118H123.465V94.2256H130.386L130.87 100.114ZM137.901 94.0498L137.769 100.927C137.476 100.898 137.081 100.861 136.583 100.817C136.084 100.773 135.667 100.751 135.33 100.751C134.466 100.751 133.719 100.854 133.089 101.059C132.474 101.25 131.961 101.542 131.551 101.938C131.155 102.319 130.862 102.802 130.672 103.388C130.496 103.974 130.416 104.655 130.43 105.432L129.09 104.553C129.09 102.956 129.244 101.506 129.551 100.202C129.874 98.8838 130.328 97.7485 130.914 96.7964C131.5 95.8296 132.21 95.0898 133.045 94.5771C133.88 94.0498 134.817 93.7861 135.857 93.7861C136.224 93.7861 136.583 93.8081 136.934 93.8521C137.3 93.896 137.623 93.9619 137.901 94.0498ZM138.736 106.354V105.893C138.736 104.15 138.985 102.546 139.483 101.081C139.981 99.6016 140.713 98.3198 141.68 97.2358C142.647 96.1519 143.841 95.3096 145.262 94.709C146.683 94.0938 148.323 93.7861 150.184 93.7861C152.059 93.7861 153.707 94.0938 155.127 94.709C156.563 95.3096 157.764 96.1519 158.731 97.2358C159.698 98.3198 160.43 99.6016 160.928 101.081C161.426 102.546 161.675 104.15 161.675 105.893V106.354C161.675 108.083 161.426 109.687 160.928 111.167C160.43 112.631 159.698 113.913 158.731 115.012C157.764 116.096 156.57 116.938 155.149 117.539C153.729 118.139 152.088 118.439 150.228 118.439C148.367 118.439 146.719 118.139 145.284 117.539C143.848 116.938 142.647 116.096 141.68 115.012C140.713 113.913 139.981 112.631 139.483 111.167C138.985 109.687 138.736 108.083 138.736 106.354ZM146.141 105.893V106.354C146.141 107.248 146.207 108.083 146.338 108.859C146.47 109.636 146.69 110.317 146.998 110.903C147.305 111.474 147.723 111.921 148.25 112.243C148.777 112.565 149.437 112.727 150.228 112.727C151.004 112.727 151.648 112.565 152.161 112.243C152.688 111.921 153.106 111.474 153.414 110.903C153.721 110.317 153.941 109.636 154.073 108.859C154.205 108.083 154.271 107.248 154.271 106.354V105.893C154.271 105.029 154.205 104.216 154.073 103.454C153.941 102.678 153.721 101.997 153.414 101.411C153.106 100.81 152.688 100.341 152.161 100.004C151.634 99.6675 150.975 99.499 150.184 99.499C149.407 99.499 148.755 99.6675 148.228 100.004C147.715 100.341 147.305 100.81 146.998 101.411C146.69 101.997 146.47 102.678 146.338 103.454C146.207 104.216 146.141 105.029 146.141 105.893ZM165.521 94.2256H172.947V118.769C172.947 120.673 172.581 122.277 171.849 123.581C171.116 124.899 170.069 125.896 168.707 126.569C167.344 127.258 165.718 127.602 163.829 127.602C163.199 127.602 162.62 127.573 162.093 127.514C161.551 127.47 160.958 127.375 160.313 127.229V121.625C160.694 121.684 161.045 121.728 161.368 121.757C161.69 121.801 162.042 121.823 162.422 121.823C163.096 121.823 163.66 121.713 164.114 121.494C164.568 121.274 164.913 120.937 165.147 120.483C165.396 120.029 165.521 119.458 165.521 118.769V94.2256ZM164.971 88.0952C164.971 87.0405 165.352 86.1763 166.114 85.5024C166.875 84.8286 167.864 84.4917 169.08 84.4917C170.296 84.4917 171.285 84.8286 172.046 85.5024C172.808 86.1763 173.189 87.0405 173.189 88.0952C173.189 89.1499 172.808 90.0142 172.046 90.688C171.285 91.3618 170.296 91.6987 169.08 91.6987C167.864 91.6987 166.875 91.3618 166.114 90.688C165.352 90.0142 164.971 89.1499 164.971 88.0952ZM188.658 118.439C186.724 118.439 184.996 118.139 183.472 117.539C181.949 116.923 180.66 116.081 179.605 115.012C178.565 113.942 177.767 112.712 177.21 111.32C176.668 109.929 176.397 108.457 176.397 106.904V106.069C176.397 104.326 176.639 102.714 177.122 101.235C177.605 99.7407 178.323 98.437 179.275 97.3237C180.228 96.2104 181.421 95.3462 182.857 94.731C184.292 94.1011 185.962 93.7861 187.867 93.7861C189.551 93.7861 191.06 94.0571 192.393 94.5991C193.726 95.1411 194.854 95.9175 195.777 96.9282C196.714 97.939 197.425 99.1621 197.908 100.598C198.406 102.033 198.655 103.645 198.655 105.432V108.442H179.231V103.806H191.426V103.234C191.441 102.443 191.302 101.77 191.009 101.213C190.73 100.656 190.32 100.231 189.778 99.9385C189.236 99.6455 188.577 99.499 187.801 99.499C186.995 99.499 186.329 99.6748 185.801 100.026C185.289 100.378 184.886 100.861 184.593 101.477C184.314 102.077 184.117 102.773 184 103.564C183.882 104.355 183.824 105.19 183.824 106.069V106.904C183.824 107.783 183.941 108.581 184.175 109.299C184.424 110.017 184.776 110.632 185.23 111.145C185.699 111.643 186.255 112.031 186.9 112.309C187.559 112.587 188.306 112.727 189.141 112.727C190.152 112.727 191.148 112.536 192.129 112.155C193.111 111.774 193.953 111.145 194.656 110.266L198.018 114.265C197.535 114.953 196.846 115.62 195.953 116.264C195.074 116.909 194.019 117.436 192.789 117.846C191.558 118.242 190.181 118.439 188.658 118.439ZM211.707 112.727C212.396 112.727 212.981 112.602 213.465 112.353C213.963 112.089 214.336 111.723 214.585 111.254C214.849 110.771 214.974 110.192 214.959 109.519H221.924C221.939 111.306 221.5 112.873 220.606 114.221C219.727 115.554 218.526 116.594 217.002 117.341C215.494 118.073 213.787 118.439 211.883 118.439C210.022 118.439 208.396 118.139 207.005 117.539C205.613 116.923 204.449 116.074 203.511 114.99C202.588 113.891 201.893 112.609 201.424 111.145C200.97 109.68 200.743 108.09 200.743 106.376V105.871C200.743 104.157 200.97 102.568 201.424 101.103C201.893 99.6235 202.588 98.3418 203.511 97.2578C204.449 96.1592 205.606 95.3096 206.983 94.709C208.375 94.0938 209.993 93.7861 211.839 93.7861C213.816 93.7861 215.56 94.1597 217.068 94.9067C218.592 95.6538 219.786 96.7378 220.65 98.1587C221.514 99.5796 221.939 101.301 221.924 103.322H214.959C214.974 102.604 214.864 101.96 214.629 101.389C214.395 100.817 214.029 100.363 213.531 100.026C213.047 99.6748 212.425 99.499 211.663 99.499C210.901 99.499 210.286 99.6675 209.817 100.004C209.349 100.341 208.99 100.81 208.741 101.411C208.506 101.997 208.345 102.67 208.257 103.432C208.184 104.194 208.147 105.007 208.147 105.871V106.376C208.147 107.255 208.184 108.083 208.257 108.859C208.345 109.621 208.514 110.295 208.763 110.881C209.012 111.452 209.371 111.906 209.839 112.243C210.308 112.565 210.931 112.727 211.707 112.727ZM237.613 94.2256V99.3672H223.287V94.2256H237.613ZM226.297 88.3149H233.702V110.244C233.702 110.874 233.775 111.364 233.921 111.716C234.068 112.053 234.317 112.294 234.668 112.441C235.035 112.573 235.518 112.639 236.119 112.639C236.543 112.639 236.895 112.631 237.173 112.617C237.452 112.587 237.715 112.551 237.964 112.507V117.802C237.334 118.007 236.675 118.161 235.987 118.264C235.298 118.381 234.566 118.439 233.79 118.439C232.208 118.439 230.853 118.19 229.725 117.692C228.611 117.194 227.762 116.411 227.176 115.341C226.59 114.272 226.297 112.88 226.297 111.167V88.3149ZM264.881 107.146H256.927V101.191H264.881C265.965 101.191 266.844 101.008 267.518 100.642C268.191 100.275 268.682 99.77 268.99 99.1255C269.312 98.4663 269.473 97.7266 269.473 96.9062C269.473 96.0273 269.312 95.2144 268.99 94.4673C268.682 93.7202 268.191 93.1196 267.518 92.6655C266.844 92.1968 265.965 91.9624 264.881 91.9624H259.827V118H252.115V86.0078H264.881C267.444 86.0078 269.649 86.4766 271.495 87.4141C273.355 88.3516 274.783 89.6406 275.779 91.2812C276.775 92.9072 277.273 94.7676 277.273 96.8623C277.273 98.9277 276.775 100.729 275.779 102.268C274.783 103.806 273.355 105.007 271.495 105.871C269.649 106.721 267.444 107.146 264.881 107.146ZM288.326 84.25V118H280.921V84.25H288.326ZM287.447 105.3L285.711 105.344C285.711 103.674 285.916 102.136 286.326 100.729C286.736 99.3232 287.322 98.1001 288.084 97.0601C288.846 96.02 289.761 95.2144 290.831 94.6431C291.9 94.0718 293.086 93.7861 294.39 93.7861C295.562 93.7861 296.631 93.9546 297.598 94.2915C298.58 94.6284 299.422 95.1704 300.125 95.9175C300.843 96.6646 301.392 97.6387 301.773 98.8398C302.168 100.041 302.366 101.506 302.366 103.234V118H294.917V103.19C294.917 102.224 294.778 101.477 294.5 100.949C294.236 100.407 293.855 100.034 293.357 99.8286C292.859 99.6089 292.251 99.499 291.534 99.499C290.669 99.499 289.966 99.6455 289.424 99.9385C288.882 100.231 288.465 100.642 288.172 101.169C287.894 101.682 287.703 102.29 287.601 102.993C287.498 103.696 287.447 104.465 287.447 105.3ZM314.297 94.2256V118H306.871V94.2256H314.297ZM306.431 88.0952C306.431 87.0405 306.812 86.1763 307.574 85.5024C308.335 84.8286 309.324 84.4917 310.54 84.4917C311.756 84.4917 312.745 84.8286 313.506 85.5024C314.268 86.1763 314.649 87.0405 314.649 88.0952C314.649 89.1499 314.268 90.0142 313.506 90.688C312.745 91.3618 311.756 91.6987 310.54 91.6987C309.324 91.6987 308.335 91.3618 307.574 90.688C306.812 90.0142 306.431 89.1499 306.431 88.0952ZM326.69 84.25V118H319.263V84.25H326.69ZM330.337 106.354V105.893C330.337 104.15 330.586 102.546 331.084 101.081C331.583 99.6016 332.315 98.3198 333.282 97.2358C334.249 96.1519 335.442 95.3096 336.863 94.709C338.284 94.0938 339.925 93.7861 341.785 93.7861C343.66 93.7861 345.308 94.0938 346.729 94.709C348.165 95.3096 349.366 96.1519 350.333 97.2358C351.299 98.3198 352.032 99.6016 352.53 101.081C353.028 102.546 353.277 104.15 353.277 105.893V106.354C353.277 108.083 353.028 109.687 352.53 111.167C352.032 112.631 351.299 113.913 350.333 115.012C349.366 116.096 348.172 116.938 346.751 117.539C345.33 118.139 343.689 118.439 341.829 118.439C339.969 118.439 338.321 118.139 336.885 117.539C335.45 116.938 334.249 116.096 333.282 115.012C332.315 113.913 331.583 112.631 331.084 111.167C330.586 109.687 330.337 108.083 330.337 106.354ZM337.742 105.893V106.354C337.742 107.248 337.808 108.083 337.94 108.859C338.072 109.636 338.292 110.317 338.599 110.903C338.907 111.474 339.324 111.921 339.852 112.243C340.379 112.565 341.038 112.727 341.829 112.727C342.605 112.727 343.25 112.565 343.763 112.243C344.29 111.921 344.708 111.474 345.015 110.903C345.323 110.317 345.542 109.636 345.674 108.859C345.806 108.083 345.872 107.248 345.872 106.354V105.893C345.872 105.029 345.806 104.216 345.674 103.454C345.542 102.678 345.323 101.997 345.015 101.411C344.708 100.81 344.29 100.341 343.763 100.004C343.235 99.6675 342.576 99.499 341.785 99.499C341.009 99.499 340.357 99.6675 339.83 100.004C339.317 100.341 338.907 100.81 338.599 101.411C338.292 101.997 338.072 102.678 337.94 103.454C337.808 104.216 337.742 105.029 337.742 105.893ZM369.031 111.32C369.031 110.91 368.892 110.559 368.614 110.266C368.35 109.958 367.881 109.68 367.208 109.431C366.534 109.167 365.589 108.903 364.373 108.64C363.216 108.391 362.125 108.061 361.099 107.651C360.088 107.241 359.202 106.743 358.44 106.157C357.679 105.571 357.078 104.875 356.639 104.069C356.214 103.264 356.001 102.341 356.001 101.301C356.001 100.29 356.214 99.3379 356.639 98.4443C357.078 97.5361 357.715 96.7378 358.55 96.0493C359.4 95.3462 360.433 94.7969 361.648 94.4014C362.864 93.9912 364.249 93.7861 365.801 93.7861C367.94 93.7861 369.786 94.1157 371.338 94.7749C372.891 95.4194 374.085 96.3276 374.92 97.4995C375.77 98.6567 376.194 99.9971 376.194 101.521H368.79C368.79 100.92 368.687 100.407 368.482 99.9824C368.292 99.5576 367.977 99.2354 367.537 99.0156C367.098 98.7812 366.512 98.6641 365.779 98.6641C365.267 98.6641 364.798 98.7593 364.373 98.9497C363.963 99.1401 363.633 99.4038 363.384 99.7407C363.135 100.078 363.011 100.473 363.011 100.927C363.011 101.25 363.084 101.542 363.23 101.806C363.392 102.055 363.633 102.29 363.956 102.509C364.278 102.714 364.688 102.905 365.186 103.081C365.684 103.242 366.285 103.388 366.988 103.52C368.584 103.813 370.079 104.23 371.47 104.772C372.862 105.314 373.99 106.083 374.854 107.08C375.733 108.076 376.172 109.416 376.172 111.101C376.172 112.155 375.931 113.129 375.447 114.023C374.964 114.902 374.268 115.678 373.36 116.352C372.452 117.011 371.36 117.524 370.086 117.89C368.812 118.256 367.376 118.439 365.779 118.439C363.509 118.439 361.59 118.037 360.022 117.231C358.455 116.411 357.269 115.385 356.463 114.155C355.672 112.91 355.276 111.65 355.276 110.375H362.176C362.205 111.108 362.381 111.708 362.703 112.177C363.04 112.646 363.487 112.99 364.043 113.21C364.6 113.43 365.245 113.54 365.977 113.54C366.651 113.54 367.208 113.444 367.647 113.254C368.101 113.063 368.445 112.807 368.68 112.485C368.914 112.148 369.031 111.76 369.031 111.32ZM378.721 106.354V105.893C378.721 104.15 378.97 102.546 379.468 101.081C379.966 99.6016 380.699 98.3198 381.666 97.2358C382.632 96.1519 383.826 95.3096 385.247 94.709C386.668 94.0938 388.309 93.7861 390.169 93.7861C392.044 93.7861 393.692 94.0938 395.113 94.709C396.548 95.3096 397.75 96.1519 398.716 97.2358C399.683 98.3198 400.416 99.6016 400.914 101.081C401.412 102.546 401.661 104.15 401.661 105.893V106.354C401.661 108.083 401.412 109.687 400.914 111.167C400.416 112.631 399.683 113.913 398.716 115.012C397.75 116.096 396.556 116.938 395.135 117.539C393.714 118.139 392.073 118.439 390.213 118.439C388.353 118.439 386.705 118.139 385.269 117.539C383.833 116.938 382.632 116.096 381.666 115.012C380.699 113.913 379.966 112.631 379.468 111.167C378.97 109.687 378.721 108.083 378.721 106.354ZM386.126 105.893V106.354C386.126 107.248 386.192 108.083 386.324 108.859C386.456 109.636 386.675 110.317 386.983 110.903C387.291 111.474 387.708 111.921 388.235 112.243C388.763 112.565 389.422 112.727 390.213 112.727C390.989 112.727 391.634 112.565 392.146 112.243C392.674 111.921 393.091 111.474 393.399 110.903C393.707 110.317 393.926 109.636 394.058 108.859C394.19 108.083 394.256 107.248 394.256 106.354V105.893C394.256 105.029 394.19 104.216 394.058 103.454C393.926 102.678 393.707 101.997 393.399 101.411C393.091 100.81 392.674 100.341 392.146 100.004C391.619 99.6675 390.96 99.499 390.169 99.499C389.393 99.499 388.741 99.6675 388.213 100.004C387.701 100.341 387.291 100.81 386.983 101.411C386.675 101.997 386.456 102.678 386.324 103.454C386.192 104.216 386.126 105.029 386.126 105.893ZM412.427 98.7959V127.141H405.022V94.2256H411.922L412.427 98.7959ZM427.017 105.827V106.289C427.017 108.017 426.819 109.621 426.424 111.101C426.028 112.58 425.442 113.869 424.666 114.968C423.89 116.066 422.923 116.923 421.766 117.539C420.623 118.139 419.297 118.439 417.789 118.439C416.368 118.439 415.145 118.125 414.119 117.495C413.094 116.865 412.237 115.993 411.548 114.88C410.86 113.767 410.303 112.492 409.878 111.057C409.454 109.621 409.117 108.105 408.868 106.508V105.915C409.117 104.201 409.454 102.612 409.878 101.147C410.303 99.6675 410.86 98.3784 411.548 97.2798C412.237 96.1812 413.086 95.3242 414.097 94.709C415.123 94.0938 416.346 93.7861 417.767 93.7861C419.275 93.7861 420.601 94.0718 421.744 94.6431C422.901 95.2144 423.868 96.0347 424.644 97.104C425.435 98.1587 426.028 99.4258 426.424 100.905C426.819 102.385 427.017 104.025 427.017 105.827ZM419.612 106.289V105.827C419.612 104.904 419.546 104.062 419.415 103.3C419.283 102.524 419.07 101.85 418.777 101.279C418.499 100.708 418.125 100.268 417.657 99.9604C417.188 99.6528 416.609 99.499 415.921 99.499C415.13 99.499 414.463 99.6235 413.921 99.8726C413.394 100.107 412.969 100.473 412.647 100.971C412.339 101.455 412.12 102.062 411.988 102.795C411.871 103.513 411.819 104.355 411.834 105.322V107.124C411.805 108.237 411.915 109.218 412.164 110.068C412.413 110.903 412.845 111.555 413.46 112.023C414.075 112.492 414.91 112.727 415.965 112.727C416.668 112.727 417.254 112.565 417.723 112.243C418.191 111.906 418.565 111.445 418.843 110.859C419.122 110.258 419.319 109.57 419.437 108.793C419.554 108.017 419.612 107.182 419.612 106.289ZM437.564 84.25V118H430.159V84.25H437.564ZM436.685 105.3L434.949 105.344C434.949 103.674 435.154 102.136 435.564 100.729C435.975 99.3232 436.561 98.1001 437.322 97.0601C438.084 96.02 439 95.2144 440.069 94.6431C441.138 94.0718 442.325 93.7861 443.628 93.7861C444.8 93.7861 445.87 93.9546 446.836 94.2915C447.818 94.6284 448.66 95.1704 449.363 95.9175C450.081 96.6646 450.63 97.6387 451.011 98.8398C451.407 100.041 451.604 101.506 451.604 103.234V118H444.156V103.19C444.156 102.224 444.017 101.477 443.738 100.949C443.475 100.407 443.094 100.034 442.596 99.8286C442.098 99.6089 441.49 99.499 440.772 99.499C439.908 99.499 439.205 99.6455 438.663 99.9385C438.121 100.231 437.703 100.642 437.41 101.169C437.132 101.682 436.941 102.29 436.839 102.993C436.736 103.696 436.685 104.465 436.685 105.3ZM463.008 115.209L469.161 94.2256H477.115L467.557 121.538C467.352 122.138 467.081 122.783 466.744 123.471C466.407 124.174 465.945 124.841 465.359 125.471C464.773 126.101 464.019 126.613 463.096 127.009C462.188 127.404 461.06 127.602 459.712 127.602C458.995 127.602 458.467 127.565 458.13 127.492C457.808 127.434 457.31 127.324 456.636 127.163V121.867C456.827 121.867 456.988 121.867 457.12 121.867C457.266 121.867 457.427 121.867 457.603 121.867C458.394 121.867 459.024 121.787 459.493 121.625C459.976 121.464 460.342 121.23 460.591 120.922C460.855 120.615 461.06 120.241 461.207 119.802L463.008 115.209ZM461.448 94.2256L466.128 110.859L466.941 118.703H461.976L453.516 94.2256H461.448Z" fill="#424241"/>
<path d="M1363 15C1363 6.71573 1356.28 0 1348 0H1134V167H1348C1356.28 167 1363 160.284 1363 152V15Z" fill="#3AD514"/>
<path d="M1234.26 106.286H1262.74V111.857H1234.26V106.286ZM1239.96 117.429H1257.04V123H1239.96V117.429ZM1248.5 45C1240.95 45 1233.71 47.9349 1228.37 53.1592C1223.03 58.3834 1220.03 65.469 1220.03 72.8571C1219.84 76.9057 1220.63 80.9412 1222.34 84.6315C1224.05 88.3219 1226.64 91.5616 1229.88 94.0843C1232.73 96.675 1234.26 98.1514 1234.26 100.714H1239.96C1239.96 95.5886 1236.8 92.7193 1233.72 89.9614C1231.06 87.9676 1228.94 85.3658 1227.55 82.3838C1226.15 79.4019 1225.53 76.1308 1225.72 72.8571C1225.72 66.9466 1228.12 61.2781 1232.39 57.0988C1236.67 52.9194 1242.46 50.5714 1248.5 50.5714C1254.54 50.5714 1260.33 52.9194 1264.61 57.0988C1268.88 61.2781 1271.28 66.9466 1271.28 72.8571C1271.47 76.1333 1270.84 79.4059 1269.44 82.388C1268.04 85.3701 1265.92 87.9706 1263.25 89.9614C1260.2 92.7471 1257.04 95.5329 1257.04 100.714H1262.74C1262.74 98.1514 1264.25 96.675 1267.12 94.0564C1270.36 91.5381 1272.94 88.3031 1274.66 84.6176C1276.37 80.9321 1277.16 76.9014 1276.97 72.8571C1276.97 69.1989 1276.24 65.5765 1274.81 62.1967C1273.37 58.8169 1271.28 55.7459 1268.63 53.1592C1265.99 50.5724 1262.85 48.5205 1259.4 47.1205C1255.94 45.7205 1252.24 45 1248.5 45V45Z" fill="white"/>
</svg>
