<svg width="1363" height="167" viewBox="0 0 1363 167" fill="none" xmlns="http://www.w3.org/2000/svg">
<rect width="1363" height="167" rx="15" fill="#F0F0F0"/>
<path d="M0 15C0 6.71573 6.71573 0 15 0H37V167H15C6.71573 167 0 160.284 0 152V15Z" fill="#424241"/>
<path d="M100.906 54.9219L93.3945 52.2383V49.0859L103.602 53.375V55.6367L100.906 54.9219ZM93.3945 57.1719L100.918 54.4297L103.602 53.7852V56.0352L93.3945 60.3242V57.1719ZM120.781 57.5352C120.781 57.2305 120.734 56.957 120.641 56.7148C120.555 56.4648 120.391 56.2383 120.148 56.0352C119.906 55.8242 119.566 55.6172 119.129 55.4141C118.691 55.2109 118.125 55 117.43 54.7812C116.656 54.5312 115.922 54.25 115.227 53.9375C114.539 53.625 113.93 53.2617 113.398 52.8477C112.875 52.4258 112.461 51.9375 112.156 51.3828C111.859 50.8281 111.711 50.1836 111.711 49.4492C111.711 48.7383 111.867 48.0938 112.18 47.5156C112.492 46.9297 112.93 46.4297 113.492 46.0156C114.055 45.5938 114.719 45.2695 115.484 45.043C116.258 44.8164 117.105 44.7031 118.027 44.7031C119.285 44.7031 120.383 44.9297 121.32 45.3828C122.258 45.8359 122.984 46.457 123.5 47.2461C124.023 48.0352 124.285 48.9375 124.285 49.9531H120.793C120.793 49.4531 120.688 49.0156 120.477 48.6406C120.273 48.2578 119.961 47.957 119.539 47.7383C119.125 47.5195 118.602 47.4102 117.969 47.4102C117.359 47.4102 116.852 47.5039 116.445 47.6914C116.039 47.8711 115.734 48.1172 115.531 48.4297C115.328 48.7344 115.227 49.0781 115.227 49.4609C115.227 49.75 115.297 50.0117 115.438 50.2461C115.586 50.4805 115.805 50.6992 116.094 50.9023C116.383 51.1055 116.738 51.2969 117.16 51.4766C117.582 51.6562 118.07 51.832 118.625 52.0039C119.555 52.2852 120.371 52.6016 121.074 52.9531C121.785 53.3047 122.379 53.6992 122.855 54.1367C123.332 54.5742 123.691 55.0703 123.934 55.625C124.176 56.1797 124.297 56.8086 124.297 57.5117C124.297 58.2539 124.152 58.918 123.863 59.5039C123.574 60.0898 123.156 60.5859 122.609 60.9922C122.062 61.3984 121.41 61.707 120.652 61.918C119.895 62.1289 119.047 62.2344 118.109 62.2344C117.266 62.2344 116.434 62.125 115.613 61.9062C114.793 61.6797 114.047 61.3398 113.375 60.8867C112.711 60.4336 112.18 59.8555 111.781 59.1523C111.383 58.4492 111.184 57.6172 111.184 56.6562H114.711C114.711 57.1875 114.793 57.6367 114.957 58.0039C115.121 58.3711 115.352 58.668 115.648 58.8945C115.953 59.1211 116.312 59.2852 116.727 59.3867C117.148 59.4883 117.609 59.5391 118.109 59.5391C118.719 59.5391 119.219 59.4531 119.609 59.2812C120.008 59.1094 120.301 58.8711 120.488 58.5664C120.684 58.2617 120.781 57.918 120.781 57.5352ZM129.852 51.7578V66.875H126.477V49.3203H129.605L129.852 51.7578ZM137.879 55.5195V55.7656C137.879 56.6875 137.77 57.543 137.551 58.332C137.34 59.1211 137.027 59.8086 136.613 60.3945C136.199 60.9727 135.684 61.4258 135.066 61.7539C134.457 62.0742 133.754 62.2344 132.957 62.2344C132.184 62.2344 131.512 62.0781 130.941 61.7656C130.371 61.4531 129.891 61.0156 129.5 60.4531C129.117 59.8828 128.809 59.2227 128.574 58.4727C128.34 57.7227 128.16 56.918 128.035 56.0586V55.4141C128.16 54.4922 128.34 53.6484 128.574 52.8828C128.809 52.1094 129.117 51.4414 129.5 50.8789C129.891 50.3086 130.367 49.8672 130.93 49.5547C131.5 49.2422 132.168 49.0859 132.934 49.0859C133.738 49.0859 134.445 49.2383 135.055 49.543C135.672 49.8477 136.188 50.2852 136.602 50.8555C137.023 51.4258 137.34 52.1055 137.551 52.8945C137.77 53.6836 137.879 54.5586 137.879 55.5195ZM134.492 55.7656V55.5195C134.492 54.9805 134.445 54.4844 134.352 54.0312C134.266 53.5703 134.125 53.168 133.93 52.8242C133.742 52.4805 133.492 52.2148 133.18 52.0273C132.875 51.832 132.504 51.7344 132.066 51.7344C131.605 51.7344 131.211 51.8086 130.883 51.957C130.562 52.1055 130.301 52.3203 130.098 52.6016C129.895 52.8828 129.742 53.2188 129.641 53.6094C129.539 54 129.477 54.4414 129.453 54.9336V56.5625C129.492 57.1406 129.602 57.6602 129.781 58.1211C129.961 58.5742 130.238 58.9336 130.613 59.1992C130.988 59.4648 131.48 59.5977 132.09 59.5977C132.535 59.5977 132.91 59.5 133.215 59.3047C133.52 59.1016 133.766 58.8242 133.953 58.4727C134.148 58.1211 134.285 57.7148 134.363 57.2539C134.449 56.793 134.492 56.2969 134.492 55.7656ZM139.438 55.7891V55.543C139.438 54.6133 139.57 53.7578 139.836 52.9766C140.102 52.1875 140.488 51.5039 140.996 50.9258C141.504 50.3477 142.129 49.8984 142.871 49.5781C143.613 49.25 144.465 49.0859 145.426 49.0859C146.387 49.0859 147.242 49.25 147.992 49.5781C148.742 49.8984 149.371 50.3477 149.879 50.9258C150.395 51.5039 150.785 52.1875 151.051 52.9766C151.316 53.7578 151.449 54.6133 151.449 55.543V55.7891C151.449 56.7109 151.316 57.5664 151.051 58.3555C150.785 59.1367 150.395 59.8203 149.879 60.4062C149.371 60.9844 148.746 61.4336 148.004 61.7539C147.262 62.0742 146.41 62.2344 145.449 62.2344C144.488 62.2344 143.633 62.0742 142.883 61.7539C142.141 61.4336 141.512 60.9844 140.996 60.4062C140.488 59.8203 140.102 59.1367 139.836 58.3555C139.57 57.5664 139.438 56.7109 139.438 55.7891ZM142.812 55.543V55.7891C142.812 56.3203 142.859 56.8164 142.953 57.2773C143.047 57.7383 143.195 58.1445 143.398 58.4961C143.609 58.8398 143.883 59.1094 144.219 59.3047C144.555 59.5 144.965 59.5977 145.449 59.5977C145.918 59.5977 146.32 59.5 146.656 59.3047C146.992 59.1094 147.262 58.8398 147.465 58.4961C147.668 58.1445 147.816 57.7383 147.91 57.2773C148.012 56.8164 148.062 56.3203 148.062 55.7891V55.543C148.062 55.0273 148.012 54.543 147.91 54.0898C147.816 53.6289 147.664 53.2227 147.453 52.8711C147.25 52.5117 146.98 52.2305 146.645 52.0273C146.309 51.8242 145.902 51.7227 145.426 51.7227C144.949 51.7227 144.543 51.8242 144.207 52.0273C143.879 52.2305 143.609 52.5117 143.398 52.8711C143.195 53.2227 143.047 53.6289 142.953 54.0898C142.859 54.543 142.812 55.0273 142.812 55.543ZM159.734 49.3203V51.7109H152.352V49.3203H159.734ZM154.18 46.1914H157.555V58.1797C157.555 58.5469 157.602 58.8281 157.695 59.0234C157.797 59.2188 157.945 59.3555 158.141 59.4336C158.336 59.5039 158.582 59.5391 158.879 59.5391C159.09 59.5391 159.277 59.5312 159.441 59.5156C159.613 59.4922 159.758 59.4688 159.875 59.4453L159.887 61.9297C159.598 62.0234 159.285 62.0977 158.949 62.1523C158.613 62.207 158.242 62.2344 157.836 62.2344C157.094 62.2344 156.445 62.1133 155.891 61.8711C155.344 61.6211 154.922 61.2227 154.625 60.6758C154.328 60.1289 154.18 59.4102 154.18 58.5195V46.1914ZM165.219 49.3203V62H161.832V49.3203H165.219ZM161.621 46.0156C161.621 45.5234 161.793 45.1172 162.137 44.7969C162.48 44.4766 162.941 44.3164 163.52 44.3164C164.09 44.3164 164.547 44.4766 164.891 44.7969C165.242 45.1172 165.418 45.5234 165.418 46.0156C165.418 46.5078 165.242 46.9141 164.891 47.2344C164.547 47.5547 164.09 47.7148 163.52 47.7148C162.941 47.7148 162.48 47.5547 162.137 47.2344C161.793 46.9141 161.621 46.5078 161.621 46.0156ZM172.309 62H168.91V48.1953C168.91 47.2344 169.098 46.4258 169.473 45.7695C169.855 45.1055 170.391 44.6055 171.078 44.2695C171.773 43.9258 172.598 43.7539 173.551 43.7539C173.863 43.7539 174.164 43.7773 174.453 43.8242C174.742 43.8633 175.023 43.9141 175.297 43.9766L175.262 46.5195C175.113 46.4805 174.957 46.4531 174.793 46.4375C174.629 46.4219 174.438 46.4141 174.219 46.4141C173.812 46.4141 173.465 46.4844 173.176 46.625C172.895 46.7578 172.68 46.957 172.531 47.2227C172.383 47.4883 172.309 47.8125 172.309 48.1953V62ZM174.84 49.3203V51.7109H167.023V49.3203H174.84ZM180.371 60.5703L183.734 49.3203H187.355L182.258 63.9102C182.148 64.2305 182 64.5742 181.812 64.9414C181.633 65.3086 181.387 65.6562 181.074 65.9844C180.77 66.3203 180.383 66.5938 179.914 66.8047C179.453 67.0156 178.887 67.1211 178.215 67.1211C177.895 67.1211 177.633 67.1016 177.43 67.0625C177.227 67.0234 176.984 66.9688 176.703 66.8984V64.4258C176.789 64.4258 176.879 64.4258 176.973 64.4258C177.066 64.4336 177.156 64.4375 177.242 64.4375C177.688 64.4375 178.051 64.3867 178.332 64.2852C178.613 64.1836 178.84 64.0273 179.012 63.8164C179.184 63.6133 179.32 63.3477 179.422 63.0195L180.371 60.5703ZM178.965 49.3203L181.719 58.5078L182.199 62.082L179.902 62.3281L175.344 49.3203H178.965ZM204.781 56.3398H208.285C208.215 57.4883 207.898 58.5078 207.336 59.3984C206.781 60.2891 206.004 60.9844 205.004 61.4844C204.012 61.9844 202.816 62.2344 201.418 62.2344C200.324 62.2344 199.344 62.0469 198.477 61.6719C197.609 61.2891 196.867 60.7422 196.25 60.0312C195.641 59.3203 195.176 58.4609 194.855 57.4531C194.535 56.4453 194.375 55.3164 194.375 54.0664V52.8828C194.375 51.6328 194.539 50.5039 194.867 49.4961C195.203 48.4805 195.68 47.6172 196.297 46.9062C196.922 46.1953 197.668 45.6484 198.535 45.2656C199.402 44.8828 200.371 44.6914 201.441 44.6914C202.863 44.6914 204.062 44.9492 205.039 45.4648C206.023 45.9805 206.785 46.6914 207.324 47.5977C207.871 48.5039 208.199 49.5352 208.309 50.6914H204.793C204.754 50.0039 204.617 49.4219 204.383 48.9453C204.148 48.4609 203.793 48.0977 203.316 47.8555C202.848 47.6055 202.223 47.4805 201.441 47.4805C200.855 47.4805 200.344 47.5898 199.906 47.8086C199.469 48.0273 199.102 48.3594 198.805 48.8047C198.508 49.25 198.285 49.8125 198.137 50.4922C197.996 51.1641 197.926 51.9531 197.926 52.8594V54.0664C197.926 54.9492 197.992 55.7266 198.125 56.3984C198.258 57.0625 198.461 57.625 198.734 58.0859C199.016 58.5391 199.375 58.8828 199.812 59.1172C200.258 59.3438 200.793 59.457 201.418 59.457C202.152 59.457 202.758 59.3398 203.234 59.1055C203.711 58.8711 204.074 58.5234 204.324 58.0625C204.582 57.6016 204.734 57.0273 204.781 56.3398ZM213.676 44V62H210.301V44H213.676ZM213.195 55.2148H212.27C212.277 54.332 212.395 53.5195 212.621 52.7773C212.848 52.0273 213.172 51.3789 213.594 50.832C214.016 50.2773 214.52 49.8477 215.105 49.543C215.699 49.2383 216.355 49.0859 217.074 49.0859C217.699 49.0859 218.266 49.1758 218.773 49.3555C219.289 49.5273 219.73 49.8086 220.098 50.1992C220.473 50.582 220.762 51.0859 220.965 51.7109C221.168 52.3359 221.27 53.0938 221.27 53.9844V62H217.871V53.9609C217.871 53.3984 217.789 52.957 217.625 52.6367C217.469 52.3086 217.238 52.0781 216.934 51.9453C216.637 51.8047 216.27 51.7344 215.832 51.7344C215.348 51.7344 214.934 51.8242 214.59 52.0039C214.254 52.1836 213.984 52.4336 213.781 52.7539C213.578 53.0664 213.43 53.4336 213.336 53.8555C213.242 54.2773 213.195 54.7305 213.195 55.2148ZM230.68 59.1406V53.4922C230.68 53.0859 230.613 52.7383 230.48 52.4492C230.348 52.1523 230.141 51.9219 229.859 51.7578C229.586 51.5938 229.23 51.5117 228.793 51.5117C228.418 51.5117 228.094 51.5781 227.82 51.7109C227.547 51.8359 227.336 52.0195 227.188 52.2617C227.039 52.4961 226.965 52.7734 226.965 53.0938H223.59C223.59 52.5547 223.715 52.043 223.965 51.5586C224.215 51.0742 224.578 50.6484 225.055 50.2812C225.531 49.9062 226.098 49.6133 226.754 49.4023C227.418 49.1914 228.16 49.0859 228.98 49.0859C229.965 49.0859 230.84 49.25 231.605 49.5781C232.371 49.9062 232.973 50.3984 233.41 51.0547C233.855 51.7109 234.078 52.5312 234.078 53.5156V58.9414C234.078 59.6367 234.121 60.207 234.207 60.6523C234.293 61.0898 234.418 61.4727 234.582 61.8008V62H231.172C231.008 61.6562 230.883 61.2266 230.797 60.7109C230.719 60.1875 230.68 59.6641 230.68 59.1406ZM231.125 54.2773L231.148 56.1875H229.262C228.816 56.1875 228.43 56.2383 228.102 56.3398C227.773 56.4414 227.504 56.5859 227.293 56.7734C227.082 56.9531 226.926 57.1641 226.824 57.4062C226.73 57.6484 226.684 57.9141 226.684 58.2031C226.684 58.4922 226.75 58.7539 226.883 58.9883C227.016 59.2148 227.207 59.3945 227.457 59.5273C227.707 59.6523 228 59.7148 228.336 59.7148C228.844 59.7148 229.285 59.6133 229.66 59.4102C230.035 59.207 230.324 58.957 230.527 58.6602C230.738 58.3633 230.848 58.082 230.855 57.8164L231.746 59.2461C231.621 59.5664 231.449 59.8984 231.23 60.2422C231.02 60.5859 230.75 60.9102 230.422 61.2148C230.094 61.5117 229.699 61.7578 229.238 61.9531C228.777 62.1406 228.23 62.2344 227.598 62.2344C226.793 62.2344 226.062 62.0742 225.406 61.7539C224.758 61.4258 224.242 60.9766 223.859 60.4062C223.484 59.8281 223.297 59.1719 223.297 58.4375C223.297 57.7734 223.422 57.1836 223.672 56.668C223.922 56.1523 224.289 55.7188 224.773 55.3672C225.266 55.0078 225.879 54.7383 226.613 54.5586C227.348 54.3711 228.199 54.2773 229.168 54.2773H231.125ZM240.242 44V62H236.855V44H240.242ZM246.594 44V62H243.207V44H246.594ZM255.219 62.2344C254.234 62.2344 253.352 62.0781 252.57 61.7656C251.789 61.4453 251.125 61.0039 250.578 60.4414C250.039 59.8789 249.625 59.2266 249.336 58.4844C249.047 57.7344 248.902 56.9375 248.902 56.0938V55.625C248.902 54.6641 249.039 53.7852 249.312 52.9883C249.586 52.1914 249.977 51.5 250.484 50.9141C251 50.3281 251.625 49.8789 252.359 49.5664C253.094 49.2461 253.922 49.0859 254.844 49.0859C255.742 49.0859 256.539 49.2344 257.234 49.5312C257.93 49.8281 258.512 50.25 258.98 50.7969C259.457 51.3438 259.816 52 260.059 52.7656C260.301 53.5234 260.422 54.3672 260.422 55.2969V56.7031H250.344V54.4531H257.105V54.1953C257.105 53.7266 257.02 53.3086 256.848 52.9414C256.684 52.5664 256.434 52.2695 256.098 52.0508C255.762 51.832 255.332 51.7227 254.809 51.7227C254.363 51.7227 253.98 51.8203 253.66 52.0156C253.34 52.2109 253.078 52.4844 252.875 52.8359C252.68 53.1875 252.531 53.6016 252.43 54.0781C252.336 54.5469 252.289 55.0625 252.289 55.625V56.0938C252.289 56.6016 252.359 57.0703 252.5 57.5C252.648 57.9297 252.855 58.3008 253.121 58.6133C253.395 58.9258 253.723 59.168 254.105 59.3398C254.496 59.5117 254.938 59.5977 255.43 59.5977C256.039 59.5977 256.605 59.4805 257.129 59.2461C257.66 59.0039 258.117 58.6406 258.5 58.1562L260.141 59.9375C259.875 60.3203 259.512 60.6875 259.051 61.0391C258.598 61.3906 258.051 61.6797 257.41 61.9062C256.77 62.125 256.039 62.2344 255.219 62.2344ZM265.648 52.0273V62H262.273V49.3203H265.438L265.648 52.0273ZM265.156 55.2148H264.242C264.242 54.2773 264.363 53.4336 264.605 52.6836C264.848 51.9258 265.188 51.2812 265.625 50.75C266.062 50.2109 266.582 49.8008 267.184 49.5195C267.793 49.2305 268.473 49.0859 269.223 49.0859C269.816 49.0859 270.359 49.1719 270.852 49.3438C271.344 49.5156 271.766 49.7891 272.117 50.1641C272.477 50.5391 272.75 51.0352 272.938 51.6523C273.133 52.2695 273.23 53.0234 273.23 53.9141V62H269.832V53.9023C269.832 53.3398 269.754 52.9023 269.598 52.5898C269.441 52.2773 269.211 52.0586 268.906 51.9336C268.609 51.8008 268.242 51.7344 267.805 51.7344C267.352 51.7344 266.957 51.8242 266.621 52.0039C266.293 52.1836 266.02 52.4336 265.801 52.7539C265.59 53.0664 265.43 53.4336 265.32 53.8555C265.211 54.2773 265.156 54.7305 265.156 55.2148ZM283.824 49.3203H286.883V61.5781C286.883 62.7344 286.625 63.7148 286.109 64.5195C285.602 65.332 284.891 65.9453 283.977 66.3594C283.062 66.7812 282 66.9922 280.789 66.9922C280.258 66.9922 279.695 66.9219 279.102 66.7812C278.516 66.6406 277.953 66.4219 277.414 66.125C276.883 65.8281 276.438 65.4531 276.078 65L277.566 63.0078C277.957 63.4609 278.41 63.8125 278.926 64.0625C279.441 64.3203 280.012 64.4492 280.637 64.4492C281.246 64.4492 281.762 64.3359 282.184 64.1094C282.605 63.8906 282.93 63.5664 283.156 63.1367C283.383 62.7148 283.496 62.2031 283.496 61.6016V52.25L283.824 49.3203ZM275.293 55.8125V55.5664C275.293 54.5977 275.41 53.7188 275.645 52.9297C275.887 52.1328 276.227 51.4492 276.664 50.8789C277.109 50.3086 277.648 49.8672 278.281 49.5547C278.914 49.2422 279.629 49.0859 280.426 49.0859C281.27 49.0859 281.977 49.2422 282.547 49.5547C283.117 49.8672 283.586 50.3125 283.953 50.8906C284.32 51.4609 284.605 52.1367 284.809 52.918C285.02 53.6914 285.184 54.5391 285.301 55.4609V56C285.184 56.8828 285.008 57.7031 284.773 58.4609C284.539 59.2188 284.23 59.8828 283.848 60.4531C283.465 61.0156 282.988 61.4531 282.418 61.7656C281.855 62.0781 281.184 62.2344 280.402 62.2344C279.621 62.2344 278.914 62.0742 278.281 61.7539C277.656 61.4336 277.121 60.9844 276.676 60.4062C276.23 59.8281 275.887 59.1484 275.645 58.3672C275.41 57.5859 275.293 56.7344 275.293 55.8125ZM278.668 55.5664V55.8125C278.668 56.3359 278.719 56.8242 278.82 57.2773C278.922 57.7305 279.078 58.1328 279.289 58.4844C279.508 58.8281 279.777 59.0977 280.098 59.293C280.426 59.4805 280.812 59.5742 281.258 59.5742C281.875 59.5742 282.379 59.4453 282.77 59.1875C283.16 58.9219 283.453 58.5586 283.648 58.0977C283.844 57.6367 283.957 57.1055 283.988 56.5039V54.9688C283.973 54.4766 283.906 54.0352 283.789 53.6445C283.672 53.2461 283.508 52.9062 283.297 52.625C283.086 52.3438 282.812 52.125 282.477 51.9688C282.141 51.8125 281.742 51.7344 281.281 51.7344C280.836 51.7344 280.449 51.8359 280.121 52.0391C279.801 52.2344 279.531 52.5039 279.312 52.8477C279.102 53.1914 278.941 53.5977 278.832 54.0664C278.723 54.5273 278.668 55.0273 278.668 55.5664ZM295.344 62.2344C294.359 62.2344 293.477 62.0781 292.695 61.7656C291.914 61.4453 291.25 61.0039 290.703 60.4414C290.164 59.8789 289.75 59.2266 289.461 58.4844C289.172 57.7344 289.027 56.9375 289.027 56.0938V55.625C289.027 54.6641 289.164 53.7852 289.438 52.9883C289.711 52.1914 290.102 51.5 290.609 50.9141C291.125 50.3281 291.75 49.8789 292.484 49.5664C293.219 49.2461 294.047 49.0859 294.969 49.0859C295.867 49.0859 296.664 49.2344 297.359 49.5312C298.055 49.8281 298.637 50.25 299.105 50.7969C299.582 51.3438 299.941 52 300.184 52.7656C300.426 53.5234 300.547 54.3672 300.547 55.2969V56.7031H290.469V54.4531H297.23V54.1953C297.23 53.7266 297.145 53.3086 296.973 52.9414C296.809 52.5664 296.559 52.2695 296.223 52.0508C295.887 51.832 295.457 51.7227 294.934 51.7227C294.488 51.7227 294.105 51.8203 293.785 52.0156C293.465 52.2109 293.203 52.4844 293 52.8359C292.805 53.1875 292.656 53.6016 292.555 54.0781C292.461 54.5469 292.414 55.0625 292.414 55.625V56.0938C292.414 56.6016 292.484 57.0703 292.625 57.5C292.773 57.9297 292.98 58.3008 293.246 58.6133C293.52 58.9258 293.848 59.168 294.23 59.3398C294.621 59.5117 295.062 59.5977 295.555 59.5977C296.164 59.5977 296.73 59.4805 297.254 59.2461C297.785 59.0039 298.242 58.6406 298.625 58.1562L300.266 59.9375C300 60.3203 299.637 60.6875 299.176 61.0391C298.723 61.3906 298.176 61.6797 297.535 61.9062C296.895 62.125 296.164 62.2344 295.344 62.2344ZM317.785 62V64.5664H307.145V62H317.785ZM332.258 47.8555L327.617 62H323.879L330.219 44.9375H332.598L332.258 47.8555ZM336.113 62L331.461 47.8555L331.086 44.9375H333.488L339.863 62H336.113ZM335.902 55.6484V58.4023H326.891V55.6484H335.902ZM344.164 52.0273V62H340.789V49.3203H343.953L344.164 52.0273ZM343.672 55.2148H342.758C342.758 54.2773 342.879 53.4336 343.121 52.6836C343.363 51.9258 343.703 51.2812 344.141 50.75C344.578 50.2109 345.098 49.8008 345.699 49.5195C346.309 49.2305 346.988 49.0859 347.738 49.0859C348.332 49.0859 348.875 49.1719 349.367 49.3438C349.859 49.5156 350.281 49.7891 350.633 50.1641C350.992 50.5391 351.266 51.0352 351.453 51.6523C351.648 52.2695 351.746 53.0234 351.746 53.9141V62H348.348V53.9023C348.348 53.3398 348.27 52.9023 348.113 52.5898C347.957 52.2773 347.727 52.0586 347.422 51.9336C347.125 51.8008 346.758 51.7344 346.32 51.7344C345.867 51.7344 345.473 51.8242 345.137 52.0039C344.809 52.1836 344.535 52.4336 344.316 52.7539C344.105 53.0664 343.945 53.4336 343.836 53.8555C343.727 54.2773 343.672 54.7305 343.672 55.2148ZM362.34 49.3203H365.398V61.5781C365.398 62.7344 365.141 63.7148 364.625 64.5195C364.117 65.332 363.406 65.9453 362.492 66.3594C361.578 66.7812 360.516 66.9922 359.305 66.9922C358.773 66.9922 358.211 66.9219 357.617 66.7812C357.031 66.6406 356.469 66.4219 355.93 66.125C355.398 65.8281 354.953 65.4531 354.594 65L356.082 63.0078C356.473 63.4609 356.926 63.8125 357.441 64.0625C357.957 64.3203 358.527 64.4492 359.152 64.4492C359.762 64.4492 360.277 64.3359 360.699 64.1094C361.121 63.8906 361.445 63.5664 361.672 63.1367C361.898 62.7148 362.012 62.2031 362.012 61.6016V52.25L362.34 49.3203ZM353.809 55.8125V55.5664C353.809 54.5977 353.926 53.7188 354.16 52.9297C354.402 52.1328 354.742 51.4492 355.18 50.8789C355.625 50.3086 356.164 49.8672 356.797 49.5547C357.43 49.2422 358.145 49.0859 358.941 49.0859C359.785 49.0859 360.492 49.2422 361.062 49.5547C361.633 49.8672 362.102 50.3125 362.469 50.8906C362.836 51.4609 363.121 52.1367 363.324 52.918C363.535 53.6914 363.699 54.5391 363.816 55.4609V56C363.699 56.8828 363.523 57.7031 363.289 58.4609C363.055 59.2188 362.746 59.8828 362.363 60.4531C361.98 61.0156 361.504 61.4531 360.934 61.7656C360.371 62.0781 359.699 62.2344 358.918 62.2344C358.137 62.2344 357.43 62.0742 356.797 61.7539C356.172 61.4336 355.637 60.9844 355.191 60.4062C354.746 59.8281 354.402 59.1484 354.16 58.3672C353.926 57.5859 353.809 56.7344 353.809 55.8125ZM357.184 55.5664V55.8125C357.184 56.3359 357.234 56.8242 357.336 57.2773C357.438 57.7305 357.594 58.1328 357.805 58.4844C358.023 58.8281 358.293 59.0977 358.613 59.293C358.941 59.4805 359.328 59.5742 359.773 59.5742C360.391 59.5742 360.895 59.4453 361.285 59.1875C361.676 58.9219 361.969 58.5586 362.164 58.0977C362.359 57.6367 362.473 57.1055 362.504 56.5039V54.9688C362.488 54.4766 362.422 54.0352 362.305 53.6445C362.188 53.2461 362.023 52.9062 361.812 52.625C361.602 52.3438 361.328 52.125 360.992 51.9688C360.656 51.8125 360.258 51.7344 359.797 51.7344C359.352 51.7344 358.965 51.8359 358.637 52.0391C358.316 52.2344 358.047 52.5039 357.828 52.8477C357.617 53.1914 357.457 53.5977 357.348 54.0664C357.238 54.5273 357.184 55.0273 357.184 55.5664ZM375.523 58.9648V49.3203H378.898V62H375.723L375.523 58.9648ZM375.898 56.3633L376.895 56.3398C376.895 57.1836 376.797 57.9688 376.602 58.6953C376.406 59.4141 376.113 60.0391 375.723 60.5703C375.332 61.0938 374.84 61.5039 374.246 61.8008C373.652 62.0898 372.953 62.2344 372.148 62.2344C371.531 62.2344 370.961 62.1484 370.438 61.9766C369.922 61.7969 369.477 61.5195 369.102 61.1445C368.734 60.7617 368.445 60.2734 368.234 59.6797C368.031 59.0781 367.93 58.3555 367.93 57.5117V49.3203H371.305V57.5352C371.305 57.9102 371.348 58.2266 371.434 58.4844C371.527 58.7422 371.656 58.9531 371.82 59.1172C371.984 59.2812 372.176 59.3984 372.395 59.4688C372.621 59.5391 372.871 59.5742 373.145 59.5742C373.84 59.5742 374.387 59.4336 374.785 59.1523C375.191 58.8711 375.477 58.4883 375.641 58.0039C375.812 57.5117 375.898 56.9648 375.898 56.3633ZM385.039 44V62H381.652V44H385.039ZM394.672 59.1406V53.4922C394.672 53.0859 394.605 52.7383 394.473 52.4492C394.34 52.1523 394.133 51.9219 393.852 51.7578C393.578 51.5938 393.223 51.5117 392.785 51.5117C392.41 51.5117 392.086 51.5781 391.812 51.7109C391.539 51.8359 391.328 52.0195 391.18 52.2617C391.031 52.4961 390.957 52.7734 390.957 53.0938H387.582C387.582 52.5547 387.707 52.043 387.957 51.5586C388.207 51.0742 388.57 50.6484 389.047 50.2812C389.523 49.9062 390.09 49.6133 390.746 49.4023C391.41 49.1914 392.152 49.0859 392.973 49.0859C393.957 49.0859 394.832 49.25 395.598 49.5781C396.363 49.9062 396.965 50.3984 397.402 51.0547C397.848 51.7109 398.07 52.5312 398.07 53.5156V58.9414C398.07 59.6367 398.113 60.207 398.199 60.6523C398.285 61.0898 398.41 61.4727 398.574 61.8008V62H395.164C395 61.6562 394.875 61.2266 394.789 60.7109C394.711 60.1875 394.672 59.6641 394.672 59.1406ZM395.117 54.2773L395.141 56.1875H393.254C392.809 56.1875 392.422 56.2383 392.094 56.3398C391.766 56.4414 391.496 56.5859 391.285 56.7734C391.074 56.9531 390.918 57.1641 390.816 57.4062C390.723 57.6484 390.676 57.9141 390.676 58.2031C390.676 58.4922 390.742 58.7539 390.875 58.9883C391.008 59.2148 391.199 59.3945 391.449 59.5273C391.699 59.6523 391.992 59.7148 392.328 59.7148C392.836 59.7148 393.277 59.6133 393.652 59.4102C394.027 59.207 394.316 58.957 394.52 58.6602C394.73 58.3633 394.84 58.082 394.848 57.8164L395.738 59.2461C395.613 59.5664 395.441 59.8984 395.223 60.2422C395.012 60.5859 394.742 60.9102 394.414 61.2148C394.086 61.5117 393.691 61.7578 393.23 61.9531C392.77 62.1406 392.223 62.2344 391.59 62.2344C390.785 62.2344 390.055 62.0742 389.398 61.7539C388.75 61.4258 388.234 60.9766 387.852 60.4062C387.477 59.8281 387.289 59.1719 387.289 58.4375C387.289 57.7734 387.414 57.1836 387.664 56.668C387.914 56.1523 388.281 55.7188 388.766 55.3672C389.258 55.0078 389.871 54.7383 390.605 54.5586C391.34 54.3711 392.191 54.2773 393.16 54.2773H395.117ZM404.047 52.0859V62H400.672V49.3203H403.848L404.047 52.0859ZM407.867 49.2383L407.809 52.3672C407.645 52.3438 407.445 52.3242 407.211 52.3086C406.984 52.2852 406.777 52.2734 406.59 52.2734C406.113 52.2734 405.699 52.3359 405.348 52.4609C405.004 52.5781 404.715 52.7539 404.48 52.9883C404.254 53.2227 404.082 53.5078 403.965 53.8438C403.855 54.1797 403.793 54.5625 403.777 54.9922L403.098 54.7812C403.098 53.9609 403.18 53.207 403.344 52.5195C403.508 51.8242 403.746 51.2188 404.059 50.7031C404.379 50.1875 404.77 49.7891 405.23 49.5078C405.691 49.2266 406.219 49.0859 406.812 49.0859C407 49.0859 407.191 49.1016 407.387 49.1328C407.582 49.1562 407.742 49.1914 407.867 49.2383Z" fill="#888888"/>
<path d="M101.822 115.1L108.194 86.0078H111.995L114.061 88.4907L107.271 118H103.074L101.822 115.1ZM100.13 86.0078L105.513 115.319L104.129 118H99.2729L92.4834 86.0078H100.13ZM117.554 115.166L122.894 86.0078H130.518L123.729 118H118.895L117.554 115.166ZM114.742 86.0078L121.268 115.275L119.949 118H115.752L108.809 88.4468L110.962 86.0078H114.742ZM141.021 94.2256V118H133.594V94.2256H141.021ZM133.155 88.0952C133.155 87.0405 133.536 86.1763 134.297 85.5024C135.059 84.8286 136.048 84.4917 137.264 84.4917C138.479 84.4917 139.468 84.8286 140.23 85.5024C140.992 86.1763 141.373 87.0405 141.373 88.0952C141.373 89.1499 140.992 90.0142 140.23 90.688C139.468 91.3618 138.479 91.6987 137.264 91.6987C136.048 91.6987 135.059 91.3618 134.297 90.688C133.536 90.0142 133.155 89.1499 133.155 88.0952ZM153.062 100.114V118H145.657V94.2256H152.579L153.062 100.114ZM160.093 94.0498L159.961 100.927C159.668 100.898 159.273 100.861 158.775 100.817C158.277 100.773 157.859 100.751 157.522 100.751C156.658 100.751 155.911 100.854 155.281 101.059C154.666 101.25 154.153 101.542 153.743 101.938C153.348 102.319 153.055 102.802 152.864 103.388C152.688 103.974 152.608 104.655 152.623 105.432L151.282 104.553C151.282 102.956 151.436 101.506 151.744 100.202C152.066 98.8838 152.52 97.7485 153.106 96.7964C153.692 95.8296 154.402 95.0898 155.237 94.5771C156.072 94.0498 157.01 93.7861 158.05 93.7861C158.416 93.7861 158.775 93.8081 159.126 93.8521C159.493 93.896 159.815 93.9619 160.093 94.0498ZM173.716 118.439C171.783 118.439 170.054 118.139 168.531 117.539C167.007 116.923 165.718 116.081 164.664 115.012C163.624 113.942 162.825 112.712 162.269 111.32C161.727 109.929 161.456 108.457 161.456 106.904V106.069C161.456 104.326 161.697 102.714 162.181 101.235C162.664 99.7407 163.382 98.437 164.334 97.3237C165.286 96.2104 166.48 95.3462 167.916 94.731C169.351 94.1011 171.021 93.7861 172.925 93.7861C174.61 93.7861 176.119 94.0571 177.452 94.5991C178.785 95.1411 179.913 95.9175 180.835 96.9282C181.773 97.939 182.483 99.1621 182.967 100.598C183.465 102.033 183.714 103.645 183.714 105.432V108.442H164.29V103.806H176.485V103.234C176.5 102.443 176.36 101.77 176.067 101.213C175.789 100.656 175.379 100.231 174.837 99.9385C174.295 99.6455 173.636 99.499 172.859 99.499C172.054 99.499 171.387 99.6748 170.86 100.026C170.347 100.378 169.944 100.861 169.651 101.477C169.373 102.077 169.175 102.773 169.058 103.564C168.941 104.355 168.882 105.19 168.882 106.069V106.904C168.882 107.783 169 108.581 169.234 109.299C169.483 110.017 169.834 110.632 170.289 111.145C170.757 111.643 171.314 112.031 171.958 112.309C172.618 112.587 173.365 112.727 174.2 112.727C175.21 112.727 176.207 112.536 177.188 112.155C178.169 111.774 179.012 111.145 179.715 110.266L183.077 114.265C182.593 114.953 181.905 115.62 181.011 116.264C180.132 116.909 179.078 117.436 177.847 117.846C176.617 118.242 175.24 118.439 173.716 118.439ZM195.799 118H188.35V92.292C188.35 90.4463 188.724 88.8936 189.471 87.6338C190.218 86.374 191.272 85.4219 192.635 84.7773C193.997 84.1182 195.608 83.7886 197.469 83.7886C198.113 83.7886 198.721 83.8325 199.292 83.9204C199.864 84.0083 200.42 84.1182 200.962 84.25L200.984 89.6992C200.721 89.626 200.45 89.5747 200.171 89.5454C199.893 89.5161 199.549 89.5015 199.139 89.5015C198.421 89.5015 197.813 89.6113 197.315 89.8311C196.817 90.0361 196.436 90.3511 196.172 90.7759C195.923 91.186 195.799 91.6914 195.799 92.292V118ZM200.413 94.2256V99.3672H184.922V94.2256H200.413ZM210.542 100.114V118H203.138V94.2256H210.059L210.542 100.114ZM217.574 94.0498L217.442 100.927C217.149 100.898 216.753 100.861 216.255 100.817C215.757 100.773 215.34 100.751 215.003 100.751C214.139 100.751 213.392 100.854 212.762 101.059C212.146 101.25 211.634 101.542 211.224 101.938C210.828 102.319 210.535 102.802 210.345 103.388C210.169 103.974 210.088 104.655 210.103 105.432L208.763 104.553C208.763 102.956 208.917 101.506 209.224 100.202C209.546 98.8838 210 97.7485 210.586 96.7964C211.172 95.8296 211.883 95.0898 212.718 94.5771C213.553 94.0498 214.49 93.7861 215.53 93.7861C215.896 93.7861 216.255 93.8081 216.607 93.8521C216.973 93.896 217.295 93.9619 217.574 94.0498ZM231.812 112.023V102.224C231.812 101.55 231.717 100.971 231.526 100.488C231.336 100.004 231.036 99.6309 230.625 99.3672C230.215 99.0889 229.666 98.9497 228.978 98.9497C228.421 98.9497 227.945 99.0449 227.549 99.2354C227.154 99.4258 226.854 99.7114 226.648 100.092C226.443 100.473 226.341 100.957 226.341 101.542H218.936C218.936 100.444 219.178 99.4258 219.661 98.4883C220.159 97.5361 220.862 96.7085 221.771 96.0054C222.693 95.3022 223.792 94.7603 225.066 94.3794C226.355 93.9839 227.791 93.7861 229.373 93.7861C231.263 93.7861 232.947 94.1011 234.427 94.731C235.921 95.3608 237.1 96.3057 237.964 97.5654C238.829 98.8105 239.261 100.378 239.261 102.268V112.001C239.261 113.554 239.349 114.733 239.524 115.539C239.7 116.33 239.949 117.026 240.271 117.626V118H232.845C232.493 117.268 232.229 116.374 232.054 115.319C231.893 114.25 231.812 113.151 231.812 112.023ZM232.713 103.476L232.757 107.431H229.483C228.794 107.431 228.208 107.526 227.725 107.717C227.256 107.907 226.875 108.171 226.583 108.508C226.304 108.83 226.099 109.196 225.967 109.606C225.85 110.017 225.792 110.449 225.792 110.903C225.792 111.342 225.894 111.738 226.099 112.089C226.319 112.426 226.612 112.69 226.978 112.88C227.344 113.071 227.754 113.166 228.208 113.166C229.029 113.166 229.725 113.012 230.296 112.705C230.882 112.382 231.329 111.994 231.636 111.54C231.944 111.086 232.098 110.661 232.098 110.266L233.724 113.298C233.431 113.884 233.094 114.477 232.713 115.078C232.347 115.678 231.885 116.235 231.329 116.748C230.787 117.246 230.12 117.656 229.329 117.978C228.538 118.286 227.579 118.439 226.451 118.439C224.986 118.439 223.638 118.139 222.408 117.539C221.192 116.938 220.218 116.103 219.485 115.034C218.753 113.95 218.387 112.705 218.387 111.298C218.387 110.068 218.606 108.969 219.046 108.002C219.5 107.036 220.181 106.215 221.089 105.542C221.998 104.868 223.155 104.355 224.561 104.003C225.967 103.652 227.623 103.476 229.527 103.476H232.713ZM250.84 99.2573V118H243.436V94.2256H250.379L250.84 99.2573ZM249.939 105.3L248.248 105.344C248.248 103.674 248.445 102.136 248.841 100.729C249.236 99.3232 249.822 98.1001 250.599 97.0601C251.375 96.02 252.327 95.2144 253.455 94.6431C254.598 94.0718 255.916 93.7861 257.41 93.7861C258.45 93.7861 259.395 93.9473 260.245 94.2695C261.094 94.5771 261.827 95.0679 262.442 95.7417C263.057 96.4009 263.526 97.2651 263.848 98.3345C264.185 99.3892 264.354 100.656 264.354 102.136V118H256.949V103.081C256.949 102.07 256.832 101.308 256.597 100.795C256.377 100.283 256.055 99.9385 255.63 99.7627C255.206 99.5869 254.686 99.499 254.07 99.499C253.426 99.499 252.847 99.6455 252.334 99.9385C251.822 100.231 251.382 100.642 251.016 101.169C250.665 101.682 250.394 102.29 250.203 102.993C250.027 103.696 249.939 104.465 249.939 105.3ZM263.519 105.3L261.453 105.344C261.453 103.674 261.636 102.136 262.002 100.729C262.383 99.3232 262.947 98.1001 263.694 97.0601C264.456 96.02 265.401 95.2144 266.529 94.6431C267.657 94.0718 268.968 93.7861 270.462 93.7861C271.546 93.7861 272.542 93.9473 273.45 94.2695C274.358 94.5918 275.142 95.1118 275.801 95.8296C276.46 96.5474 276.973 97.4995 277.339 98.686C277.706 99.8579 277.889 101.308 277.889 103.037V118H270.462V103.037C270.462 102.055 270.345 101.315 270.11 100.817C269.891 100.305 269.568 99.9604 269.144 99.7847C268.719 99.5942 268.213 99.499 267.627 99.499C266.924 99.499 266.316 99.6455 265.804 99.9385C265.291 100.231 264.859 100.642 264.507 101.169C264.17 101.682 263.921 102.29 263.76 102.993C263.599 103.696 263.519 104.465 263.519 105.3ZM293.643 118.439C291.709 118.439 289.981 118.139 288.458 117.539C286.934 116.923 285.645 116.081 284.59 115.012C283.55 113.942 282.752 112.712 282.195 111.32C281.653 109.929 281.382 108.457 281.382 106.904V106.069C281.382 104.326 281.624 102.714 282.107 101.235C282.591 99.7407 283.309 98.437 284.261 97.3237C285.213 96.2104 286.407 95.3462 287.842 94.731C289.278 94.1011 290.948 93.7861 292.852 93.7861C294.537 93.7861 296.045 94.0571 297.378 94.5991C298.711 95.1411 299.839 95.9175 300.762 96.9282C301.7 97.939 302.41 99.1621 302.894 100.598C303.392 102.033 303.641 103.645 303.641 105.432V108.442H284.217V103.806H296.412V103.234C296.426 102.443 296.287 101.77 295.994 101.213C295.716 100.656 295.306 100.231 294.764 99.9385C294.222 99.6455 293.562 99.499 292.786 99.499C291.98 99.499 291.314 99.6748 290.787 100.026C290.274 100.378 289.871 100.861 289.578 101.477C289.3 102.077 289.102 102.773 288.985 103.564C288.868 104.355 288.809 105.19 288.809 106.069V106.904C288.809 107.783 288.926 108.581 289.161 109.299C289.41 110.017 289.761 110.632 290.215 111.145C290.684 111.643 291.241 112.031 291.885 112.309C292.544 112.587 293.292 112.727 294.126 112.727C295.137 112.727 296.133 112.536 297.115 112.155C298.096 111.774 298.938 111.145 299.642 110.266L303.003 114.265C302.52 114.953 301.832 115.62 300.938 116.264C300.059 116.909 299.004 117.436 297.774 117.846C296.543 118.242 295.167 118.439 293.643 118.439ZM319.109 111.32C319.109 110.91 318.97 110.559 318.692 110.266C318.428 109.958 317.959 109.68 317.286 109.431C316.612 109.167 315.667 108.903 314.451 108.64C313.294 108.391 312.203 108.061 311.177 107.651C310.167 107.241 309.28 106.743 308.519 106.157C307.757 105.571 307.156 104.875 306.717 104.069C306.292 103.264 306.08 102.341 306.08 101.301C306.08 100.29 306.292 99.3379 306.717 98.4443C307.156 97.5361 307.793 96.7378 308.628 96.0493C309.478 95.3462 310.511 94.7969 311.727 94.4014C312.942 93.9912 314.327 93.7861 315.879 93.7861C318.018 93.7861 319.864 94.1157 321.417 94.7749C322.969 95.4194 324.163 96.3276 324.998 97.4995C325.848 98.6567 326.272 99.9971 326.272 101.521H318.868C318.868 100.92 318.765 100.407 318.56 99.9824C318.37 99.5576 318.055 99.2354 317.615 99.0156C317.176 98.7812 316.59 98.6641 315.857 98.6641C315.345 98.6641 314.876 98.7593 314.451 98.9497C314.041 99.1401 313.711 99.4038 313.462 99.7407C313.213 100.078 313.089 100.473 313.089 100.927C313.089 101.25 313.162 101.542 313.309 101.806C313.47 102.055 313.711 102.29 314.034 102.509C314.356 102.714 314.766 102.905 315.264 103.081C315.762 103.242 316.363 103.388 317.066 103.52C318.663 103.813 320.157 104.23 321.548 104.772C322.94 105.314 324.068 106.083 324.932 107.08C325.811 108.076 326.25 109.416 326.25 111.101C326.25 112.155 326.009 113.129 325.525 114.023C325.042 114.902 324.346 115.678 323.438 116.352C322.53 117.011 321.438 117.524 320.164 117.89C318.89 118.256 317.454 118.439 315.857 118.439C313.587 118.439 311.668 118.037 310.101 117.231C308.533 116.411 307.347 115.385 306.541 114.155C305.75 112.91 305.354 111.65 305.354 110.375H312.254C312.283 111.108 312.459 111.708 312.781 112.177C313.118 112.646 313.565 112.99 314.122 113.21C314.678 113.43 315.323 113.54 316.055 113.54C316.729 113.54 317.286 113.444 317.725 113.254C318.179 113.063 318.523 112.807 318.758 112.485C318.992 112.148 319.109 111.76 319.109 111.32Z" fill="#424241"/>
<path d="M1363 15C1363 6.71573 1356.28 0 1348 0H1134V167H1348C1356.28 167 1363 160.284 1363 152V15Z" fill="#3AD514"/>
<path fill-rule="evenodd" clip-rule="evenodd" d="M1203 49C1203 47.8954 1203.9 47 1205 47H1292.5C1293.6 47 1294.5 47.8954 1294.5 49V118.996C1294.5 120.101 1293.6 120.996 1292.5 120.996H1205C1203.9 120.996 1203 120.101 1203 118.996V49ZM1207 51V55.4945H1290.5V51H1207ZM1290.5 59.4945H1235.44V116.996H1290.5V59.4945ZM1231.44 116.996V59.4945H1207V116.996H1231.44Z" fill="white"/>
<path fill-rule="evenodd" clip-rule="evenodd" d="M1209.97 64.8004C1209.97 63.6958 1210.87 62.8004 1211.97 62.8004H1225.97C1227.08 62.8004 1227.97 63.6958 1227.97 64.8004V84.1956C1227.97 85.3001 1227.08 86.1956 1225.97 86.1956H1211.97C1210.87 86.1956 1209.97 85.3001 1209.97 84.1956V64.8004ZM1213.97 66.8004V82.1956H1223.97V66.8004H1213.97ZM1239.58 65.6964C1239.58 64.5918 1240.47 63.6964 1241.58 63.6964H1284.5C1285.61 63.6964 1286.5 64.5918 1286.5 65.6964V111.905C1286.5 113.01 1285.61 113.905 1284.5 113.905H1241.58C1240.47 113.905 1239.58 113.01 1239.58 111.905V65.6964ZM1243.58 67.6964V109.905H1282.5V67.6964H1243.58ZM1209.81 95.9363C1209.81 94.8317 1210.71 93.9363 1211.81 93.9363H1220.73C1221.84 93.9363 1222.73 94.8317 1222.73 95.9363C1222.73 97.0409 1221.84 97.9363 1220.73 97.9363H1211.81C1210.71 97.9363 1209.81 97.0409 1209.81 95.9363ZM1209.81 102.936C1209.81 101.832 1210.71 100.936 1211.81 100.936H1226.35C1227.46 100.936 1228.35 101.832 1228.35 102.936C1228.35 104.041 1227.46 104.936 1226.35 104.936H1211.81C1210.71 104.936 1209.81 104.041 1209.81 102.936ZM1209.81 109.936C1209.81 108.832 1210.71 107.936 1211.81 107.936H1220.73C1221.84 107.936 1222.73 108.832 1222.73 109.936C1222.73 111.041 1221.84 111.936 1220.73 111.936H1211.81C1210.71 111.936 1209.81 111.041 1209.81 109.936Z" fill="white"/>
</svg>
